<?xml version="1.0" standalone="no"?>
<!DOCTYPE svg PUBLIC "-//W3C//DTD SVG 20010904//EN"
 "http://www.w3.org/TR/2001/REC-SVG-20010904/DTD/svg10.dtd">
<svg version="1.0" xmlns="http://www.w3.org/2000/svg"
 width="1024.000000pt" height="1024.000000pt" viewBox="0 0 1024.000000 1024.000000"
 preserveAspectRatio="xMidYMid meet">

<g transform="translate(0.000000,1024.000000) scale(0.100000,-0.100000)"
fill="#000000" stroke="none">
<path d="M0 5435 l0 -4805 48 0 c95 -1 174 -61 171 -129 -4 -70 46 -109 97
-76 20 13 24 22 19 38 -34 106 -17 114 236 114 157 0 191 3 210 17 34 24 78
20 162 -14 42 -17 83 -30 92 -30 9 0 35 -9 57 -20 49 -24 67 -25 93 -6 22 15
121 43 197 57 27 4 52 10 56 13 5 3 73 6 150 7 78 1 142 5 142 9 0 26 -72 98
-122 123 -70 35 -96 61 -156 153 -26 39 -73 111 -106 160 -32 49 -100 132
-151 184 -71 73 -116 132 -190 250 -54 85 -119 189 -145 230 -98 155 -191 340
-256 509 -25 62 -53 133 -64 157 -37 81 -74 189 -81 239 -4 28 -16 75 -27 105
-22 59 -50 191 -77 360 -9 58 -27 161 -40 230 -13 69 -31 181 -40 250 -8 69
-20 157 -26 195 -25 176 -48 693 -37 850 3 55 11 201 17 325 6 124 16 286 21
360 16 203 77 682 105 819 49 242 136 621 165 722 16 57 37 129 46 159 88 309
186 565 266 700 15 25 38 74 51 110 61 160 266 585 355 735 95 161 337 521
396 590 99 115 363 372 525 510 91 77 183 156 205 176 136 121 385 294 530
370 l111 59 -1502 0 -1503 0 0 -4805z"/>
<path d="M4034 10209 c-16 -17 -117 -99 -224 -182 -131 -102 -251 -208 -367
-321 -94 -93 -176 -172 -182 -176 -6 -3 7 -16 31 -30 24 -13 75 -44 113 -68
83 -54 205 -123 205 -116 0 3 -14 23 -32 45 -17 21 -28 42 -25 45 10 10 112
-55 191 -122 89 -76 221 -217 261 -277 10 -15 20 -26 22 -23 2 2 -3 32 -12 66
-9 34 -14 64 -11 67 6 6 85 -48 111 -77 11 -12 42 -38 70 -58 72 -51 112 -91
147 -145 22 -34 33 -45 39 -35 6 9 9 9 14 -5 11 -27 30 2 31 46 1 79 40 74
113 -16 28 -34 67 -93 87 -132 20 -38 44 -79 54 -90 31 -34 61 -104 67 -156 3
-27 8 -49 11 -49 3 0 28 18 56 39 78 60 130 81 209 81 75 0 90 -12 63 -51 -11
-17 -13 -26 -4 -36 15 -19 24 -17 57 15 16 15 36 32 43 37 7 6 37 30 66 54 29
24 55 41 59 38 3 -4 0 -26 -6 -51 -15 -60 -14 -66 9 -66 28 0 121 38 145 60
11 9 38 21 60 25 63 11 117 39 153 79 60 68 27 -15 -37 -93 l-36 -44 30 6 c17
3 68 17 115 32 100 31 205 39 205 15 0 -8 10 -16 23 -18 12 -2 22 -8 22 -13 0
-5 26 -22 59 -38 32 -17 61 -37 64 -46 7 -17 -8 -21 -18 -5 -3 6 -20 10 -37
10 -31 0 -31 0 -12 -21 20 -22 66 -49 83 -49 5 0 12 24 16 52 10 69 28 120 66
180 16 27 32 63 36 79 5 25 8 27 20 17 13 -10 20 -7 43 19 16 17 31 29 33 26
3 -3 46 33 95 79 197 187 318 276 400 293 37 8 41 -2 12 -33 -41 -44 -19 -43
46 1 67 45 148 83 219 103 33 9 103 36 155 59 52 23 129 54 170 69 41 15 93
35 115 45 22 10 53 21 70 25 48 12 185 67 185 74 0 4 -87 95 -192 202 -173
175 -353 334 -486 428 -47 34 -95 73 -162 131 l-35 31 -1431 0 -1430 0 -30
-31z m2718 -206 c23 -21 23 -40 0 -52 -14 -7 -25 -6 -40 5 -25 17 -28 34 -10
52 16 16 28 15 50 -5z m764 -351 c12 -9 30 -30 40 -46 18 -28 18 -29 -5 -47
-31 -25 -79 -24 -108 3 -30 28 -29 62 3 87 32 25 43 26 70 3z m-1436 -232 c0
-9 -6 -25 -14 -35 -13 -18 -15 -18 -40 -1 -28 18 -31 43 -6 62 19 15 60 -3 60
-26z"/>
<path d="M7700 10234 c0 -3 15 -11 33 -19 46 -20 319 -241 493 -401 447 -411
568 -532 661 -662 37 -53 94 -123 125 -157 31 -33 72 -85 90 -115 37 -60 82
-133 169 -268 30 -48 68 -109 84 -137 60 -106 112 -193 153 -255 43 -64 175
-327 214 -425 10 -27 31 -75 45 -105 79 -168 99 -217 149 -364 30 -89 69 -213
85 -276 17 -63 40 -144 50 -180 11 -36 34 -146 50 -245 16 -99 36 -208 44
-242 8 -34 19 -112 25 -172 6 -60 15 -133 20 -163 6 -29 15 -152 21 -273 6
-121 14 -242 18 -270 5 -27 9 1027 10 2343 l1 2392 -1270 0 c-698 0 -1270 -2
-1270 -6z"/>
<path d="M2696 9804 c-9 -22 3 -32 14 -14 12 19 12 30 1 30 -5 0 -12 -7 -15
-16z"/>
<path d="M2800 9664 c-13 -33 -11 -264 2 -309 5 -16 11 -70 13 -120 3 -49 10
-135 15 -190 11 -99 10 -169 -3 -182 -10 -9 1 -157 15 -213 7 -24 19 -60 29
-79 14 -30 15 -37 3 -49 -8 -7 -12 -23 -9 -35 2 -12 7 -43 10 -69 2 -26 9 -56
14 -65 16 -30 41 -91 41 -99 0 -4 6 -15 13 -23 7 -9 21 -50 31 -91 10 -41 22
-84 27 -95 6 -12 11 -27 13 -35 5 -25 23 -63 54 -117 17 -28 28 -54 25 -56 -2
-3 3 -22 12 -42 10 -19 15 -38 11 -42 -3 -3 2 -12 11 -18 14 -10 15 -16 6 -27
-9 -11 -9 -24 3 -58 8 -25 18 -52 23 -61 5 -8 7 -27 4 -42 -4 -19 -1 -27 8
-27 12 0 12 -2 0 -9 -9 -6 -10 -11 -2 -15 6 -4 11 -17 11 -30 0 -40 50 -124
93 -158 23 -18 53 -44 67 -59 14 -14 31 -24 38 -22 6 3 12 1 12 -4 0 -5 7 -18
15 -29 15 -18 16 -18 14 6 -4 78 4 242 11 220 l8 -25 1 27 c1 15 6 30 11 33
12 8 13 11 -5 -55 -8 -30 -15 -96 -15 -147 0 -77 3 -94 17 -102 10 -5 15 -13
10 -17 -4 -4 -16 3 -27 16 l-20 23 0 -22 c0 -12 -12 -34 -27 -48 -17 -16 -21
-24 -11 -20 15 5 17 -1 13 -54 -3 -55 -2 -58 13 -43 15 15 16 15 23 -2 4 -12
2 -23 -7 -30 -17 -14 -8 -24 22 -24 17 0 23 -7 26 -27 3 -26 6 -28 53 -28 55
0 95 -18 95 -41 0 -12 10 -15 42 -13 26 2 43 -1 46 -9 2 -6 -2 -12 -8 -12 -7
0 -10 -7 -6 -16 3 -8 2 -13 -3 -10 -7 5 -35 -45 -36 -64 0 -5 -31 -43 -51 -64
-17 -16 -54 -41 -62 -41 -4 0 -25 -13 -47 -28 -22 -15 -75 -48 -117 -73 -43
-25 -95 -65 -117 -87 -21 -23 -64 -70 -96 -105 -54 -57 -59 -66 -61 -113 -2
-45 0 -51 22 -59 13 -5 24 -16 24 -25 0 -8 7 -15 15 -15 8 0 15 -3 15 -8 0 -9
-28 -51 -46 -69 -10 -10 -9 -22 4 -55 9 -24 21 -47 27 -51 16 -13 123 0 150
17 53 35 75 2 35 -54 -11 -15 -17 -30 -13 -34 7 -7 -26 -77 -42 -88 -6 -5 -5
-8 2 -8 7 0 28 14 48 31 35 31 60 34 36 5 -7 -8 -10 -20 -6 -25 10 -17 -60
-77 -125 -107 -33 -15 -60 -32 -60 -37 0 -5 7 -6 16 -3 8 3 13 2 9 -3 -3 -5 1
-12 7 -14 7 -3 2 -6 -12 -7 -42 -2 -93 -33 -114 -69 -19 -33 -19 -34 0 -48 24
-18 123 -13 174 10 19 8 54 23 78 33 45 18 102 74 102 99 0 8 5 15 10 15 6 0
10 11 10 25 0 14 5 25 11 25 6 0 9 -7 5 -15 -3 -9 2 -23 12 -33 9 -9 17 -21
16 -27 -2 -31 -21 -76 -50 -120 -41 -63 -67 -125 -52 -125 6 0 8 -11 5 -29 -6
-28 -5 -29 26 -27 18 2 48 13 67 24 70 41 108 60 126 63 21 3 92 -18 110 -33
7 -5 17 -7 22 -6 14 4 82 -71 71 -78 -21 -12 -6 -24 30 -24 24 0 46 -7 57 -17
17 -17 18 -17 11 0 -3 9 -4 17 -2 17 11 0 120 -56 123 -62 2 -5 8 -8 14 -8 19
0 97 -43 93 -51 -3 -4 4 -5 15 -2 11 3 20 1 20 -5 0 -20 58 -40 98 -35 29 4
50 -1 88 -21 l49 -26 -45 5 c-39 4 -42 3 -22 -7 12 -6 32 -26 43 -45 11 -18
28 -33 37 -33 12 0 10 -6 -9 -26 l-24 -26 26 7 c22 5 27 3 33 -18 3 -15 12
-24 23 -23 10 0 19 -7 21 -19 5 -26 32 -56 43 -49 19 11 13 -80 -8 -120 l-15
-28 -34 33 c-19 18 -34 37 -34 41 0 8 -37 48 -44 48 -16 0 -8 -42 16 -76 26
-40 30 -59 25 -130 -2 -24 -6 -30 -20 -26 -23 6 -14 -18 30 -81 49 -70 40 -78
-20 -19 -29 29 -58 52 -66 52 -15 0 -41 -25 -41 -40 0 -12 54 -85 83 -111 19
-19 22 -29 6 -29 -6 0 -18 -7 -26 -16 -13 -13 -17 -13 -24 -2 -6 9 -10 3 -15
-20 -4 -18 -11 -35 -16 -38 -6 -4 -7 2 -2 17 13 38 10 102 -4 107 -8 2 -11 -5
-10 -20 3 -18 -2 -24 -24 -26 -16 -2 -28 2 -28 8 0 7 8 9 20 5 11 -4 20 -2 20
4 0 17 -47 13 -54 -4 -3 -8 -12 -15 -21 -15 -11 0 -15 -11 -15 -44 0 -59 15
-95 42 -105 19 -7 15 -9 -25 -15 -26 -4 -47 -13 -47 -19 0 -7 -6 -3 -12 8 -18
32 -37 47 -51 42 -8 -4 -8 -6 0 -6 17 -1 3 -40 -20 -56 -25 -17 -19 -19 18 -5
23 9 25 8 15 -9 -13 -26 16 -37 41 -15 16 14 18 14 28 -5 15 -28 14 -33 -7
-27 -10 4 -27 -3 -42 -17 -14 -13 -32 -22 -40 -20 -12 3 -12 2 1 -9 9 -7 28
-31 43 -52 17 -25 26 -33 26 -21 0 12 5 15 18 10 9 -4 29 -10 44 -12 62 -11
32 -78 -42 -92 l-45 -8 39 -8 c25 -5 51 -4 69 3 23 9 26 8 18 -2 -6 -7 -8 -16
-4 -19 10 -11 -48 -8 -89 4 -42 11 -68 48 -68 96 l0 28 -15 -25 c-8 -14 -17
-31 -21 -38 -4 -8 0 -32 7 -55 8 -23 14 -45 14 -49 0 -3 3 -10 8 -14 21 -22 3
-89 -36 -131 -11 -13 -17 -23 -13 -23 4 0 -4 -14 -19 -32 -14 -17 -24 -39 -22
-48 3 -13 -1 -17 -17 -14 -11 2 -15 2 -8 -2 18 -9 15 -37 -4 -30 -12 5 -14 1
-8 -17 3 -12 3 -19 -1 -15 -14 13 -86 -143 -86 -184 0 -21 -4 -38 -9 -38 -8 0
-20 -37 -26 -82 -5 -41 29 -38 49 5 13 28 36 98 43 134 1 6 7 19 14 30 9 15
10 11 6 -22 -4 -31 -4 -35 4 -17 5 12 11 22 14 22 7 0 -7 -44 -22 -68 -11 -17
-12 -28 -4 -45 23 -48 23 -61 3 -77 -19 -15 -33 -69 -18 -70 21 -1 27 1 27 9
0 9 107 121 115 121 16 0 1 -29 -21 -40 -21 -12 -25 -19 -20 -43 5 -25 4 -28
-9 -17 -8 7 -16 9 -16 4 -1 -5 -2 -15 -3 -21 -1 -14 -173 -193 -184 -193 -4 0
-13 -13 -19 -29 -9 -24 -8 -29 3 -24 8 3 25 2 38 -1 18 -4 22 -11 19 -31 -4
-19 0 -27 20 -34 l26 -10 -5 -128 c-2 -70 -10 -141 -16 -156 -13 -33 -16 -145
-5 -202 l7 -40 -26 53 c-14 28 -31 52 -39 52 -15 0 -47 84 -37 96 4 4 1 4 -6
0 -7 -4 -12 -1 -12 8 0 9 -5 16 -11 16 -6 0 -9 -7 -5 -15 3 -8 1 -15 -5 -15
-5 0 -9 -6 -7 -12 4 -18 -23 -109 -39 -135 -9 -14 -11 -23 -4 -28 7 -4 7 -12
2 -23 -5 -9 -16 -36 -25 -59 -21 -58 -95 -169 -150 -225 -71 -73 -114 -158
-62 -125 23 15 24 15 19 -4 -7 -26 -81 -89 -98 -83 -17 7 -44 -7 -84 -45 -18
-17 -39 -31 -47 -31 -8 0 -46 -32 -84 -70 l-70 -70 0 -65 c0 -51 3 -65 15 -65
8 0 15 4 15 9 0 6 9 9 20 8 24 -2 26 -12 5 -21 -8 -3 -15 -12 -15 -20 0 -9
-11 -23 -25 -32 -14 -9 -25 -26 -25 -38 0 -11 -7 -34 -16 -51 -11 -20 -14 -44
-10 -72 3 -24 2 -43 -3 -43 -12 0 -29 51 -37 110 -9 67 -16 77 -51 64 -18 -6
-27 -16 -25 -27 5 -30 -118 -77 -243 -92 -70 -9 -88 -20 -81 -50 6 -23 0 -28
-71 -57 -18 -7 -33 -16 -33 -20 0 -5 -7 -8 -15 -8 -9 0 -15 -9 -15 -25 0 -14
-7 -37 -16 -51 -16 -23 -16 -26 5 -48 24 -25 27 -36 9 -36 -7 0 -23 -8 -36
-18 -23 -18 -23 -18 -5 -49 17 -31 17 -33 -2 -59 -12 -15 -36 -35 -55 -46 -43
-23 -46 -50 -9 -77 29 -21 39 -63 19 -76 -21 -13 5 -34 93 -75 117 -55 147
-76 147 -102 0 -11 8 -33 17 -49 9 -15 15 -31 12 -34 -3 -2 -46 -7 -96 -9
-146 -7 -182 -45 -43 -46 87 0 102 -10 70 -45 -14 -15 -41 -34 -60 -42 -19 -8
-29 -17 -22 -20 25 -9 11 -19 -20 -15 -31 5 -32 4 -18 -13 11 -14 11 -17 1
-11 -18 12 -123 8 -135 -4 -13 -13 -119 -13 -132 0 -6 6 -56 10 -115 10 -230
-2 -255 -1 -284 5 -16 3 -38 6 -47 6 -10 0 -18 4 -18 10 0 5 -7 9 -15 9 -18 0
-20 -17 -3 -23 7 -2 10 -8 6 -12 -9 -10 -69 5 -62 16 3 5 0 9 -5 9 -6 0 -11
-4 -11 -10 0 -5 -5 -10 -10 -10 -6 0 -9 6 -8 12 3 13 -63 21 -264 32 -109 6
-132 0 -108 -29 9 -11 8 -14 -9 -12 -11 1 -18 3 -16 6 12 11 -52 30 -98 28
-43 -2 -54 -6 -62 -25 -5 -12 -15 -22 -22 -22 -19 0 -16 9 9 29 l21 18 -27 7
c-16 4 -31 5 -34 1 -3 -3 2 -5 11 -5 9 0 17 -4 17 -9 0 -5 -9 -7 -20 -4 -12 3
-20 2 -19 -3 5 -27 -3 -34 -40 -32 -30 1 -36 4 -27 13 6 6 18 14 26 17 32 10
-29 27 -101 28 -94 2 -229 -6 -249 -14 -8 -4 -38 -1 -65 5 -75 16 -171 22
-188 12 -24 -13 -107 -4 -107 12 0 8 -10 12 -25 10 -14 -1 -27 1 -29 4 -3 4
-26 5 -53 3 -26 -2 -83 -4 -125 -5 l-78 -2 0 -78 0 -78 270 1 c162 1 268 5
265 11 -4 5 6 9 20 9 15 0 24 -4 20 -10 -4 -7 71 -10 217 -9 124 0 214 4 203
8 -16 7 -11 10 25 15 96 14 108 14 114 1 4 -11 -9 -15 -52 -18 -31 -2 1356 -4
3083 -4 1727 0 3131 2 3120 4 -11 3 -24 9 -30 14 -5 5 -14 9 -20 9 -5 0 -5 -4
2 -8 7 -5 -4 -8 -28 -9 -22 -1 -37 2 -34 7 3 5 13 9 23 9 9 0 37 4 60 11 24 6
63 7 85 4 23 -4 107 -7 187 -8 132 -1 145 -3 144 -18 -2 -23 13 -23 19 -1 4
17 5 17 6 1 0 -10 6 -18 11 -18 6 0 10 8 8 17 -2 12 4 19 20 21 26 4 30 22 4
22 -10 0 -23 5 -30 12 -8 8 -15 8 -28 -3 -12 -9 -15 -10 -10 -2 4 7 3 13 -3
13 -5 0 -13 -4 -16 -10 -8 -13 -126 -13 -145 1 -11 7 0 9 40 7 49 -3 55 -1 55
17 0 22 -34 32 -63 19 -9 -4 -40 -7 -67 -6 -43 0 -51 -2 -51 -18 0 -15 6 -17
33 -13 22 4 33 2 33 -7 0 -8 -15 -11 -50 -8 -28 1 -50 1 -50 -2 0 -3 -20 -4
-45 -2 -25 2 -45 8 -45 13 0 4 -6 6 -12 4 -7 -3 -35 -1 -63 4 l-50 9 74 1 c41
0 72 3 70 5 -8 8 -190 15 -207 8 -13 -4 -10 -9 13 -19 l30 -14 -35 7 c-50 9
-357 15 -344 6 7 -4 -44 -8 -112 -9 -68 -1 -124 2 -124 6 0 4 60 14 133 23 82
9 149 23 177 36 40 18 63 20 208 19 89 -1 162 1 162 5 0 12 -37 19 -64 12 -14
-3 -43 -3 -64 1 -35 8 -36 8 -12 15 14 5 41 8 61 9 27 1 39 7 48 25 11 20 9
32 -16 92 -16 38 -42 89 -59 113 -16 24 -36 55 -45 68 -9 14 -15 33 -12 43 5
19 -57 139 -82 160 -16 13 -20 40 -7 40 16 0 41 119 47 224 8 159 13 170 55
144 28 -18 65 6 78 51 18 64 22 115 9 148 -7 18 -69 91 -139 163 -71 71 -127
133 -126 138 4 9 -41 82 -51 82 -4 0 -15 14 -25 32 -43 72 -108 136 -193 191
-37 24 -79 57 -92 73 l-24 28 -15 -32 c-8 -17 -22 -34 -30 -37 -12 -4 -13 6
-8 62 3 38 8 122 12 187 5 91 11 129 26 158 11 21 17 45 14 54 -8 22 28 100
53 116 12 7 21 17 21 21 0 5 7 16 16 25 13 13 15 29 11 78 -6 59 7 114 25 114
5 0 17 20 29 45 23 48 23 123 -1 200 -6 22 -13 52 -15 66 -1 15 -6 37 -10 49
-4 14 -3 20 3 16 6 -3 12 10 14 32 4 30 0 43 -24 71 -16 18 -39 53 -50 76 -12
24 -26 41 -33 39 -12 -5 -85 117 -106 178 -13 39 -4 72 29 107 11 12 11 15 0
23 -16 10 -108 -84 -108 -111 0 -31 -23 -50 -52 -44 -15 3 -26 8 -24 12 3 4
-12 6 -32 4 -27 -2 -31 0 -15 5 13 4 48 29 78 56 40 35 55 55 53 70 -3 18 -10
21 -48 21 -37 0 -45 3 -44 17 1 10 -2 15 -7 12 -13 -7 -11 3 4 26 10 17 9 22
-3 30 -8 5 -11 12 -8 15 4 4 15 -3 25 -14 23 -27 37 -27 22 0 -8 15 -8 19 0
15 6 -4 11 -2 11 4 0 6 5 8 10 5 6 -3 13 1 16 10 4 10 17 16 33 15 50 -4 53
-2 47 35 -5 30 -3 33 12 28 15 -6 15 -5 3 10 -8 11 -21 15 -32 12 -11 -4 -19
-2 -19 4 0 6 5 11 10 11 19 0 10 25 -26 75 -20 28 -34 42 -31 33 7 -21 -13
-24 -44 -8 -16 9 -19 7 -19 -15 0 -14 -6 -25 -13 -25 -8 0 -13 10 -13 23 1 18
-4 21 -24 19 -21 -4 -22 -2 -11 12 7 9 18 13 25 10 6 -3 -4 8 -21 25 -37 35
-43 47 -13 29 24 -15 31 -8 36 34 2 18 11 38 20 45 20 14 10 53 -13 53 -9 0
-13 3 -10 7 4 3 2 12 -5 20 -6 8 -7 13 -2 12 19 -6 54 13 54 29 0 14 -2 15 -9
3 -8 -12 -12 -12 -25 -2 -13 11 -20 9 -46 -9 -26 -19 -35 -36 -31 -62 2 -19
-20 -58 -34 -58 -19 0 -19 4 0 40 15 28 14 30 -5 30 -26 0 -25 8 2 37 18 19
20 26 9 33 -8 4 -11 15 -8 23 3 8 2 28 -2 43 -6 25 -8 26 -24 9 -23 -23 -32
-13 -16 17 12 23 12 23 -9 4 -21 -18 -21 -18 -17 3 2 11 13 30 24 43 22 23 29
44 11 33 -5 -3 -10 -1 -10 4 0 6 5 11 11 11 6 0 8 7 5 16 -4 10 -2 13 6 8 7
-5 9 -2 5 9 -3 9 -9 42 -12 74 -4 32 -12 63 -18 68 -7 6 -13 37 -15 70 -3 59
10 102 35 118 7 4 13 13 13 18 0 6 -4 8 -9 5 -5 -4 -7 12 -4 36 11 87 84 116
210 82 37 -10 70 -20 73 -23 28 -32 95 -39 140 -16 15 8 50 17 77 19 26 2 50
5 53 6 6 3 20 6 35 9 6 1 17 5 25 11 12 7 11 12 -5 27 -22 20 -32 63 -16 63 6
0 11 6 11 14 0 8 6 16 14 18 8 2 30 26 48 53 20 28 52 59 73 70 26 14 47 37
65 70 19 35 35 52 59 60 26 8 39 23 62 70 16 33 32 77 36 98 3 20 10 40 14 43
5 3 9 14 9 25 0 11 4 18 9 14 12 -7 34 32 26 45 -4 6 -1 9 7 8 7 -2 18 -14 25
-28 l11 -25 1 24 c1 22 2 23 26 7 13 -9 31 -16 38 -16 8 0 26 -9 40 -20 28
-22 37 -25 37 -10 0 14 37 50 45 42 3 -3 8 4 12 16 3 12 9 22 14 22 5 0 9 5 9
11 0 6 -8 8 -19 4 -10 -3 -23 0 -29 7 -30 38 -64 115 -69 158 -3 28 -9 50 -13
50 -4 0 -10 18 -13 40 -3 21 -14 51 -26 66 -12 15 -21 35 -21 45 0 10 -8 24
-18 30 -17 11 -18 26 -15 179 l3 167 -30 56 c-36 67 -24 84 26 36 24 -23 34
-28 34 -17 0 8 7 21 15 28 21 17 20 21 -25 78 -56 70 -50 78 9 12 l49 -54 7
64 c7 58 5 65 -14 81 -11 9 -21 22 -21 28 0 6 -5 11 -10 11 -6 0 -20 9 -32 20
-12 11 -17 20 -11 20 6 0 16 -7 23 -15 7 -8 19 -15 26 -15 8 0 14 -4 14 -10 0
-5 7 -10 15 -10 8 0 15 -7 15 -16 0 -25 32 -12 40 16 17 59 42 211 36 217 -3
3 -6 -2 -6 -13 0 -16 -2 -17 -11 -4 -8 12 -9 10 -4 -9 5 -14 0 -37 -11 -61
l-18 -37 -22 40 c-12 22 -19 48 -17 58 5 19 29 32 43 24 4 -3 13 2 20 10 10
13 9 19 -5 35 -10 11 -13 20 -7 20 6 0 19 -12 27 -27 9 -16 14 -20 11 -10 -3
10 6 40 20 66 24 48 25 48 67 44 l42 -4 30 66 c31 66 41 148 22 173 -5 6 -18
12 -29 12 -15 0 -18 4 -13 18 4 9 8 39 9 66 1 30 6 51 14 54 7 2 28 34 47 71
18 37 49 87 67 112 112 148 235 389 253 496 8 50 25 94 43 115 8 10 16 28 18
40 2 13 13 55 23 93 11 39 20 80 20 93 1 12 12 45 26 72 14 27 25 62 25 77 0
15 7 51 16 78 8 28 21 88 28 135 8 47 23 121 35 165 25 89 47 368 36 441 -8
55 -42 83 -82 68 -30 -10 -43 -34 -19 -34 9 0 16 -4 16 -9 0 -15 -121 -86
-170 -100 -25 -7 -60 -19 -77 -27 -18 -7 -38 -12 -45 -10 -7 1 -10 1 -5 -1 12
-8 8 -23 -7 -23 -8 0 -18 -9 -21 -20 -7 -21 -63 -56 -73 -45 -4 3 11 21 33 40
l40 33 -50 -10 c-62 -12 -126 -39 -119 -49 2 -4 -5 -13 -17 -20 -12 -6 -45
-30 -73 -53 -118 -96 -131 -114 -73 -101 17 4 48 8 68 10 20 1 41 5 48 9 6 4
11 2 11 -3 0 -6 -9 -11 -21 -11 -11 0 -18 -4 -14 -9 3 -6 -9 -7 -30 -4 -27 4
-35 2 -35 -9 0 -10 -31 -27 -85 -49 -83 -32 -96 -41 -75 -54 10 -6 -29 -45
-46 -45 -15 0 -131 -59 -184 -94 -30 -20 -58 -36 -62 -36 -4 0 -22 -9 -40 -21
l-33 -20 45 6 c25 4 57 13 72 20 34 16 96 30 85 19 -7 -8 -56 -27 -112 -44
-16 -5 -85 -38 -153 -72 -89 -46 -116 -64 -100 -66 42 -7 39 -19 -9 -41 -71
-33 -96 -48 -85 -52 5 -2 -8 -16 -29 -31 -28 -20 -39 -24 -39 -13 0 7 5 17 10
20 6 3 10 11 10 17 0 5 -12 -4 -27 -21 -15 -17 -33 -31 -40 -31 -7 0 -13 -7
-13 -15 0 -8 -6 -15 -14 -15 -7 0 -22 -12 -31 -27 -10 -16 -31 -40 -46 -55
-16 -15 -29 -31 -29 -36 0 -5 -11 -21 -25 -36 -14 -15 -25 -33 -25 -40 0 -6
-5 -17 -12 -24 -7 -7 -8 -12 -4 -12 5 0 3 -6 -3 -14 -7 -8 -16 -28 -21 -45 -7
-26 -6 -31 8 -32 15 0 15 -1 -1 -8 -14 -5 -5 -13 42 -35 33 -16 58 -32 56 -36
-4 -7 6 -16 60 -58 23 -18 30 -32 30 -58 0 -23 -4 -33 -12 -29 -8 2 -13 -3
-13 -13 0 -9 -13 -23 -29 -30 -41 -18 -72 -47 -61 -58 12 -13 16 -56 7 -71 -5
-7 -16 -13 -25 -13 -15 0 -15 2 -2 10 11 7 7 10 -17 10 -17 0 -34 6 -36 13 -4
7 -6 8 -6 1 -1 -16 31 -35 114 -68 39 -15 79 -32 90 -36 11 -5 45 -16 75 -26
59 -18 109 -46 93 -51 -6 -2 -41 7 -79 21 -38 13 -96 29 -129 36 -58 11 -114
25 -145 37 -8 3 -26 5 -39 4 -13 -2 -21 2 -17 7 7 11 -31 48 -40 39 -4 -4 1
-9 10 -13 32 -12 17 -26 -21 -18 -35 7 -79 10 -203 13 -29 1 -40 4 -32 10 8 5
-6 8 -37 7 -46 -1 -50 -3 -44 -21 3 -11 7 -38 8 -60 l2 -40 88 4 c63 2 86 0
81 -8 -4 -6 -2 -11 3 -11 6 0 11 5 11 11 0 5 5 7 10 4 6 -4 8 -11 5 -16 -4 -5
-1 -9 5 -9 6 0 15 -12 20 -26 6 -14 14 -22 20 -19 5 3 10 1 10 -4 0 -6 7 -11
15 -11 8 0 15 -6 15 -14 0 -22 31 -28 46 -9 12 17 13 17 10 -1 -1 -10 -9 -24
-17 -30 -29 -22 -71 -98 -66 -118 12 -44 -33 -71 -85 -50 -33 13 -134 173
-125 196 3 8 -1 20 -9 26 -11 10 -14 9 -14 -4 0 -25 54 -139 73 -155 26 -21
22 -43 -5 -32 -13 5 -48 17 -78 26 -30 9 -58 22 -61 27 -4 6 -15 3 -27 -8 -13
-11 -18 -22 -13 -28 12 -15 -5 -55 -25 -63 -13 -5 -13 -7 -2 -14 9 -6 2 -9
-19 -9 -18 0 -33 5 -33 11 0 5 -5 7 -11 3 -8 -4 -3 -12 12 -20 24 -13 24 -13
2 -14 -26 0 -40 -17 -17 -22 14 -3 13 -7 -6 -30 -25 -33 -36 -34 -62 -11 -19
17 -19 16 -13 -10 7 -25 5 -27 -26 -27 -18 0 -40 7 -50 16 -16 15 -17 14 -12
-6 3 -13 19 -30 34 -39 31 -17 32 -29 6 -45 -11 -7 -21 -6 -34 6 -10 8 -23 13
-30 11 -7 -2 -22 1 -35 8 -22 12 -22 12 -3 20 13 5 15 8 5 8 -8 0 -22 -4 -30
-9 -10 -6 -22 -4 -37 5 -16 11 -23 12 -27 2 -4 -6 -4 0 -1 15 3 15 1 30 -5 33
-6 4 -13 -8 -17 -25 -4 -25 -10 -31 -24 -27 -12 3 -19 0 -19 -9 0 -8 4 -14 9
-14 5 0 14 -13 21 -30 13 -32 30 -31 30 1 0 23 15 25 24 3 12 -32 1 -174 -14
-174 -4 0 -11 10 -15 23 -4 14 -8 17 -12 9 -8 -21 -29 17 -37 68 -4 25 -13 56
-20 69 -13 23 -13 23 -19 -16 -8 -50 -31 -82 -48 -66 -14 14 -4 76 16 97 8 8
15 30 16 48 0 18 3 27 6 21 2 -7 8 -13 13 -13 10 0 -11 62 -25 72 -14 11 -27
10 -21 -1 3 -5 8 -25 10 -45 4 -27 1 -36 -10 -36 -8 0 -17 6 -20 13 -2 7 -19
13 -37 13 -42 0 -147 72 -181 125 -30 45 -32 56 -11 61 13 2 12 5 -4 15 -18
11 -19 10 -14 -5 4 -11 3 -14 -4 -7 -10 10 -45 106 -40 110 9 8 97 15 97 8 0
-5 -16 -17 -35 -27 -19 -11 -35 -26 -35 -34 0 -11 3 -12 14 -3 8 6 18 11 22 9
5 -1 25 6 44 16 31 17 33 20 15 26 -18 7 -18 8 7 15 15 4 29 14 32 23 3 10 4
6 3 -8 -3 -20 1 -25 20 -25 18 0 20 2 10 10 -12 9 -12 12 -1 23 7 6 19 12 26
12 9 0 9 3 -2 10 -23 15 -151 1 -187 -20 -18 -10 -34 -16 -37 -12 -2 4 -7 35
-11 70 -7 60 -6 65 20 92 16 16 33 26 39 22 16 -10 36 -11 36 -3 0 4 -14 17
-31 30 -19 14 -28 28 -25 37 3 8 2 13 -3 9 -5 -3 -22 2 -38 10 -15 8 -45 22
-67 31 -38 17 -38 18 -17 33 21 16 20 17 -37 91 -32 42 -61 83 -65 93 -7 18
-27 24 -27 7 0 -6 15 -32 33 -58 18 -26 43 -64 56 -84 l23 -38 -34 7 c-18 3
-57 19 -87 35 -81 42 -88 17 -12 -44 12 -11 38 -18 61 -18 21 0 41 -4 44 -9 8
-13 -56 -21 -169 -21 -113 -1 -297 -21 -395 -43 -36 -8 -99 -20 -140 -27 -41
-6 -97 -18 -124 -26 -59 -17 -100 -19 -75 -4 40 23 267 73 392 86 26 2 59 9
73 14 14 6 41 10 60 10 22 0 34 5 34 14 0 8 9 12 23 11 15 -2 16 -1 3 2 -16 4
-17 7 -5 14 9 6 2 7 -21 3 -23 -4 -31 -3 -22 4 11 7 6 14 -20 29 -45 28 -107
39 -210 38 -49 0 -88 2 -88 6 0 13 24 27 39 22 10 -3 9 0 -4 8 -17 11 -7 16
85 42 58 16 118 29 133 29 16 -1 25 3 21 9 -10 17 32 53 76 64 3 0 14 6 25 12
11 6 35 14 52 18 49 10 50 25 3 25 -33 0 -41 3 -36 15 3 8 1 15 -5 15 -11 0
-69 54 -69 65 0 12 -64 68 -67 59 -2 -6 -18 -8 -36 -6 -23 3 -39 14 -58 41
-31 44 -122 92 -269 141 -52 18 -109 39 -127 46 -17 8 -36 14 -42 14 -6 0 -11
4 -11 10 0 5 21 6 53 3 28 -4 59 -7 67 -7 154 1 230 6 225 14 -3 6 -18 7 -32
4 -18 -5 -24 -3 -19 4 6 11 -27 68 -48 83 -4 4 -2 9 5 12 10 4 9 6 -3 6 -10 1
-19 13 -23 32 -4 17 -14 33 -23 37 -10 3 -33 22 -53 41 -54 55 -110 95 -149
107 -29 10 -31 12 -11 13 l24 1 -24 18 c-20 16 -48 30 -69 37 -3 1 -21 9 -40
17 -19 9 -60 26 -90 37 l-55 21 78 -3 77 -4 -33 23 c-19 12 -58 30 -88 39
-119 37 -235 96 -159 81 19 -4 58 -9 85 -12 l50 -5 -30 25 c-16 14 -49 42 -73
63 -23 21 -55 43 -69 49 -31 14 -42 58 -11 48 13 -4 16 -1 12 10 -3 9 -9 16
-13 16 -4 0 -26 23 -49 51 -38 46 -154 139 -174 139 -4 0 -31 15 -60 33 -95
60 -217 117 -262 123 -43 6 -46 5 -56 -22z m161 -44 c10 -6 19 -15 19 -20 0
-17 -25 -11 -43 10 -18 22 -7 26 24 10z m4499 -514 c0 -3 -4 -8 -10 -11 -5 -3
-10 -1 -10 4 0 6 5 11 10 11 6 0 10 -2 10 -4z m-3605 -426 c3 -5 31 -19 63
-30 31 -12 82 -36 112 -55 l54 -33 -41 2 c-22 1 -51 9 -64 17 -33 21 -116 59
-129 59 -6 0 -8 5 -5 10 3 6 -1 13 -9 16 -9 3 -16 10 -16 15 0 12 27 12 35 -1z
m2905 -182 c0 -6 -11 -8 -25 -6 -19 4 -23 2 -15 -7 7 -9 -1 -10 -36 -5 -36 6
-44 4 -40 -7 6 -15 -16 -27 -36 -21 -19 7 26 41 69 54 40 12 83 7 83 -8z
m-2749 -118 c11 0 18 -4 15 -8 -7 -12 -66 -2 -66 10 0 6 7 7 16 4 9 -3 25 -6
35 -6z m349 -175 c0 -8 -4 -15 -10 -15 -5 0 -10 7 -10 15 0 8 5 15 10 15 6 0
10 -7 10 -15z m2175 -255 c3 -5 1 -10 -4 -10 -6 0 -11 5 -11 10 0 6 2 10 4 10
3 0 8 -4 11 -10z m-2105 -110 c0 -5 -9 -10 -21 -10 -11 0 -17 5 -14 10 3 6 13
10 21 10 8 0 14 -4 14 -10z m2005 -106 c20 -15 20 -16 -4 -12 -14 2 -26 9 -29
16 -5 16 9 15 33 -4z m-1519 -45 c20 -16 18 -26 -8 -40 -19 -10 -25 -8 -49 19
-23 26 -37 32 -81 35 -29 2 -13 3 35 1 49 -1 95 -8 103 -15z m1057 14 c-7 -2
-21 -2 -30 0 -10 3 -4 5 12 5 17 0 24 -2 18 -5z m-1350 -10 c-13 -2 -33 -2
-45 0 -13 2 -3 4 22 4 25 0 35 -2 23 -4z m1437 -3 c20 -6 21 -8 5 -8 -11 0
-29 3 -40 8 -25 11 1 11 35 0z m-1980 -44 c0 -2 -7 -6 -15 -10 -8 -3 -15 -1
-15 4 0 6 7 10 15 10 8 0 15 -2 15 -4z m586 -3 c-7 -7 -77 -5 -85 3 -2 2 17 4
44 4 27 0 45 -3 41 -7z m2314 3 c0 -2 -9 -6 -20 -9 -11 -3 -18 -1 -14 4 5 9
34 13 34 5z m-2382 -24 c1 -5 11 -26 22 -47 11 -21 17 -42 14 -47 -3 -5 0 -7
6 -6 7 2 19 -13 26 -32 l14 -35 -5 33 c-7 50 1 38 24 -35 12 -36 28 -74 37
-84 11 -12 12 -19 4 -24 -14 -8 -26 7 -81 105 -52 92 -93 144 -133 170 l-31
20 50 -4 c27 -2 51 -9 53 -14z m1671 -36 c1 12 37 12 48 -1 5 -4 1 -5 -7 -1
-8 4 -7 1 3 -8 11 -8 26 -12 34 -9 13 5 13 2 4 -15 -6 -11 -16 -24 -21 -27 -6
-4 -8 -10 -5 -15 3 -4 -3 -7 -12 -6 -27 4 -82 91 -75 118 5 20 7 19 18 -12 7
-19 13 -30 13 -24z m-2620 15 c29 -27 42 -61 22 -61 -8 0 -46 46 -65 78 -13
22 11 13 43 -17z m1182 -6 c1 -17 -18 -17 -25 0 -4 11 -1 15 10 13 8 -2 15 -7
15 -13z m2069 11 c0 -2 -8 -10 -17 -17 -16 -13 -17 -12 -4 4 13 16 21 21 21
13z m-2577 -18 c-2 -5 6 -9 19 -9 20 -1 21 -2 3 -6 -11 -3 -23 -9 -26 -14 -3
-6 -13 -7 -23 -3 -14 5 -15 9 -4 15 10 7 10 9 1 9 -7 0 -13 3 -13 8 0 4 11 7
24 7 13 0 22 -3 19 -7z m127 -19 c0 -5 -7 -9 -15 -9 -15 0 -20 12 -9 23 8 8
24 -1 24 -14z m1740 6 c0 -9 -6 -12 -16 -8 -13 5 -13 7 -2 14 17 11 18 11 18
-6z m-1942 -21 c2 -29 -13 -25 -21 6 -3 12 0 20 7 20 6 0 13 -11 14 -26z m421
-7 c0 -21 -1 -21 -9 -2 -12 28 -12 37 0 30 6 -3 10 -16 9 -28z m-1192 -9 c-3
-7 -5 -2 -5 12 0 14 2 19 5 13 2 -7 2 -19 0 -25z m1083 6 c0 -8 -7 -14 -15
-14 -17 0 -18 2 -9 24 7 18 24 12 24 -10z m331 0 c12 -14 7 -22 -36 -60 -57
-51 -73 -56 -49 -15 9 16 23 27 30 24 6 -2 18 5 26 16 8 12 18 18 23 13 5 -4
5 -2 1 5 -8 14 -36 6 -36 -10 0 -6 -3 -8 -6 -5 -7 8 14 48 25 48 5 0 15 -7 22
-16z m-974 -16 c-3 -8 -6 -5 -6 6 -1 11 2 17 5 13 3 -3 4 -12 1 -19z m2948 12
c-3 -5 -10 -10 -16 -10 -5 0 -9 5 -9 10 0 6 7 10 16 10 8 0 12 -4 9 -10z
m-327 -26 c0 -17 -4 -22 -11 -15 -5 5 -7 17 -4 25 9 23 15 19 15 -10z m-2186
11 c3 -3 -3 -22 -13 -43 -11 -20 -19 -47 -19 -59 0 -13 -9 -32 -20 -43 -25
-25 -49 -27 -28 -2 14 15 68 127 68 139 0 3 -7 2 -16 -1 -8 -3 -12 -2 -9 4 7
11 28 13 37 5z m-285 -27 c-3 -8 -6 -5 -6 6 -1 11 2 17 5 13 3 -3 4 -12 1 -19z
m190 -10 c-3 -7 -5 -2 -5 12 0 14 2 19 5 13 2 -7 2 -19 0 -25z m2136 4 c-3
-12 -9 -22 -14 -22 -12 0 -11 7 2 32 13 25 20 19 12 -10z m-1283 8 c0 -5 -4
-10 -10 -10 -5 0 -10 5 -10 10 0 6 5 10 10 10 6 0 10 -4 10 -10z m1480 -16 c0
-16 -2 -16 -24 -8 -13 5 -14 9 -5 20 13 16 29 9 29 -12z m-2470 -5 c-7 -11
-14 -19 -16 -16 -7 7 7 37 17 37 6 0 5 -9 -1 -21z m2317 -16 c-3 -10 -5 -4 -5
12 0 17 2 24 5 18 2 -7 2 -21 0 -30z m431 18 c-6 -10 -30 -31 -52 -45 -23 -15
-40 -30 -39 -34 4 -13 -71 -161 -79 -156 -4 3 -8 -1 -8 -9 0 -8 -9 -25 -20
-38 l-20 -24 6 30 c4 17 13 37 20 46 8 8 14 21 14 28 0 7 5 9 11 5 7 -4 9 0 6
12 -3 11 1 33 8 49 12 25 14 26 9 5 -4 -14 -9 -31 -12 -39 -3 -9 -1 -12 6 -7
7 4 12 13 12 19 0 7 9 30 20 52 25 49 25 50 -5 53 -14 1 -25 -4 -25 -10 0 -9
-3 -9 -11 -1 -20 20 1 33 51 33 42 0 52 4 66 25 20 31 61 37 42 6z m-3431 -13
c-3 -8 -6 -5 -6 6 -1 11 2 17 5 13 3 -3 4 -12 1 -19z m403 -2 c0 -9 -30 -14
-35 -6 -4 6 3 10 14 10 12 0 21 -2 21 -4z m124 -12 c3 -8 2 -12 -4 -9 -6 3
-10 10 -10 16 0 14 7 11 14 -7z m-368 -37 c1 -32 -12 -27 -18 8 -4 16 -1 24 6
22 6 -2 11 -16 12 -30z m3049 23 c3 -6 -1 -7 -9 -4 -18 7 -21 14 -7 14 6 0 13
-4 16 -10z m-1872 -15 c-3 -9 -8 -14 -10 -11 -3 3 -2 9 2 15 9 16 15 13 8 -4z
m-769 -37 l27 -43 -31 35 c-27 30 -37 50 -26 50 2 0 15 -19 30 -42z m2333 36
c-3 -3 -12 -4 -19 -1 -8 3 -5 6 6 6 11 1 17 -2 13 -5z m218 -4 c3 -5 1 -10 -4
-10 -6 0 -11 5 -11 10 0 6 2 10 4 10 3 0 8 -4 11 -10z m-234 -34 c-4 -6 -11
-23 -15 -38 -7 -30 -54 -58 -95 -58 -23 1 -24 2 -8 11 9 5 21 8 26 4 5 -3 18
8 27 25 10 16 24 30 31 30 7 0 13 5 13 10 0 6 -6 10 -12 10 -10 0 -10 2 0 8
19 13 43 11 33 -2z m234 4 c3 -5 -1 -10 -9 -10 -9 0 -16 5 -16 10 0 6 4 10 9
10 6 0 13 -4 16 -10z m396 -7 c13 -16 12 -17 -3 -4 -10 7 -18 15 -18 17 0 8 8
3 21 -13z m-3421 -13 c0 -5 -4 -10 -10 -10 -5 0 -10 5 -10 10 0 6 5 10 10 10
6 0 10 -4 10 -10z m3027 -14 c0 -8 -6 -12 -14 -9 -7 3 -13 9 -13 14 0 5 6 9
13 9 8 0 14 -6 14 -14z m-2690 -18 c-3 -8 -6 -5 -6 6 -1 11 2 17 5 13 3 -3 4
-12 1 -19z m503 12 c0 -5 -7 -10 -15 -10 -8 0 -15 5 -15 10 0 6 7 10 15 10 8
0 15 -4 15 -10z m2006 -16 c-3 -9 4 -25 19 -40 29 -29 30 -34 11 -34 -7 0 -16
10 -20 23 -5 19 -8 20 -17 7 -9 -13 -10 -12 -5 3 3 11 2 16 -4 12 -6 -3 -10
-13 -10 -21 0 -8 -7 -14 -16 -14 -12 0 -9 9 13 40 30 42 39 50 29 24z m184
-15 c0 -4 -7 -6 -15 -3 -8 4 -15 10 -15 15 0 4 7 6 15 3 8 -4 15 -10 15 -15z
m-2750 -4 c0 -8 -4 -15 -10 -15 -5 0 -10 7 -10 15 0 8 5 15 10 15 6 0 10 -7
10 -15z m1100 0 c0 6 16 11 35 12 25 2 33 -1 29 -10 -7 -18 -77 -14 -82 4 -3
10 -1 10 7 -1 6 -8 11 -10 11 -5z m-213 -1 c-12 -12 -117 -17 -117 -5 0 7 23
11 62 11 34 0 59 -3 55 -6z m40 0 c-3 -3 -12 -4 -19 -1 -8 3 -5 6 6 6 11 1 17
-2 13 -5z m56 -1 c-7 -2 -21 -2 -30 0 -10 3 -4 5 12 5 17 0 24 -2 18 -5z
m1182 -19 c55 -9 115 -17 133 -16 17 0 32 -4 32 -8 0 -5 18 -11 40 -14 124
-18 125 -19 105 -26 -15 -5 -7 -10 35 -20 30 -7 50 -15 43 -17 -6 -2 -39 3
-73 12 -34 9 -105 18 -158 20 -53 2 -135 11 -182 19 -47 9 -90 16 -97 16 -14
0 -27 36 -18 50 4 6 14 9 23 6 10 -3 62 -12 117 -22z m884 -15 c-16 -31 -35
-49 -43 -42 -10 10 -7 25 4 18 6 -3 10 1 10 10 0 28 21 58 32 47 7 -7 6 -18
-3 -33z m-2443 24 c-4 -4 -31 -10 -61 -13 -30 -3 -52 -3 -48 1 7 7 40 13 97
17 11 1 16 -1 12 -5z m87 0 c-7 -2 -21 -2 -30 0 -10 3 -4 5 12 5 17 0 24 -2
18 -5z m-889 -19 c3 -8 2 -12 -4 -9 -6 3 -10 10 -10 16 0 14 7 11 14 -7z
m3339 2 c4 -10 1 -13 -8 -9 -8 3 -12 9 -9 14 7 12 11 11 17 -5z m-166 -25 c-6
-17 -14 -28 -19 -25 -4 3 -1 16 8 30 21 32 25 30 11 -5z m-3390 -13 c-3 -8 -6
-5 -6 6 -1 11 2 17 5 13 3 -3 4 -12 1 -19z m3329 -20 c-9 -20 -13 -37 -11 -40
2 -2 -5 -9 -15 -16 -29 -18 -26 2 8 53 32 51 38 51 18 3z m448 8 c-9 -15 -19
-25 -21 -22 -5 5 30 56 35 51 2 -2 -4 -15 -14 -29z m-2304 -1 c7 -8 11 -15 9
-15 -135 -7 -208 -8 -184 -1 23 7 7 9 -65 12 l-95 3 125 6 c69 3 141 7 161 8
22 1 41 -4 49 -13z m180 -23 c0 -8 -3 -12 -7 -9 -3 4 -11 3 -18 -3 -13 -11
-55 -2 -55 12 0 5 4 7 9 4 4 -3 16 1 27 8 22 16 44 10 44 -12z m923 2 c119
-16 171 -33 155 -49 -4 -4 -84 1 -178 12 l-170 18 16 23 c9 14 22 21 32 18 10
-3 75 -13 145 -22z m1317 16 c0 -5 -4 -10 -10 -10 -5 0 -10 5 -10 10 0 6 5 10
10 10 6 0 10 -4 10 -10z m-2797 -7 c-18 -2 -33 -7 -33 -11 0 -4 -50 -8 -111
-8 -60 -1 -108 0 -105 3 7 8 144 20 216 20 36 0 50 -2 33 -4z m2451 -8 c3 -8
1 -15 -4 -15 -6 0 -10 7 -10 15 0 8 2 15 4 15 2 0 6 -7 10 -15z m87 -39 c-7
-8 -8 -16 -4 -18 4 -3 2 -3 -4 -2 -7 2 -16 -8 -19 -21 -6 -25 -15 -31 -27 -19
-4 4 7 24 24 46 17 21 34 37 37 34 3 -3 0 -12 -7 -20z m-3534 -18 c-3 -8 -6
-5 -6 6 -1 11 2 17 5 13 3 -3 4 -12 1 -19z m2711 5 c-10 -2 -28 -2 -40 0 -13
2 -5 4 17 4 22 1 32 -1 23 -4z m79 -19 c-3 -3 -12 -4 -19 -1 -8 3 -5 6 6 6 11
1 17 -2 13 -5z m-2442 -14 c-3 -5 -21 -10 -38 -9 -31 1 -31 1 -7 9 36 11 52
11 45 0z m2540 -10 c19 -8 19 -8 1 -15 -10 -5 -21 -3 -25 2 -3 6 -19 15 -36
21 l-30 12 35 -6 c19 -4 44 -10 55 -14z m-2638 -12 c-15 -5 -25 -13 -22 -18 9
-14 -26 -20 -48 -8 -21 11 -20 12 18 24 50 16 93 17 52 2z m3497 -47 c-4 -3
-9 0 -12 8 -4 11 -6 11 -13 0 -7 -12 -9 -11 -9 1 0 13 -1 13 -11 0 -9 -13 -10
-13 -6 0 2 8 10 14 16 13 6 -2 11 3 11 10 0 7 7 4 15 -7 8 -11 12 -22 9 -25z
m-3646 7 c-5 -16 -48 -24 -48 -9 0 8 17 16 43 20 5 0 7 -5 5 -11z m3383 -2 c5
3 9 0 9 -6 0 -15 -23 -7 -26 8 -1 7 0 8 3 2 2 -5 9 -8 14 -4z m-3441 -16 c0
-5 -5 -10 -11 -10 -5 0 -7 5 -4 10 3 6 8 10 11 10 2 0 4 -4 4 -10z m-3 -19
c14 5 28 8 30 5 2 -2 -9 -8 -26 -14 -30 -11 -42 -7 -40 12 0 7 3 6 5 -1 4 -9
13 -9 31 -2z m-66 -42 c-29 -24 -40 -24 -38 0 1 12 7 17 19 13 12 -3 18 1 18
14 0 14 2 16 13 5 10 -10 7 -16 -12 -32z m1996 -11 c-2 -13 -4 -5 -4 17 -1 22
1 32 4 23 2 -10 2 -28 0 -40z m1742 -82 c0 -6 -3 -6 -6 2 -2 6 -10 9 -16 5 -7
-3 -9 -3 -5 2 4 4 2 15 -4 24 -8 10 -4 9 10 -3 12 -11 22 -24 21 -30z m-34
-36 c3 -6 -1 -7 -9 -4 -18 7 -21 14 -7 14 6 0 13 -4 16 -10z m66 -37 c13 -15
12 -15 -8 -4 -24 12 -29 21 -14 21 5 0 15 -7 22 -17z m-2708 -76 c29 -20 26
-66 -5 -89 -35 -27 -73 -18 -98 24 -19 32 -19 32 2 55 24 26 74 31 101 10z
m1631 -29 c32 -45 14 -88 -36 -88 -34 0 -81 42 -76 67 4 20 43 43 75 43 12 0
29 -10 37 -22z m-907 -180 c-3 -8 -6 -5 -6 6 -1 11 2 17 5 13 3 -3 4 -12 1
-19z m70 -30 c20 -19 25 -20 33 -8 8 13 11 12 23 -4 10 -13 22 -17 40 -14 16
3 31 0 38 -8 6 -8 22 -14 34 -14 39 0 166 -48 187 -69 10 -12 23 -21 28 -21 6
0 35 -25 65 -55 72 -71 80 -74 150 -68 69 6 224 -17 338 -49 l79 -22 61 22
c34 12 72 22 84 22 12 0 28 6 35 13 7 8 22 13 33 11 62 -9 85 -16 79 -25 -3
-6 4 -7 20 -3 20 5 26 2 26 -11 0 -9 9 -19 20 -22 11 -3 20 -9 20 -14 0 -5 6
-9 14 -9 11 0 83 -51 166 -117 2 -2 -2 -8 -9 -13 -10 -6 -12 -20 -8 -55 4 -29
3 -44 -3 -40 -6 3 -10 1 -10 -5 0 -6 -4 -8 -10 -5 -5 3 -10 15 -10 26 0 25
-16 25 -23 0 -4 -16 -12 -19 -36 -16 -17 2 -40 9 -51 15 -16 9 -20 8 -20 -5 0
-11 -11 -15 -40 -15 -28 0 -38 -4 -34 -13 6 -17 -57 -22 -67 -5 -7 10 -12 9
-25 -4 -13 -12 -22 -14 -38 -6 -15 6 -41 5 -86 -6 -45 -10 -84 -12 -127 -7
-35 4 -63 4 -63 -1 0 -4 -14 -8 -31 -8 -39 0 -120 -20 -115 -29 3 -4 -5 -8
-16 -8 -11 -1 -27 -11 -35 -22 -8 -12 -21 -21 -29 -21 -8 0 -14 -7 -14 -15 0
-8 4 -15 10 -15 5 0 28 -17 51 -37 34 -31 38 -38 24 -46 -11 -5 -22 -4 -32 5
-12 9 -15 9 -9 1 12 -21 -98 -17 -120 4 -16 16 -16 16 -10 -4 5 -16 2 -23 -11
-27 -16 -4 -132 -9 -173 -6 -8 0 -31 -2 -51 -5 -26 -5 -41 -2 -53 10 -9 9 -21
13 -27 10 -18 -12 -95 16 -129 46 l-31 29 32 18 c48 25 78 60 90 104 14 53 -2
97 -51 142 -70 63 -94 71 -210 71 -111 0 -160 -15 -218 -69 -82 -74 -62 -204
34 -222 19 -3 36 -10 39 -14 3 -5 -3 -6 -14 -3 -10 3 -22 0 -25 -6 -5 -7 0 -9
11 -6 10 3 8 0 -4 -6 -13 -7 -23 -16 -23 -21 0 -5 -12 -9 -27 -7 -16 1 -37 -2
-48 -7 -30 -12 -183 -10 -240 5 -27 7 -61 14 -75 15 -38 4 -42 5 -36 14 2 4
-12 6 -32 5 -32 -3 -34 -2 -14 7 12 5 22 12 22 15 0 4 -4 4 -9 1 -15 -9 -142
-16 -137 -7 3 4 31 16 63 25 108 33 111 36 35 29 -72 -6 -73 -5 -101 26 -15
17 -32 31 -38 31 -6 0 -21 8 -34 18 -25 19 -28 20 -114 9 -44 -5 -46 -4 -22 5
57 24 15 48 -85 48 -29 0 -38 4 -38 17 0 13 -3 14 -12 5 -7 -7 -43 -12 -90
-12 -63 0 -79 -3 -87 -17 -6 -10 -11 -13 -11 -6 0 9 -12 8 -45 -4 -73 -24
-121 0 -80 41 19 19 19 26 -1 40 -12 9 -14 21 -9 47 7 37 52 99 72 99 7 0 15
4 18 10 4 6 -1 7 -11 3 -12 -4 -15 -2 -12 8 2 8 49 29 103 47 l99 33 95 -22
c81 -19 108 -21 205 -14 61 4 173 8 249 9 119 2 140 5 160 22 12 11 58 37 102
59 86 42 86 43 140 93 21 20 42 31 50 28 9 -3 15 1 15 9 0 10 10 15 30 15 19
0 30 5 30 14 0 8 7 16 15 20 10 4 15 -1 16 -17 1 -21 1 -21 9 3 l8 25 2 -25
c2 -21 3 -22 8 -5 l5 20 8 -20 c7 -19 8 -19 8 2 1 20 12 30 35 32 6 1 20 -9
33 -21z m-1024 -163 c23 -25 60 -52 82 -61 l40 -14 -74 3 c-47 2 -76 7 -79 15
-2 7 -9 12 -15 12 -7 1 -27 22 -46 48 -19 26 -25 39 -14 30 24 -22 40 -24 23
-3 -7 8 -9 15 -4 15 5 0 4 4 -3 8 -8 5 -8 21 0 62 l11 55 18 -63 c13 -44 31
-75 61 -107z m1765 -32 c8 -7 18 -11 23 -8 5 4 9 2 9 -3 0 -5 33 -17 73 -27
72 -18 72 -18 120 5 26 12 47 27 47 32 0 6 7 7 16 4 9 -4 22 -2 29 4 10 8 15
8 21 -1 5 -8 3 -9 -6 -4 -9 5 -11 4 -6 -3 4 -7 18 -12 32 -12 13 0 24 -2 24
-4 0 -20 -19 -39 -55 -55 -48 -21 -103 -18 -266 15 -46 9 -108 14 -145 12 -35
-2 -64 0 -64 4 0 4 6 8 13 8 8 0 7 4 -3 10 -12 7 -8 10 15 11 23 0 26 2 12 8
-16 6 -16 9 -5 18 30 24 82 18 116 -14z m-1379 13 c0 -5 4 -12 10 -16 7 -4 2
-15 -13 -29 -23 -22 -28 -23 -89 -12 -35 6 -78 8 -96 5 -24 -5 -31 -3 -29 7 3
16 31 30 71 35 16 2 36 8 45 13 21 12 102 9 101 -3z m1811 -56 c0 -5 -2 -10
-4 -10 -3 0 -8 5 -11 10 -3 6 -1 10 4 10 6 0 11 -4 11 -10z m-50 -36 c-56 -17
-64 -17 -25 1 17 8 39 14 50 14 11 0 0 -7 -25 -15z m-1000 -249 c16 -19 5 -35
-25 -35 -21 0 -35 17 -35 41 0 15 46 10 60 -6z m-1633 -57 c-3 -8 -6 -5 -6 6
-1 11 2 17 5 13 3 -3 4 -12 1 -19z m1701 -1386 c9 -16 34 -43 55 -61 20 -18
37 -38 37 -45 0 -6 -5 -4 -11 4 -9 13 -10 13 -6 0 2 -8 10 -15 18 -16 18 -1
174 -152 165 -161 -3 -4 -13 2 -21 13 -13 18 -14 18 -8 -6 3 -14 11 -29 17
-33 7 -6 6 -7 -3 -5 -8 2 -19 12 -25 22 -6 10 -57 65 -112 124 -56 58 -100
110 -98 116 2 6 -3 20 -11 31 -14 18 -16 18 -32 2 -16 -15 -15 -18 12 -41 l29
-25 -36 -39 c-20 -22 -39 -38 -41 -35 -3 2 -8 0 -12 -6 -3 -6 -1 -11 5 -11 6
0 3 -11 -6 -25 -28 -43 -10 -37 30 10 20 25 31 45 24 45 -8 0 -6 5 5 11 15 9
25 2 58 -35 23 -25 44 -44 48 -42 4 3 18 -12 31 -32 14 -20 31 -43 37 -50 7
-7 13 -20 13 -29 0 -11 6 -14 26 -9 22 6 24 5 12 -8 -7 -8 -15 -12 -18 -10 -2
3 -9 -14 -15 -38 -7 -29 -16 -44 -29 -46 -18 -4 -18 -2 2 23 26 33 27 48 6 69
-8 9 -13 16 -10 16 6 0 -47 55 -54 55 -9 0 -55 35 -46 35 5 0 3 7 -4 15 -13
15 -55 22 -46 7 3 -5 -5 -8 -17 -7 -29 3 -48 -5 -42 -16 3 -4 -3 -6 -14 -4
-11 2 -27 -5 -36 -16 -10 -10 -22 -16 -28 -12 -6 3 -7 1 -3 -6 5 -7 -1 -20
-14 -31 -12 -10 -22 -22 -22 -27 -1 -18 -10 -33 -17 -28 -4 2 -8 -9 -8 -26 0
-20 4 -28 13 -25 8 3 16 1 19 -5 4 -5 11 -6 17 -3 7 4 8 2 4 -4 -4 -7 -2 -12
5 -12 7 0 9 -3 6 -6 -4 -4 -14 -1 -22 6 -9 8 -27 15 -39 16 -18 2 -2 -19 70
-88 51 -50 101 -96 111 -104 17 -13 17 -13 -1 -14 -11 0 -58 41 -115 100 -53
55 -101 100 -107 100 -5 0 -15 -5 -22 -12 -9 -9 -12 -8 -12 6 0 9 -5 14 -10
11 -6 -4 -8 -11 -5 -16 4 -5 1 -9 -5 -9 -7 0 -9 -8 -5 -20 4 -13 1 -22 -9 -26
-8 -3 -12 -13 -10 -22 5 -14 2 -13 -10 2 -14 18 -14 21 2 40 9 10 11 16 5 12
-21 -12 -53 -15 -53 -5 0 5 4 9 10 9 5 0 7 6 4 14 -3 8 0 25 7 38 7 13 14 28
14 33 6 56 60 162 88 171 11 4 68 55 125 115 57 60 108 109 113 109 5 0 17
-13 27 -28z m-601 -144 c37 -17 160 -96 168 -108 10 -16 -7 -12 -30 8 -11 9
-9 6 5 -8 14 -14 36 -33 50 -43 16 -11 21 -20 13 -23 -9 -4 -9 -13 -2 -30 18
-49 8 -45 -59 22 -37 38 -88 87 -112 109 -40 37 -78 85 -66 85 3 0 18 -6 33
-12z m1043 -88 c-11 -11 -19 -24 -16 -28 2 -4 -2 -13 -10 -19 -17 -16 -27 0
-19 30 9 30 59 72 63 53 2 -8 -6 -24 -18 -36z m-1080 -20 c8 -5 11 -10 5 -10
-5 0 -17 5 -25 10 -8 5 -10 10 -5 10 6 0 17 -5 25 -10z m60 -31 c0 18 15 13
61 -23 23 -19 48 -32 54 -29 5 4 7 3 3 -2 -4 -4 -3 -16 3 -27 6 -11 8 -22 6
-25 -7 -6 -78 40 -97 62 -14 17 -13 18 10 6 23 -11 23 -11 7 3 -11 8 -25 12
-32 10 -7 -3 -19 1 -26 9 -8 7 -17 14 -21 15 -5 1 -8 4 -8 7 0 26 3 27 20 6
11 -13 20 -18 20 -12z m210 -21 c0 -5 -13 1 -30 13 -16 12 -27 26 -24 31 6 10
54 -29 54 -44z m411 11 c22 -31 25 -44 33 -147 3 -43 1 -50 -10 -41 -16 13
-18 5 -5 -20 6 -11 6 -23 0 -32 -9 -12 -10 -12 -8 1 2 24 -12 58 -27 64 -17 7
-18 -6 -1 -23 8 -10 8 -12 0 -7 -6 3 -15 2 -18 -4 -9 -14 -35 6 -35 27 0 8
-11 24 -23 36 -13 12 -22 29 -19 37 3 8 1 12 -2 8 -12 -10 -46 25 -46 47 0 41
56 85 107 85 24 0 37 -7 54 -31z m-864 5 c-3 -3 -12 -4 -19 -1 -8 3 -5 6 6 6
11 1 17 -2 13 -5z m-297 -14 c0 -5 -10 -10 -22 -10 -19 0 -20 2 -8 10 19 13
30 13 30 0z m134 -9 c6 -9 -35 -24 -43 -15 -6 5 18 24 31 24 4 0 9 -4 12 -9z
m1254 -47 c-3 -14 -5 -12 -10 9 -3 19 -2 25 4 19 6 -6 8 -18 6 -28z m-1218 12
c0 -7 -9 -16 -20 -19 -19 -5 -28 12 -13 26 11 12 33 7 33 -7z m371 2 c40 -14
102 -49 96 -54 -2 -3 -31 9 -63 24 -32 16 -66 32 -74 35 -30 11 8 7 41 -5z
m876 -10 c-3 -8 -6 -5 -6 6 -1 11 2 17 5 13 3 -3 4 -12 1 -19z m-1153 -4 c9
-24 6 -42 -4 -19 -7 17 -9 16 -10 -10 -1 -16 -5 -39 -10 -50 -8 -18 -9 -17 -9
8 -1 16 -5 26 -11 22 -6 -3 -10 4 -10 17 0 18 2 20 9 9 8 -12 11 -9 16 12 8
30 20 35 29 11z m1087 -43 c1 -14 1 -29 0 -33 0 -5 4 -8 9 -8 6 0 10 -7 10
-15 0 -21 -20 -19 -21 3 -1 9 -1 20 0 25 0 4 -10 7 -23 7 -14 0 -27 4 -30 9
-4 5 4 7 16 4 21 -5 22 -4 6 8 -13 10 -15 18 -8 29 8 13 10 12 10 -3 0 -10 5
-15 10 -12 7 4 6 14 -1 28 -10 21 -10 21 5 3 9 -11 17 -31 17 -45z m-1346 19
c-3 -5 -12 -10 -18 -10 -7 0 -6 4 3 10 19 12 23 12 15 0z m188 -10 c-8 -29
-29 -44 -36 -26 -4 9 3 22 16 31 27 19 26 19 20 -5z m272 -40 c21 -22 37 -40
34 -40 -3 0 -23 18 -44 40 -21 22 -37 40 -34 40 3 0 23 -18 44 -40z m1059 8
c4 4 3 -5 -4 -19 -7 -16 -28 -32 -60 -44 -26 -10 -46 -24 -44 -30 6 -16 -42
-59 -59 -52 -9 3 -13 -2 -12 -15 1 -11 -9 -31 -22 -44 -13 -13 -23 -27 -23
-32 0 -5 -10 -13 -22 -16 -22 -6 -22 -7 -4 -21 10 -8 23 -12 29 -8 6 3 7 1 3
-6 -4 -6 5 -24 23 -41 16 -17 27 -30 24 -30 -3 0 1 -8 10 -18 30 -33 68 -132
74 -189 l5 -58 -51 103 c-34 70 -67 119 -100 152 -28 28 -46 50 -41 50 5 0 12
-4 15 -10 3 -5 14 -14 25 -20 15 -8 18 -6 16 8 -2 9 -8 17 -14 17 -6 0 -17 6
-24 14 -11 12 -10 13 2 7 8 -4 5 1 -7 12 -12 11 -19 22 -16 26 4 3 1 6 -5 6
-6 0 -14 -4 -17 -10 -8 -13 -25 -13 -25 1 0 5 6 7 13 3 8 -5 8 -2 -2 9 -7 9
-19 17 -25 16 -6 0 -5 -3 3 -6 11 -5 11 -7 0 -14 -11 -8 -11 -12 4 -23 17 -13
14 -14 -20 -9 -40 5 -124 -24 -139 -48 -5 -8 -1 -8 14 0 68 36 117 42 138 15
6 -8 15 -14 19 -14 4 0 25 -20 48 -44 43 -48 70 -109 61 -139 -4 -12 3 -27 20
-41 24 -24 25 -25 11 -82 -7 -33 -17 -68 -20 -79 -6 -17 -5 -17 5 -5 9 12 10
10 4 -10 -12 -46 -74 -149 -74 -125 0 4 -11 -4 -25 -19 -13 -14 -31 -26 -40
-26 -9 0 -15 -9 -15 -21 0 -18 2 -19 15 -9 12 10 15 10 15 -3 0 -8 -6 -18 -12
-20 -10 -4 -10 -6 0 -6 20 -1 126 108 150 155 12 21 21 33 22 26 0 -19 -49
-112 -60 -112 -6 0 -10 -6 -10 -13 0 -7 -23 -30 -51 -52 -77 -60 -93 -75 -83
-75 10 0 82 47 102 67 7 7 17 13 22 13 4 0 10 9 13 20 3 11 16 24 30 29 14 5
28 15 32 20 3 6 11 11 16 11 17 0 -48 -86 -90 -119 -48 -38 -108 -64 -128 -56
-9 3 -26 -5 -41 -20 -30 -30 -42 -31 -49 -5 -4 15 -11 19 -24 15 -14 -5 -17
-2 -13 9 5 12 2 15 -10 10 -12 -5 -15 -2 -10 10 4 12 2 15 -9 10 -8 -3 -18 0
-23 7 -5 8 -3 10 7 4 11 -6 12 -5 2 6 -25 26 -12 30 25 8 20 -13 44 -27 53
-33 12 -7 21 -5 33 7 19 19 20 27 3 27 -13 0 -47 34 -47 48 0 4 -14 13 -32 20
-26 10 -30 14 -19 24 10 11 15 10 25 -5 8 -9 20 -15 27 -13 8 3 34 7 59 10 25
2 53 7 62 11 23 9 31 35 13 41 -19 8 -19 24 0 24 8 0 15 7 15 15 0 8 -5 15
-11 15 -5 0 -7 5 -3 11 4 7 9 8 13 1 4 -7 12 -6 23 2 10 7 15 16 11 20 -4 4
-2 11 6 15 7 5 14 26 14 49 1 22 5 38 10 35 4 -2 7 14 7 36 0 49 -7 52 -21 11
-9 -24 -15 -29 -33 -24 -17 4 -24 -1 -32 -24 -11 -27 -15 -30 -57 -28 -58 2
-66 10 -37 41 23 24 23 25 5 45 -10 11 -22 20 -27 20 -20 0 -98 76 -98 96 0
22 50 80 67 76 7 -2 13 4 13 12 0 8 7 22 16 30 23 23 7 38 -18 18 -42 -34 -78
-77 -78 -94 0 -10 -4 -18 -9 -18 -4 0 -8 -26 -8 -57 0 -63 26 -130 55 -140 28
-10 52 -35 52 -55 0 -10 -5 -18 -11 -18 -5 0 -7 -5 -3 -12 4 -6 3 -8 -3 -5 -6
4 -16 0 -22 -7 -8 -10 -9 -16 -1 -21 5 -3 10 -11 10 -17 0 -6 -9 -3 -20 7 -15
14 -17 21 -9 32 9 10 8 13 -5 13 -9 0 -29 19 -46 42 -22 30 -30 53 -31 87 -1
38 -2 42 -9 21 -8 -25 -8 -24 -9 5 -1 17 3 45 9 64 l9 34 -34 -39 -34 -39 -1
28 c0 16 6 41 13 55 8 15 22 44 32 64 16 33 99 128 112 128 8 0 32 33 33 44 0
5 -7 3 -16 -4 -12 -11 -14 -11 -12 -1 5 20 -29 38 -48 26 -12 -8 -32 5 -94 64
-51 48 -77 78 -73 88 5 12 7 12 14 1 8 -12 13 -4 10 15 -1 5 6 7 16 5 10 -2
17 -11 15 -20 -1 -10 7 -19 20 -23 13 -4 32 -15 43 -24 19 -15 19 -15 5 4
l-15 20 24 -20 c13 -11 40 -35 59 -52 20 -18 40 -33 45 -33 5 0 3 -7 -4 -16
-13 -15 -11 -16 21 -10 19 4 61 9 92 13 36 3 55 9 51 16 -4 6 -1 7 8 1 22 -13
51 -16 44 -3 -4 6 -14 8 -23 4 -11 -4 -8 3 7 19 14 15 28 26 33 26 5 0 25 11
45 25 20 13 41 21 46 18 6 -3 7 -1 3 5 -8 13 89 112 109 112 8 0 15 5 15 11 0
8 4 9 13 0 8 -6 17 -7 21 -3z m-1445 -48 c-13 -35 -49 -43 -49 -11 0 22 20 40
20 19 0 -8 5 -6 11 5 16 28 29 19 18 -13z m229 -23 c-5 -34 -33 -28 -34 8 0
17 4 33 10 37 14 9 28 -17 24 -45z m710 32 c12 -19 11 -19 -8 -9 -11 6 -20 15
-20 20 0 17 15 11 28 -11z m-450 -1 c7 -7 12 -8 12 -2 0 5 18 8 40 6 37 -4 39
-5 22 -21 -10 -9 -13 -13 -7 -9 16 10 75 -13 75 -29 0 -7 -5 -13 -11 -13 -5 0
-7 -4 -4 -10 3 -5 -2 -10 -11 -10 -16 0 -15 2 2 21 l19 22 -43 -6 c-24 -3 -53
-14 -64 -24 -12 -10 -18 -12 -14 -5 4 6 2 12 -4 12 -10 0 -50 57 -50 73 0 11
25 8 38 -5z m-624 -37 c-4 -27 -1 -50 11 -75 15 -31 16 -41 6 -64 -11 -23 -14
-24 -22 -10 -17 30 -21 127 -7 159 17 39 19 37 12 -10z m1598 17 c-6 -6 -15
-8 -19 -4 -4 4 -1 11 7 16 8 5 17 7 19 4 3 -2 -1 -10 -7 -16z m-842 2 c0 -5
-2 -10 -4 -10 -3 0 -8 5 -11 10 -3 6 -1 10 4 10 6 0 11 -4 11 -10z m1056 -6
c-3 -8 -1 -24 4 -35 7 -13 7 -19 1 -19 -13 0 -25 45 -16 59 10 17 18 13 11 -5z
m-414 -26 c-7 -7 -12 -8 -12 -2 0 14 12 26 19 19 2 -3 -1 -11 -7 -17z m-239
-16 c4 9 6 7 6 -4 2 -36 -32 -29 -37 7 -2 19 -2 19 12 2 10 -14 15 -15 19 -5z
m381 2 c9 -3 16 -12 16 -19 0 -7 11 -20 25 -29 23 -15 38 -45 16 -31 -6 3 -15
-3 -20 -12 -10 -17 -12 -17 -24 -1 -8 10 -18 14 -22 10 -4 -4 -6 5 -3 20 3 15
2 25 -3 23 -4 -3 -10 -1 -14 5 -3 6 4 10 17 10 l23 1 -25 14 c-25 14 -16 20
14 9z m-1034 -24 c0 -5 -4 -10 -10 -10 -5 0 -10 5 -10 10 0 6 5 10 10 10 6 0
10 -4 10 -10z m1200 -26 c0 -8 -5 -12 -10 -9 -6 4 -8 11 -5 16 9 14 15 11 15
-7z m-194 -31 c-11 -11 -19 6 -11 24 8 17 8 17 12 0 3 -10 2 -21 -1 -24z m144
-3 c11 -20 4 -30 -22 -30 -16 0 -17 3 -8 20 7 14 7 20 0 20 -5 0 -10 4 -10 10
0 14 29 0 40 -20z m-910 -1 c0 -4 -8 -10 -17 -12 -10 -3 8 -5 40 -6 31 0 57 3
57 8 0 22 42 18 72 -7 28 -23 29 -27 12 -33 -28 -11 -54 -10 -29 1 13 6 -13 8
-75 7 -74 -2 -94 -5 -92 -15 1 -8 -3 -12 -10 -9 -7 2 -12 9 -11 14 3 16 -70
19 -75 3 -5 -13 -32 -13 -32 0 0 6 -10 10 -22 10 -21 1 -21 2 -5 11 10 6 23 7
33 1 22 -12 56 -3 50 14 -3 7 3 14 12 16 33 6 92 4 92 -3z m-462 -33 c5 -23
-24 -53 -72 -77 -43 -21 -50 -20 -40 5 5 14 39 22 68 17 5 -1 6 5 3 13 -4 9
-1 15 6 13 8 -1 11 8 9 27 -3 31 20 33 26 2z m129 -40 c23 2 44 11 54 23 17
20 17 20 53 -4 20 -13 42 -22 50 -19 8 3 17 1 20 -4 3 -5 0 -10 -7 -9 -36 1
-54 -4 -54 -16 0 -9 10 -13 26 -11 35 4 51 -7 57 -42 3 -16 2 -25 -2 -21 -4 4
-12 -3 -18 -16 -9 -16 -21 -22 -47 -23 -54 -2 -89 -13 -89 -28 0 -22 -24 -26
-142 -26 -94 0 -113 3 -124 18 -23 29 -17 52 12 52 23 0 26 -3 22 -30 -4 -25
-1 -30 16 -30 21 0 60 20 41 20 -19 0 -10 55 13 77 25 25 91 41 101 26 9 -15
51 -26 51 -14 0 6 -9 11 -20 11 -18 0 -26 20 -21 52 0 4 -6 5 -14 2 -15 -6
-54 31 -54 51 0 6 8 -2 19 -16 16 -21 26 -25 57 -23z m1148 28 c-27 -11 -155
-30 -147 -22 6 6 34 13 63 18 60 8 99 11 84 4z m-1448 -81 c-2 -12 1 -24 7
-26 8 -3 7 -9 -2 -19 -15 -18 -52 -12 -52 8 0 8 -5 14 -11 14 -5 0 -7 -4 -4
-10 8 -13 -2 -12 -45 5 -19 7 -29 14 -21 14 8 1 20 9 27 19 13 16 15 16 30 -3
l16 -20 -3 20 c-1 11 1 28 5 37 8 17 9 17 32 0 16 -11 23 -24 21 -39z m677 51
c26 -4 43 -10 37 -13 -6 -4 17 -13 51 -21 l62 -13 -30 -13 c-16 -7 -46 -16
-66 -19 -21 -3 -38 -9 -38 -14 0 -13 89 -10 98 2 4 7 15 12 25 12 9 0 16 3 15
6 -6 13 24 38 38 32 8 -3 25 3 37 13 12 11 -5 -10 -36 -46 -36 -40 -55 -70
-52 -79 3 -9 3 -12 -1 -8 -15 15 -33 -14 -24 -39 8 -20 4 -36 -15 -74 -14 -28
-32 -50 -40 -50 -9 0 -12 6 -9 15 4 9 0 15 -10 15 -15 0 -17 8 -20 68 -2 32
-66 78 -66 46 0 -8 -7 -17 -15 -20 -8 -4 -15 -12 -15 -19 0 -15 35 -47 43 -39
3 3 5 -8 5 -25 -1 -18 -5 -34 -10 -37 -4 -3 -39 17 -76 44 -37 27 -93 63 -125
79 -55 29 -56 31 -29 36 15 3 47 3 69 0 31 -4 46 -1 58 11 14 13 14 16 2 16
-14 0 -27 20 -27 41 0 20 20 7 21 -13 0 -22 1 -22 9 -3 5 11 9 14 9 7 1 -7 6
-10 11 -7 6 3 10 1 10 -5 0 -6 5 -8 11 -5 6 4 8 13 5 21 -3 8 1 14 8 14 8 0
16 -6 19 -12 3 -8 9 -3 15 12 10 27 6 50 -10 50 -5 0 -16 6 -24 14 -23 23 4
30 80 20z m1166 -9 c11 -13 8 -15 -18 -15 -31 0 -47 11 -35 24 11 11 40 6 53
-9z m-404 -4 c-4 -5 3 -7 14 -4 15 4 20 0 20 -16 0 -17 -6 -21 -29 -21 -16 0
-36 6 -43 13 -7 8 -20 12 -28 10 -8 -2 -4 3 10 11 27 17 64 21 56 7z m-1681
-41 c13 -6 15 -9 5 -9 -8 0 -22 4 -30 9 -18 12 -2 12 25 0z m1072 -16 c-3 -3
-12 -4 -19 -1 -8 3 -5 6 6 6 11 1 17 -2 13 -5z m877 -33 c-3 5 -2 9 2 9 11 0
44 -32 44 -42 0 -5 7 -17 16 -26 15 -14 15 -17 -2 -29 -16 -12 -16 -14 2 -12
11 1 34 -52 34 -77 0 -15 -6 -24 -16 -24 -8 0 -12 5 -9 10 4 6 3 24 0 42 -5
22 -9 27 -16 17 -5 -8 -9 -25 -9 -38 0 -18 -4 -22 -17 -16 -10 4 -22 8 -28 9
-5 1 -20 8 -32 14 -28 16 -31 66 -5 81 9 6 12 11 5 11 -7 0 -10 7 -7 15 4 9
-3 16 -20 21 -14 3 -26 10 -26 15 0 5 -8 6 -17 3 -14 -5 -15 -4 -4 4 7 5 22 7
34 4 12 -3 18 -1 14 5 -5 7 4 8 28 3 20 -5 33 -4 29 1z m-334 -11 c0 -5 -4
-10 -10 -10 -5 0 -10 5 -10 10 0 6 5 10 10 10 6 0 10 -4 10 -10z m201 -30 c1
-5 2 -14 3 -19 0 -5 4 -13 9 -17 11 -11 9 -26 -3 -19 -6 4 -10 -5 -10 -19 0
-14 -5 -26 -10 -26 -6 0 -8 12 -5 28 l6 27 -16 -25 -16 -25 6 28 c3 15 2 26
-2 25 -5 -2 -9 0 -10 5 -6 16 -3 27 8 27 5 0 7 -5 3 -12 -4 -7 -3 -8 4 -4 7 4
12 14 12 22 0 16 19 20 21 4z m-1661 -10 c0 -5 -2 -10 -4 -10 -3 0 -8 5 -11
10 -3 6 -1 10 4 10 6 0 11 -4 11 -10z m1550 -35 c0 -8 -7 -15 -15 -15 -16 0
-20 12 -8 23 11 12 23 8 23 -8z m-820 -37 c0 -19 -2 -20 -10 -8 -13 19 -13 30
0 30 6 0 10 -10 10 -22z m-573 -4 c-3 -3 -12 -4 -19 -1 -8 3 -5 6 6 6 11 1 17
-2 13 -5z m621 -72 c6 -18 -15 -14 -22 4 -4 10 -1 14 6 12 6 -2 14 -10 16 -16z
m757 -42 c-4 -17 -9 -29 -12 -26 -3 2 -2 19 2 36 4 17 9 29 12 26 3 -2 2 -19
-2 -36z m178 30 c36 0 65 -15 54 -27 -5 -4 -11 -2 -15 4 -4 6 -24 11 -45 11
-22 0 -44 6 -50 12 -9 10 -8 12 6 6 10 -3 33 -6 50 -6z m-949 -75 c12 -9 16
-20 12 -31 -6 -15 -10 -12 -27 16 -12 19 -24 29 -27 23 -4 -7 -19 6 -37 30
l-30 41 45 -32 c25 -18 53 -39 64 -47z m739 50 c-3 -9 -8 -14 -10 -11 -3 3 -2
9 2 15 9 16 15 13 8 -4z m-121 -97 c-8 -8 -9 -4 -5 13 4 13 8 18 11 10 2 -7
-1 -18 -6 -23z m707 -41 c1 -5 -3 -6 -8 -2 -5 3 -13 0 -16 -6 -4 -6 -13 0 -21
16 -19 36 -18 53 4 57 15 3 38 -33 41 -65z m-1664 19 c19 -13 17 -18 -32 -117
-61 -122 -93 -231 -93 -313 l0 -59 -25 29 c-50 57 -97 170 -103 244 -6 87 1
112 41 150 69 66 169 97 212 66z m1528 -18 c9 -5 17 -15 17 -23 0 -8 7 -15 15
-15 8 0 15 -6 15 -14 0 -8 5 -16 12 -18 6 -2 9 -9 5 -14 -6 -10 -92 -10 -152
1 -35 6 -112 72 -99 85 20 19 149 18 187 -2z m-957 -16 c-3 -3 1 -14 11 -24 9
-10 11 -18 5 -18 -12 0 -32 31 -32 50 0 6 5 8 11 5 6 -4 8 -10 5 -13z m148 2
c3 -8 2 -12 -4 -9 -6 3 -10 10 -10 16 0 14 7 11 14 -7z m526 -3 c0 -5 18 -11
39 -15 47 -7 122 -75 165 -148 25 -42 28 -59 33 -175 l5 -128 -48 50 c-145
152 -198 243 -209 358 -5 47 -4 67 4 67 6 0 11 -4 11 -9z m-583 -68 c-3 -10
-5 -2 -5 17 0 19 2 27 5 18 2 -10 2 -26 0 -35z m-433 12 c9 -13 16 -30 16 -38
0 -7 11 -24 25 -37 14 -13 25 -29 25 -36 0 -7 7 -17 15 -21 21 -12 55 -82 55
-115 0 -20 4 -26 15 -22 11 5 15 -1 15 -19 0 -14 5 -29 10 -32 6 -3 10 -15 10
-25 0 -10 6 -23 13 -27 18 -11 46 -83 43 -113 -3 -35 -50 -129 -81 -163 -30
-31 -36 -34 -29 -9 3 9 -2 5 -11 -10 -19 -33 -35 -36 -35 -7 0 21 -1 20 -21
-5 -11 -14 -25 -23 -31 -20 -6 4 -8 -1 -4 -13 8 -26 -30 -29 -44 -3 -6 11 -40
61 -75 111 -64 90 -130 215 -141 268 -3 14 -8 37 -10 51 -6 25 -6 24 -20 -9
-8 -18 -15 -52 -15 -75 -1 -38 -2 -39 -8 -11 -4 17 -12 29 -18 28 -14 -3 -24
79 -17 131 7 45 39 85 94 118 19 12 45 30 58 41 12 11 22 17 22 12 0 -5 12 3
28 17 25 25 79 58 93 58 4 0 14 -11 23 -25z m419 -46 c26 -30 15 -34 -13 -4
-13 14 -19 25 -14 25 5 0 18 -9 27 -21z m322 -10 c-9 -17 -19 -28 -22 -25 -6
6 23 56 32 56 3 0 -2 -14 -10 -31z m212 -27 c32 -39 90 -160 102 -212 20 -88
9 -256 -21 -313 -9 -18 -10 -18 -23 0 -7 10 -11 20 -9 23 3 2 9 -2 14 -10 6
-9 10 -10 10 -3 0 6 -8 18 -19 25 -10 7 -21 22 -23 33 -4 18 -6 17 -18 -7 -7
-15 -16 -25 -21 -23 -4 3 -17 -11 -29 -30 -12 -19 -26 -32 -31 -29 -6 3 -16 0
-24 -6 -13 -11 -15 -6 -15 29 0 31 -4 41 -16 41 -11 0 -14 -5 -10 -16 4 -12 2
-15 -9 -10 -8 3 -15 0 -15 -7 -1 -16 -39 34 -40 51 0 6 -4 12 -9 12 -9 0 -38
73 -41 105 -1 11 -2 59 -2 107 -1 96 8 115 87 189 19 18 35 39 35 46 0 6 10
19 22 27 30 21 78 11 105 -22z m540 -44 c-3 -8 -6 -5 -6 6 -1 11 2 17 5 13 3
-3 4 -12 1 -19z m-1057 -65 c0 -7 -39 17 -46 28 -3 6 5 3 20 -6 14 -10 26 -19
26 -22z m1003 -29 c-4 -25 -2 -39 8 -45 10 -6 10 -9 2 -9 -7 0 -19 13 -28 30
-17 34 -19 44 -5 35 6 -3 10 1 10 9 0 9 4 16 9 16 6 0 7 -16 4 -36z m34 14
c-3 -8 -6 -5 -6 6 -1 11 2 17 5 13 3 -3 4 -12 1 -19z m30 -50 c-3 -7 -5 -2 -5
12 0 14 2 19 5 13 2 -7 2 -19 0 -25z m-990 -227 c32 12 47 4 90 -49 21 -26 41
-48 45 -50 5 -2 8 -23 8 -46 0 -66 -12 -136 -21 -130 -5 3 -9 -4 -9 -15 0 -28
-20 -37 -21 -9 -1 23 -1 23 -9 -2 -8 -24 -8 -23 -9 8 -1 19 -5 31 -11 27 -5
-3 -7 0 -4 8 3 8 -2 17 -10 20 -10 4 -16 1 -16 -8 0 -8 -4 -15 -9 -15 -5 0
-11 -8 -13 -17 -2 -10 -18 15 -37 57 -27 59 -36 91 -39 152 l-5 78 24 -9 c13
-5 34 -5 46 0z m-193 -65 c3 -13 4 -46 1 -73 -4 -45 -2 -42 12 17 5 23 6 24
13 5 7 -17 9 -17 9 -2 1 9 15 31 31 49 l30 31 0 -84 c0 -52 4 -79 9 -70 15 24
31 -21 32 -91 1 -47 3 -57 9 -38 7 22 8 21 9 -12 1 -52 -18 -134 -34 -148 -11
-9 -18 -4 -33 26 l-19 37 -8 -49 -8 -49 -11 30 c-6 17 -19 44 -29 62 -9 18
-17 45 -18 60 0 25 -1 26 -9 8 -5 -11 -9 -34 -9 -52 -1 -45 -16 -48 -39 -9
-31 53 -40 137 -25 241 10 75 17 94 38 113 33 28 41 28 49 -2z m-1814 -1076
c0 -6 -8 -13 -17 -17 -10 -3 -25 -12 -33 -18 -19 -16 -111 -47 -118 -41 -8 8
57 60 92 73 39 15 76 16 76 3z m-96 -963 c-2 -7 9 -28 26 -46 21 -22 28 -36
22 -44 -5 -7 -12 -29 -16 -49 -4 -21 -11 -38 -15 -38 -5 0 -14 -15 -21 -32
-19 -48 -39 -67 -78 -74 -37 -7 -142 13 -155 30 -4 7 -9 3 -13 -10 -4 -15 -11
-20 -25 -17 -27 7 -23 32 11 77 17 22 30 45 30 51 0 12 130 132 164 152 29 17
77 17 70 0z m-2521 -614 c-7 -2 -19 -2 -25 0 -7 3 -2 5 12 5 14 0 19 -2 13 -5z
m6687 -3 c0 -5 -4 -10 -9 -10 -6 0 -13 5 -16 10 -3 6 1 10 9 10 9 0 16 -4 16
-10z m-5938 -12 c-6 -6 -23 -5 -43 0 l-34 10 43 -1 c25 0 39 -4 34 -9z m993 2
c3 -5 11 -7 18 -4 8 3 24 0 38 -6 21 -9 19 -10 -18 -7 -24 1 -43 -1 -43 -5 0
-4 -11 -3 -25 2 -14 5 -33 7 -42 3 -15 -5 -14 -3 2 10 22 18 61 22 70 7z
m-1808 -6 c-3 -3 -12 -4 -19 -1 -8 3 -5 6 6 6 11 1 17 -2 13 -5z m623 -20 c0
-8 -4 -12 -10 -9 -5 3 -10 10 -10 16 0 5 5 9 10 9 6 0 10 -7 10 -16z m1410 6
c0 -5 -7 -10 -16 -10 -8 0 -12 5 -9 10 3 6 10 10 16 10 5 0 9 -4 9 -10z m67 4
c-3 -3 -12 -4 -19 -1 -8 3 -5 6 6 6 11 1 17 -2 13 -5z m267 -3 c9 -14 -20 -21
-77 -20 -45 0 -49 2 -27 10 14 6 40 7 58 4 23 -4 32 -3 27 4 -3 6 -2 11 4 11
5 0 12 -4 15 -9z m-2426 -8 c-10 -2 -26 -2 -35 0 -10 3 -2 5 17 5 19 0 27 -2
18 -5z m122 -3 c-14 -4 -32 -8 -40 -9 -13 -1 -13 0 0 9 8 5 26 9 40 9 l25 -1
-25 -8z m527 4 c-3 -3 -12 -4 -19 -1 -8 3 -5 6 6 6 11 1 17 -2 13 -5z m-437
-14 c0 -13 -11 -13 -30 0 -12 8 -11 10 8 10 12 0 22 -4 22 -10z m555 0 c-8
-13 -35 -13 -35 0 0 6 9 10 21 10 11 0 17 -4 14 -10z m1702 4 c-3 -3 -12 -4
-19 -1 -8 3 -5 6 6 6 11 1 17 -2 13 -5z m-1542 -14 c4 -6 -2 -9 -14 -7 -29 4
-39 17 -13 17 11 0 24 -5 27 -10z m642 4 c-3 -3 -12 -4 -19 -1 -8 3 -5 6 6 6
11 1 17 -2 13 -5z m4803 -4 c0 -5 -4 -10 -10 -10 -5 0 -10 5 -10 10 0 6 5 10
10 10 6 0 10 -4 10 -10z m-6430 -16 c0 -2 -9 -4 -20 -4 -11 0 -20 4 -20 9 0 5
9 7 20 4 11 -3 20 -7 20 -9z m458 9 c-10 -2 -26 -2 -35 0 -10 3 -2 5 17 5 19
0 27 -2 18 -5z m-393 -13 c-8 -13 -32 -13 -40 0 -4 6 5 10 20 10 15 0 24 -4
20 -10z m6102 -6 c-3 -3 -12 -4 -19 -1 -8 3 -5 6 6 6 11 1 17 -2 13 -5z"/>
<path d="M6051 7246 c2 -2 24 -6 48 -9 29 -4 40 -2 30 4 -13 8 -88 14 -78 5z"/>
<path d="M6298 5913 c7 -3 16 -2 19 1 4 3 -2 6 -13 5 -11 0 -14 -3 -6 -6z"/>
<path d="M4568 5793 c6 -2 18 -2 25 0 6 3 1 5 -13 5 -14 0 -19 -2 -12 -5z"/>
<path d="M6408 6283 c7 -3 16 -2 19 1 4 3 -2 6 -13 5 -11 0 -14 -3 -6 -6z"/>
<path d="M5450 4480 c0 -5 7 -7 15 -4 8 4 15 8 15 10 0 2 -7 4 -15 4 -8 0 -15
-4 -15 -10z"/>
<path d="M5399 4423 c-13 -16 -12 -17 4 -4 9 7 17 15 17 17 0 8 -8 3 -21 -13z"/>
<path d="M5620 4402 c0 -5 12 -19 27 -33 l26 -24 -23 33 c-25 33 -30 38 -30
24z"/>
<path d="M5309 4341 c-48 -48 -77 -88 -47 -64 8 7 18 10 21 6 4 -3 7 -1 7 5 0
7 8 20 18 30 47 51 65 72 56 71 -5 -1 -30 -22 -55 -48z"/>
<path d="M5540 4356 c0 -2 8 -10 18 -17 15 -13 16 -12 3 4 -13 16 -21 21 -21
13z"/>
<path d="M5570 4311 c0 -5 5 -13 10 -16 6 -3 10 -2 10 4 0 5 -4 13 -10 16 -5
3 -10 2 -10 -4z"/>
<path d="M5191 4134 c0 -11 3 -14 6 -6 3 7 2 16 -1 19 -3 4 -6 -2 -5 -13z"/>
<path d="M5533 4163 c-17 -6 -16 -28 1 -42 11 -9 15 -7 19 11 7 25 -2 38 -20
31z"/>
<path d="M5245 3990 c21 -24 26 -25 19 -6 -3 8 -13 17 -22 21 -13 5 -13 2 3
-15z"/>
<path d="M5560 3781 c0 -7 -6 -11 -15 -7 -8 3 -15 1 -15 -4 0 -6 9 -10 20 -10
11 0 20 -5 20 -11 0 -5 5 -7 11 -3 6 3 15 0 20 -7 7 -11 9 -10 9 4 0 9 -7 17
-15 17 -7 0 -19 8 -24 18 -7 11 -10 12 -11 3z"/>
<path d="M5565 3530 c4 -6 11 -8 16 -5 14 9 11 15 -7 15 -8 0 -12 -5 -9 -10z"/>
<path d="M5706 3353 c-6 -14 -5 -15 5 -6 7 7 10 15 7 18 -3 3 -9 -2 -12 -12z"/>
<path d="M4977 4043 c-4 -3 -7 -11 -7 -17 0 -6 5 -5 12 2 6 6 9 14 7 17 -3 3
-9 2 -12 -2z"/>
<path d="M4865 3790 c3 -5 8 -10 11 -10 2 0 4 5 4 10 0 6 -5 10 -11 10 -5 0
-7 -4 -4 -10z"/>
<path d="M5158 3803 c7 -3 16 -2 19 1 4 3 -2 6 -13 5 -11 0 -14 -3 -6 -6z"/>
<path d="M5096 3745 c-8 -23 -9 -22 20 -22 15 0 21 3 14 7 -6 4 -11 11 -10 16
3 16 -18 15 -24 -1z"/>
<path d="M5189 3742 c11 -8 11 -10 0 -15 -8 -3 -5 -6 8 -6 12 -1 25 4 28 9 3
6 2 10 -4 10 -5 0 -18 3 -28 6 -13 4 -15 3 -4 -4z"/>
<path d="M5942 2880 c0 -14 2 -19 5 -12 2 6 2 18 0 25 -3 6 -5 1 -5 -13z"/>
<path d="M5906 2714 c-4 -9 -4 -19 -1 -22 2 -3 7 3 11 12 4 9 4 19 1 22 -2 3
-7 -3 -11 -12z"/>
<path d="M5456 2601 c-4 -7 -5 -15 -2 -18 9 -9 19 4 14 18 -4 11 -6 11 -12 0z"/>
<path d="M3215 517 c-4 -10 -5 -21 -1 -24 10 -10 18 4 13 24 -4 17 -4 17 -12
0z"/>
<path d="M2402 9557 c-29 -30 -28 -33 10 -46 37 -13 48 -3 48 42 0 34 -28 37
-58 4z"/>
<path d="M7460 9249 c0 -5 5 -7 10 -4 6 3 10 8 10 11 0 2 -4 4 -10 4 -5 0 -10
-5 -10 -11z"/>
<path d="M2105 8987 c-27 -5 -56 -11 -63 -13 -13 -4 -27 -34 -38 -82 -7 -27
-6 -27 32 9 22 20 56 42 77 49 33 10 59 35 46 43 -2 2 -26 -1 -54 -6z"/>
<path d="M1749 8910 c-19 -16 -37 -30 -40 -30 -3 0 -18 -21 -33 -47 -15 -27
-36 -62 -47 -80 -17 -27 -19 -42 -14 -87 6 -47 12 -58 37 -74 17 -11 39 -17
49 -15 28 8 58 50 64 92 17 106 30 156 52 188 22 33 23 37 8 59 -20 31 -35 30
-76 -6z"/>
<path d="M2739 8779 c-9 -13 -22 -42 -29 -64 -20 -63 -38 -94 -110 -190 -266
-355 -464 -716 -619 -1125 -48 -129 -98 -271 -111 -315 -12 -44 -29 -102 -38
-130 -66 -215 -161 -637 -206 -920 -35 -222 -67 -544 -77 -794 -10 -231 -10
-266 3 -275 38 -28 50 -95 22 -134 -14 -20 -14 -24 0 -38 13 -12 13 -19 3 -35
-10 -16 -9 -22 3 -30 10 -7 11 -12 4 -15 -56 -23 -58 -42 -42 -346 12 -205 12
-207 33 -202 18 4 31 -7 73 -63 28 -37 119 -135 202 -216 128 -125 152 -145
157 -127 12 45 46 22 196 -132 82 -83 174 -187 204 -230 55 -78 123 -153 216
-237 56 -50 84 -102 127 -237 71 -219 132 -294 346 -423 77 -46 167 -101 202
-123 71 -46 112 -47 112 -3 0 23 -4 25 -42 26 -59 2 -101 12 -105 25 -2 7 19
20 48 30 68 25 109 71 109 124 0 22 4 40 8 40 4 0 32 31 60 69 29 37 61 76 72
86 25 23 25 50 0 75 -24 24 -39 25 -46 5 -9 -24 -40 -18 -52 10 -20 43 -14
135 13 216 24 69 24 75 8 86 -9 7 -22 13 -27 13 -6 0 -19 7 -30 15 -18 13 -17
16 18 49 21 19 48 42 62 51 33 21 21 37 -22 29 -63 -12 -99 3 -168 69 -37 35
-66 70 -66 78 0 10 25 20 83 32 137 31 155 38 161 62 3 13 41 54 84 92 43 37
96 92 117 121 22 29 56 60 75 69 54 27 63 43 34 70 -13 12 -24 29 -24 36 0 8
-7 17 -15 21 -26 10 -17 22 36 46 55 26 78 55 60 73 -16 16 -14 58 4 77 19 21
10 48 -18 52 -36 5 -29 23 15 39 42 16 43 17 40 56 -3 34 3 49 32 89 20 27 54
67 76 90 25 25 45 59 55 90 8 27 15 50 15 51 0 1 -30 -1 -67 -4 -47 -4 -88 0
-131 11 -75 19 -75 19 -67 6 4 -7 -3 -7 -20 0 -17 6 -41 7 -68 0 -53 -12 -132
-13 -155 -1 -9 5 -29 14 -44 20 -16 6 -28 17 -28 26 0 8 -3 14 -7 13 -43 -11
-137 59 -115 85 12 14 -11 30 -83 57 -41 14 -59 44 -45 71 25 46 -38 66 -89
28 -115 -85 -418 -27 -610 116 -82 63 -101 97 -59 108 22 6 22 7 -7 37 -25 26
-27 32 -15 40 8 5 23 10 33 10 29 0 19 18 -14 25 -44 10 -94 41 -114 71 -9 14
-15 28 -12 30 2 3 33 13 69 23 76 21 148 60 177 97 11 14 29 50 41 81 29 77
47 110 91 170 41 55 43 81 5 81 -29 0 -124 30 -131 42 -3 5 -1 11 5 15 23 14
7 23 -52 30 -101 10 -121 23 -141 86 -3 9 -1 21 5 27 7 7 4 20 -12 42 -21 29
-21 32 -5 50 16 17 14 20 -27 48 -60 41 -73 58 -59 76 9 10 7 16 -5 26 -8 8
-21 25 -28 39 -15 29 -19 168 -5 176 4 3 5 13 2 22 -6 14 1 15 68 8 120 -13
152 -9 266 36 115 46 153 66 153 81 0 5 -9 18 -20 30 -30 32 -25 39 23 31 23
-5 66 -8 95 -8 57 0 59 1 131 95 13 17 43 40 67 52 38 18 43 23 32 36 -10 12
-10 14 -1 8 10 -5 11 3 7 36 -5 34 -1 52 15 81 21 38 19 67 -6 67 -8 0 -20 15
-28 34 -12 28 -24 37 -63 50 -50 17 -116 71 -106 87 3 5 22 9 42 9 32 1 35 2
17 12 -47 25 -125 115 -125 143 0 3 9 9 19 13 17 6 12 15 -41 81 -64 79 -67
103 -9 83 17 -6 31 -8 31 -5 0 3 -20 28 -45 54 -33 35 -45 56 -45 79 0 33 17
38 64 20 33 -12 34 1 2 43 -26 34 -90 196 -81 205 3 3 19 -8 37 -24 22 -21 29
-24 25 -11 -4 11 -10 31 -13 45 -3 15 -15 47 -27 71 l-22 43 22 15 22 15 -34
69 c-19 38 -35 71 -35 75 0 3 11 3 25 0 34 -9 44 19 33 93 -4 31 -5 91 -1 134
3 47 1 107 -7 150 -6 40 -15 90 -19 111 l-6 40 -16 -25z m-49 -2139 c0 -5 -8
-10 -17 -10 -15 0 -16 2 -3 10 19 12 20 12 20 0z m460 -1724 c0 -2 -7 -6 -15
-10 -8 -3 -15 -1 -15 4 0 6 7 10 15 10 8 0 15 -2 15 -4z m-1051 -144 c0 -11
-2 -12 -6 -4 -2 6 -9 10 -14 7 -5 -4 -6 1 -3 9 8 20 24 11 23 -12z m-311 -234
c20 -20 14 -56 -9 -63 -33 -11 -56 17 -41 50 13 27 31 32 50 13z m861 -313
c61 -31 67 -128 11 -177 -80 -73 -200 8 -169 113 22 72 90 99 158 64z m-319
-295 c0 -5 -7 -7 -15 -4 -8 4 -15 8 -15 10 0 2 7 4 15 4 8 0 15 -4 15 -10z
m970 -725 c-7 -8 -16 -15 -21 -15 -5 0 -6 7 -3 15 4 8 13 15 21 15 13 0 13 -3
3 -15z"/>
<path d="M8120 8747 c-1 -32 -25 -164 -41 -221 -18 -68 -17 -116 4 -116 6 0 8
-23 4 -65 -4 -36 -2 -65 2 -65 20 0 19 -34 -4 -117 -13 -48 -31 -105 -39 -125
-21 -49 -21 -48 15 -41 l31 6 -15 -30 c-9 -17 -28 -38 -42 -47 -14 -9 -50 -54
-79 -99 -30 -45 -68 -95 -85 -111 -17 -17 -31 -33 -31 -38 0 -4 20 -8 45 -8
48 0 53 -5 31 -35 -7 -11 -17 -31 -21 -45 -7 -23 -4 -22 25 10 17 19 39 49 48
65 l17 30 3 -45 c7 -91 -34 -180 -126 -280 -57 -60 -54 -72 11 -45 28 12 10
-20 -19 -33 -16 -8 -24 -20 -24 -37 0 -14 -14 -41 -33 -62 -56 -63 -55 -73 5
-73 43 0 49 -2 38 -14 -6 -8 -33 -23 -58 -32 -26 -10 -51 -21 -56 -25 -13 -11
49 -46 137 -75 42 -14 77 -28 77 -30 0 -3 -12 -15 -27 -28 -24 -21 -26 -26
-13 -41 12 -14 27 -16 104 -11 50 3 115 8 145 12 54 6 54 6 47 -19 -5 -22 -3
-26 21 -29 27 -3 28 -5 26 -54 -3 -82 -38 -157 -103 -227 -68 -72 -129 -111
-271 -173 -132 -57 -208 -77 -278 -71 -60 5 -65 6 -124 26 -21 7 -41 11 -43 8
-9 -9 67 -150 117 -218 48 -65 71 -109 74 -141 1 -9 17 -35 34 -57 24 -30 40
-41 59 -41 22 0 31 -8 46 -41 19 -38 22 -40 60 -38 67 3 69 2 61 -28 -3 -16
-15 -37 -25 -48 -23 -25 -17 -68 9 -61 22 7 142 26 164 26 9 0 17 -7 17 -15 0
-7 -8 -19 -17 -25 -17 -9 -17 -11 -1 -20 33 -20 -5 -137 -58 -179 -21 -17 -41
-21 -97 -21 -62 0 -68 -2 -56 -16 7 -8 30 -24 51 -35 43 -22 47 -39 16 -69
-31 -29 -85 -43 -151 -39 l-56 4 21 -22 c19 -21 20 -23 4 -23 -10 0 -35 13
-55 29 -20 15 -51 36 -68 45 -31 16 -174 48 -182 41 -1 -2 8 -29 22 -59 32
-70 161 -230 289 -358 l97 -98 -25 -19 c-47 -37 -108 -44 -255 -27 -74 8 -147
19 -162 25 -40 15 -47 13 -14 -5 27 -15 35 -38 17 -49 -8 -5 -99 11 -227 40
l-22 5 19 -42 c33 -73 18 -138 -32 -138 -24 0 -30 -28 -9 -40 10 -5 37 -12 60
-16 22 -4 41 -10 41 -15 0 -16 -52 -48 -89 -54 -26 -4 -41 -13 -44 -25 -2 -10
-17 -26 -33 -36 -39 -26 -206 -26 -282 0 -50 17 -58 17 -168 1 -66 -9 -138
-14 -166 -11 -32 4 -47 3 -43 -4 3 -5 12 -10 18 -10 7 0 29 -11 50 -25 30 -21
37 -32 37 -58 0 -18 -5 -38 -12 -45 -12 -12 11 -71 99 -246 24 -48 42 -94 39
-102 -9 -24 42 -124 99 -194 66 -81 69 -95 17 -87 -21 2 -46 0 -55 -5 -15 -8
-14 -14 15 -56 44 -65 149 -190 197 -235 23 -20 52 -54 65 -75 13 -20 38 -50
55 -66 23 -22 28 -32 19 -38 -21 -13 -101 -9 -154 7 -27 8 -50 15 -51 15 -1 0
10 -23 25 -52 25 -49 27 -60 27 -189 0 -121 -2 -139 -19 -158 -13 -15 -23 -18
-30 -11 -13 13 -26 13 -26 -1 0 -5 -27 -69 -59 -140 l-59 -129 50 -98 c27 -53
74 -131 103 -173 29 -41 63 -97 75 -123 30 -66 58 -94 132 -131 44 -22 63 -38
63 -51 0 -15 9 -20 50 -24 47 -5 50 -6 50 -34 0 -25 5 -31 33 -38 17 -5 32
-12 32 -17 0 -5 9 -11 20 -14 24 -6 41 -46 29 -69 -5 -9 -28 -23 -50 -30 -58
-19 -66 -46 -28 -95 73 -95 100 -144 129 -231 35 -110 38 -137 13 -127 -36 14
-38 10 -37 -77 2 -75 6 -94 33 -148 35 -69 38 -85 15 -94 -12 -4 -33 10 -70
47 -30 30 -54 50 -54 45 0 -17 23 -53 51 -78 15 -14 39 -50 52 -81 22 -49 23
-59 11 -80 -19 -34 -17 -52 7 -67 l21 -14 -26 -27 c-29 -30 -31 -43 -15 -90 7
-20 18 -31 30 -31 10 0 68 49 131 112 101 100 130 140 141 194 2 7 18 29 37
50 19 22 78 107 132 189 53 83 101 155 105 160 34 42 159 223 193 280 23 39
52 84 65 100 50 68 339 634 385 755 16 41 52 127 80 190 69 153 111 262 175
455 104 314 139 450 185 720 11 66 29 156 40 200 29 125 48 246 64 415 9 85
22 218 30 295 18 173 36 474 36 612 0 56 -7 167 -15 245 -8 79 -21 242 -30
363 -30 413 -47 539 -116 860 -113 525 -274 939 -601 1552 -81 151 -108 193
-200 313 -82 107 -98 126 -98 117z m245 -1238 c0 -8 -10 -15 -22 -17 -25 -4
-33 22 -10 31 18 8 32 2 32 -14z m-187 -1997 c2 -7 -6 -12 -17 -12 -21 0 -27
11 -14 24 9 9 26 2 31 -12z m72 -2756 c0 -2 -7 -9 -15 -16 -12 -10 -15 -10
-15 4 0 9 7 16 15 16 8 0 15 -2 15 -4z m-794 -220 c26 -25 26 -55 0 -81 -62
-62 -150 9 -96 78 17 22 26 25 53 20 18 -3 37 -11 43 -17z m-426 -436 c0 -5
-7 -10 -16 -10 -8 0 -12 5 -9 10 3 6 10 10 16 10 5 0 9 -4 9 -10z m752 -145
c0 -5 -5 -11 -11 -13 -6 -2 -11 4 -11 13 0 9 5 15 11 13 6 -2 11 -8 11 -13z"/>
<path d="M6688 8633 c6 -2 18 -2 25 0 6 3 1 5 -13 5 -14 0 -19 -2 -12 -5z"/>
<path d="M3990 8510 c-8 -5 -10 -10 -5 -10 6 0 17 5 25 10 8 5 11 10 5 10 -5
0 -17 -5 -25 -10z"/>
<path d="M1480 8480 c-15 -16 -46 -66 -70 -111 -35 -67 -39 -80 -24 -77 11 2
33 26 50 53 17 28 48 66 69 86 29 28 36 41 30 58 -9 29 -22 27 -55 -9z"/>
<path d="M1768 8300 c-9 -6 -32 -32 -52 -60 -28 -38 -36 -60 -36 -93 0 -23 -6
-68 -14 -100 -8 -33 -10 -55 -5 -50 14 14 149 286 149 300 0 15 -18 16 -42 3z"/>
<path d="M5996 8115 c-50 -30 -86 -72 -86 -99 0 -13 3 -16 8 -10 4 7 28 21 54
33 53 25 81 53 83 81 2 26 -11 25 -59 -5z"/>
<path d="M1520 8101 c-19 -11 -73 -37 -120 -60 -63 -29 -89 -48 -102 -71 -24
-42 -23 -53 2 -40 48 26 78 -22 71 -112 -3 -45 12 -49 79 -19 39 17 42 22 45
62 2 36 39 161 70 242 9 22 -1 21 -45 -2z"/>
<path d="M4515 8010 c-8 -13 39 -24 70 -16 37 9 21 26 -25 26 -21 0 -42 -4
-45 -10z"/>
<path d="M4908 7980 c17 -16 32 -34 32 -39 0 -5 7 -11 15 -15 9 -3 12 -12 8
-22 -4 -12 -3 -15 5 -10 8 5 10 2 6 -8 -4 -11 0 -16 10 -16 9 0 16 -5 16 -11
0 -6 16 4 35 22 40 38 33 59 -20 59 -29 0 -64 19 -103 57 -7 7 -19 13 -25 13
-7 0 3 -14 21 -30z m132 -80 c0 -5 -5 -10 -11 -10 -5 0 -7 5 -4 10 3 6 8 10
11 10 2 0 4 -4 4 -10z"/>
<path d="M5304 7985 c-8 -32 -4 -37 19 -20 10 7 15 19 11 29 -9 24 -23 20 -30
-9z"/>
<path d="M5343 7965 l-21 -25 23 0 c17 0 23 6 23 25 0 14 -1 25 -2 25 0 0 -11
-12 -23 -25z"/>
<path d="M9258 7943 l-27 -26 42 -37 c38 -34 44 -36 77 -28 19 6 37 12 39 14
2 2 -15 21 -38 44 -22 22 -41 45 -41 50 0 18 -25 10 -52 -17z"/>
<path d="M5468 7953 c7 -3 16 -2 19 1 4 3 -2 6 -13 5 -11 0 -14 -3 -6 -6z"/>
<path d="M5109 7898 c-10 -39 11 -88 24 -54 4 11 1 13 -10 9 -13 -5 -14 -3 -4
15 7 14 8 23 1 27 -5 3 -10 5 -11 3z"/>
<path d="M1584 7859 c-3 -6 -20 -19 -38 -30 -19 -12 -25 -19 -14 -19 9 0 18
-6 21 -12 2 -7 14 6 26 30 12 23 19 42 17 42 -3 0 -8 -5 -12 -11z"/>
<path d="M5170 7842 c0 -5 7 -17 16 -28 8 -10 13 -14 10 -7 -4 6 2 14 11 16
17 4 17 5 1 6 -10 0 -18 6 -18 11 0 6 -4 10 -10 10 -5 0 -10 -4 -10 -8z"/>
<path d="M9460 7763 c0 -34 -7 -88 -16 -120 -24 -91 -32 -156 -23 -180 8 -22
8 -22 39 8 25 26 35 29 61 24 21 -5 36 -2 49 10 17 15 17 20 3 83 -17 73 -60
173 -92 212 l-21 25 0 -62z"/>
<path d="M4970 7800 c-13 -8 -12 -10 3 -10 9 0 17 5 17 10 0 12 -1 12 -20 0z"/>
<path d="M4538 7793 c7 -3 16 -2 19 1 4 3 -2 6 -13 5 -11 0 -14 -3 -6 -6z"/>
<path d="M4971 7771 c-7 -5 -12 -14 -10 -20 3 -6 9 -7 18 -2 7 5 12 14 10 20
-3 6 -9 7 -18 2z"/>
<path d="M5100 7745 c7 -9 15 -13 17 -11 7 7 -7 26 -19 26 -6 0 -6 -6 2 -15z"/>
<path d="M5138 7743 c6 -2 18 -2 25 0 6 3 1 5 -13 5 -14 0 -19 -2 -12 -5z"/>
<path d="M5326 7635 c-22 -28 -25 -39 -16 -55 12 -23 36 -17 43 11 5 19 27 27
27 9 0 -5 -4 -10 -10 -10 -5 0 -7 -7 -4 -15 4 -8 -1 -17 -10 -21 -23 -9 -20
-20 17 -58 31 -33 73 -56 102 -56 8 0 32 17 54 38 32 30 39 43 34 62 -4 14 -2
21 4 17 14 -9 -3 81 -18 99 -13 16 -79 18 -129 4 -22 -6 -38 -6 -44 0 -16 16
-22 12 -50 -25z m183 -51 c7 -6 -32 -33 -46 -34 -19 0 -16 18 5 24 9 3 4 3
-13 0 -55 -10 -68 -9 -72 3 -2 6 4 13 14 15 19 4 105 -2 112 -8z"/>
<path d="M1093 7605 c-14 -29 -14 -41 -5 -73 7 -22 12 -69 12 -106 0 -57 -3
-70 -24 -91 -21 -21 -29 -23 -56 -15 -38 11 -60 28 -60 46 0 23 -15 16 -33
-16 -22 -36 -67 -166 -67 -191 0 -29 14 -30 96 -8 127 34 125 34 164 -5 19
-19 38 -36 41 -36 4 0 9 21 12 46 2 26 14 58 25 73 16 22 27 26 68 26 27 0 59
-4 70 -8 19 -7 24 -2 38 39 23 69 21 83 -11 82 -60 -3 -83 2 -83 17 0 9 -9 15
-23 15 -40 0 -91 70 -107 147 -19 88 -20 93 -30 93 -6 0 -18 -16 -27 -35z"/>
<path d="M5596 7502 c-3 -6 1 -15 8 -21 8 -7 17 -8 20 -3 3 6 -1 15 -8 21 -8
7 -17 8 -20 3z"/>
<path d="M5102 7406 c4 -5 2 -16 -4 -25 -10 -13 -10 -14 1 -4 7 6 21 9 30 6
18 -7 16 -4 -14 17 -11 8 -17 10 -13 6z"/>
<path d="M5561 7405 c0 -5 6 -21 14 -35 8 -14 14 -20 14 -15 0 6 -6 21 -14 35
-8 14 -14 21 -14 15z"/>
<path d="M5229 7375 c-1 -3 -2 -8 -3 -12 -1 -5 -5 -14 -9 -20 -13 -21 8 -15
28 7 18 20 18 21 0 14 -13 -5 -16 -4 -11 4 4 7 5 12 2 12 -3 0 -7 -2 -7 -5z"/>
<path d="M5456 7305 c2 -11 4 -23 4 -27 0 -5 9 -8 20 -8 11 0 20 -5 20 -11 0
-6 6 -9 13 -6 6 2 17 -5 24 -17 l12 -21 1 22 c0 12 -4 25 -10 28 -5 3 -10 16
-10 28 0 18 -2 19 -10 7 -8 -12 -10 -12 -10 -1 0 11 -5 10 -20 -4 -20 -18 -21
-18 -14 0 5 12 4 16 -4 12 -6 -4 -12 -2 -15 5 -2 7 -3 4 -1 -7z"/>
<path d="M5150 7300 c-9 -6 -10 -10 -3 -10 6 0 15 5 18 10 8 12 4 12 -15 0z"/>
<path d="M5641 7281 c7 -11 21 -22 31 -24 24 -7 23 -4 -13 22 -27 20 -29 21
-18 2z"/>
<path d="M5119 7290 c0 -3 -2 -15 -5 -28 -4 -22 -3 -22 12 -7 13 12 14 19 5
28 -6 6 -11 9 -12 7z"/>
<path d="M5265 7249 c-4 -6 -4 -13 -1 -16 3 -4 6 -1 6 6 0 8 7 11 15 7 8 -3
15 -1 15 4 0 13 -27 13 -35 -1z"/>
<path d="M9672 7222 c-6 -18 -17 -32 -25 -32 -30 0 -36 -24 -16 -67 22 -48 52
-73 88 -73 22 0 23 3 17 40 -3 22 -17 68 -29 102 l-24 62 -11 -32z"/>
<path d="M835 7020 c-13 -22 7 -67 49 -108 38 -37 45 -41 56 -27 10 13 10 19
-4 34 -9 10 -19 34 -23 54 -7 43 -61 75 -78 47z"/>
<path d="M1231 6977 c-15 -39 -14 -45 5 -19 8 12 13 28 11 35 -3 6 -10 -1 -16
-16z"/>
<path d="M7273 6944 c-7 -18 16 -66 29 -58 13 8 10 24 -4 22 -8 -2 -13 8 -13
25 1 31 -3 34 -12 11z"/>
<path d="M1187 6842 c-5 -7 -19 -17 -32 -22 -18 -7 -27 -25 -45 -92 -39 -147
-115 -218 -181 -169 l-29 21 -4 -22 c-13 -63 -15 -162 -5 -205 6 -26 17 -95
24 -153 7 -58 21 -127 33 -155 11 -27 26 -68 32 -90 14 -43 50 -97 50 -74 0 8
5 64 10 124 18 193 50 374 106 594 50 196 64 279 41 243z"/>
<path d="M9799 6816 c-1 -3 -2 -9 -3 -13 -1 -5 -6 -24 -10 -43 -20 -90 -60
-209 -83 -243 -32 -51 -38 -90 -23 -163 16 -77 49 -166 60 -159 4 3 11 33 15
67 4 35 13 79 20 99 8 21 11 40 7 44 -3 3 1 3 11 -1 9 -3 24 -1 31 5 8 7 23
11 33 9 14 -2 17 2 15 22 -2 14 -3 54 -3 89 1 66 -43 276 -60 287 -5 3 -10 3
-10 0z"/>
<path d="M3525 6748 c-11 -7 -26 -17 -32 -24 -15 -15 -116 -54 -139 -54 -27 0
-114 -42 -114 -55 0 -6 -16 -20 -35 -31 -19 -10 -35 -24 -35 -31 0 -7 -7 -13
-16 -13 -10 0 -14 -6 -10 -15 3 -8 1 -15 -5 -15 -14 0 -39 -26 -39 -39 0 -6
-6 -11 -12 -11 -13 0 -73 -62 -89 -92 -14 -26 20 -24 74 3 43 22 60 38 106 99
38 51 61 67 192 134 126 65 159 88 178 123 19 36 12 42 -24 21z"/>
<path d="M674 6575 c-8 -19 3 -127 16 -158 12 -32 50 -68 62 -61 13 9 4 94
-19 163 -18 56 -48 84 -59 56z"/>
<path d="M9920 6166 c0 -8 -12 -51 -26 -95 -31 -97 -30 -136 5 -136 38 0 64
52 63 128 0 65 -14 117 -32 117 -5 0 -10 -6 -10 -14z"/>
<path d="M541 5911 c-6 -10 -14 -63 -17 -116 -8 -109 -13 -102 61 -76 17 6 42
13 56 15 48 10 79 43 79 86 0 39 0 39 -57 56 -32 9 -65 22 -73 29 -30 24 -39
25 -49 6z"/>
<path d="M7606 5805 c7 -16 72 -40 82 -30 4 4 -4 15 -17 26 -28 23 -73 26 -65
4z"/>
<path d="M10007 5789 c-19 -66 -24 -75 -58 -91 -27 -14 -42 -16 -69 -8 -66 19
-66 18 -74 -168 -4 -92 -9 -188 -13 -214 l-6 -48 48 2 c41 2 51 -1 71 -25 18
-22 24 -40 24 -79 0 -44 2 -49 18 -43 9 4 29 10 45 13 l27 4 0 104 0 103 -39
11 c-107 28 -107 175 -1 196 33 7 46 19 30 29 -17 11 -11 33 11 40 20 7 21 12
16 87 -5 75 -21 121 -30 87z"/>
<path d="M7340 5750 c0 -5 5 -10 10 -10 6 0 10 5 10 10 0 6 -4 10 -10 10 -5 0
-10 -4 -10 -10z"/>
<path d="M7366 5741 c-4 -7 -5 -15 -2 -18 9 -9 19 4 14 18 -4 11 -6 11 -12 0z"/>
<path d="M1005 5629 c-21 -57 -45 -183 -45 -238 0 -36 -4 -72 -9 -80 -15 -23
-81 9 -81 39 0 6 -11 36 -25 66 -23 50 -46 67 -59 45 -3 -5 -31 -12 -61 -16
-48 -6 -57 -10 -71 -36 -8 -17 -12 -38 -9 -49 3 -10 7 -27 9 -37 2 -10 9 -38
16 -63 31 -115 28 -110 71 -110 34 0 41 5 68 44 33 47 47 56 91 56 38 0 50
-23 50 -97 0 -120 -30 -172 -103 -180 -26 -3 -47 -8 -47 -12 1 -15 17 -30 42
-36 15 -4 32 -13 38 -20 18 -22 24 -111 10 -160 -12 -43 -15 -46 -43 -43 -25
2 -32 9 -39 35 -9 35 -22 36 -67 1 -31 -24 -62 -23 -89 2 l-22 21 0 -48 c0
-34 9 -63 30 -101 16 -29 36 -77 44 -105 22 -71 31 -84 49 -69 21 18 41 6 61
-35 14 -29 21 -34 41 -30 14 2 25 0 25 -6 0 -26 15 10 19 45 1 4 10 9 20 13
38 12 51 83 51 279 0 161 13 420 39 806 9 119 8 149 -4 119z"/>
<path d="M3470 5590 c0 -5 5 -10 10 -10 6 0 10 5 10 10 0 6 -4 10 -10 10 -5 0
-10 -4 -10 -10z"/>
<path d="M489 5128 c-22 -9 -29 -22 -43 -82 -9 -39 -16 -74 -16 -78 0 -5 19
-8 41 -8 23 0 59 -5 81 -12 53 -16 69 5 31 40 -19 17 -23 26 -14 35 19 19 12
53 -19 86 -17 17 -31 31 -33 30 -1 -1 -14 -6 -28 -11z"/>
<path d="M9820 5030 c-14 -11 -30 -24 -37 -30 -8 -7 -10 -50 -6 -157 4 -91 1
-182 -6 -237 -15 -110 -10 -118 57 -93 26 10 58 21 72 24 14 3 28 11 32 17 11
15 10 80 -1 108 -13 35 -18 143 -6 144 25 2 63 24 69 39 3 9 6 36 6 61 0 38
-3 44 -25 50 -14 3 -38 23 -53 43 -44 59 -60 64 -102 31z"/>
<path d="M6568 4953 c7 -3 16 -2 19 1 4 3 -2 6 -13 5 -11 0 -14 -3 -6 -6z"/>
<path d="M7183 4878 c1 -10 6 -18 12 -18 6 0 11 8 12 18 1 10 -5 19 -12 19 -7
0 -13 -9 -12 -19z"/>
<path d="M10230 4758 c0 -24 -7 -101 -15 -173 -20 -175 -19 -244 2 -267 15
-17 15 -21 -5 -56 -43 -78 -73 -198 -82 -335 -9 -130 -26 -228 -55 -317 -8
-25 -28 -110 -45 -189 -27 -129 -56 -242 -80 -311 -4 -14 -27 -85 -50 -158
-29 -91 -55 -153 -83 -194 -34 -51 -38 -63 -29 -79 23 -36 13 -86 -34 -176
-26 -48 -55 -110 -65 -138 -42 -120 -200 -449 -260 -545 -36 -58 -75 -119 -85
-137 -95 -161 -360 -576 -404 -633 -54 -69 -101 -173 -105 -233 -5 -61 -4 -60
-125 -187 -71 -75 -73 -79 -60 -95 7 -9 25 -13 48 -10 63 6 165 24 219 38 28
8 85 15 125 16 40 1 92 4 115 7 23 3 56 1 75 -4 18 -6 68 -13 110 -16 75 -6
77 -5 107 24 16 17 34 30 40 30 20 0 23 -22 5 -41 -9 -10 -15 -19 -13 -20 2 0
76 -5 164 -9 106 -6 189 -16 245 -30 56 -15 130 -24 218 -27 l132 -5 0 2156
c0 1186 -2 2156 -5 2156 -3 0 -5 -19 -5 -42z"/>
<path d="M4396 4704 c-3 -9 -4 -20 0 -25 3 -5 1 -9 -5 -9 -5 0 -12 6 -14 13
-4 8 -6 7 -6 -3 0 -8 10 -23 24 -32 l24 -18 -9 31 c-5 16 -6 37 -3 45 3 8 3
14 0 14 -3 0 -8 -7 -11 -16z"/>
<path d="M4411 4600 c0 -8 4 -22 9 -30 12 -18 12 -2 0 25 -6 13 -9 15 -9 5z"/>
<path d="M420 4438 c0 -130 9 -210 24 -225 7 -8 55 24 86 58 25 26 26 28 18
129 -5 64 -14 116 -25 139 -16 32 -23 36 -60 39 l-43 3 0 -143z"/>
<path d="M9840 4319 c-6 -11 -17 -40 -25 -65 -19 -65 -86 -172 -111 -178 -12
-3 -40 -26 -63 -51 -38 -41 -41 -49 -42 -105 -1 -33 -2 -66 -3 -72 -1 -9 13
-12 47 -10 28 2 54 -1 63 -8 8 -7 16 -11 19 -9 2 3 13 47 24 98 26 117 45 149
105 182 76 40 101 108 75 202 -9 33 -13 37 -44 37 -24 0 -37 -6 -45 -21z"/>
<path d="M4050 4150 c16 -10 15 -11 -15 -29 -19 -11 -18 -12 5 -6 14 4 30 7
37 7 19 2 -5 38 -25 38 -14 0 -15 -2 -2 -10z"/>
<path d="M730 4085 c-14 -8 -35 -19 -46 -26 -15 -8 -21 -19 -19 -39 3 -41 26
-72 83 -113 54 -38 64 -35 57 19 -2 16 -5 59 -6 97 -2 37 -7 67 -10 67 -4 0
-13 2 -21 5 -7 3 -24 -2 -38 -10z"/>
<path d="M640 4070 c0 -5 5 -10 11 -10 5 0 7 5 4 10 -3 6 -8 10 -11 10 -2 0
-4 -4 -4 -10z"/>
<path d="M6260 4045 c0 -8 4 -15 9 -15 5 0 11 7 15 15 3 9 0 15 -9 15 -8 0
-15 -7 -15 -15z"/>
<path d="M4060 4019 c0 -5 5 -7 10 -4 6 3 10 8 10 11 0 2 -4 4 -10 4 -5 0 -10
-5 -10 -11z"/>
<path d="M4090 3980 c-8 -5 -12 -12 -9 -15 4 -3 12 1 19 10 14 17 11 19 -10 5z"/>
<path d="M6376 3701 c-12 -13 -14 -21 -6 -26 9 -6 50 28 50 42 0 11 -29 0 -44
-16z"/>
<path d="M6436 3703 c-6 -14 -5 -15 5 -6 7 7 10 15 7 18 -3 3 -9 -2 -12 -12z"/>
<path d="M4020 3615 c-10 -12 -10 -15 4 -15 9 0 16 7 16 15 0 8 -2 15 -4 15
-2 0 -9 -7 -16 -15z"/>
<path d="M3986 3571 c-4 -7 -5 -15 -2 -18 9 -9 19 4 14 18 -4 11 -6 11 -12 0z"/>
<path d="M9490 3520 c-27 -53 -27 -82 1 -78 27 4 57 43 65 86 6 29 4 32 -20
32 -20 0 -30 -9 -46 -40z"/>
<path d="M9790 3499 c-62 -68 -68 -87 -33 -115 15 -13 32 -22 37 -21 12 4 48
135 44 163 -3 20 -8 17 -48 -27z"/>
<path d="M9605 3268 c-21 -24 -46 -63 -57 -88 -65 -148 -91 -191 -128 -216
-44 -29 -67 -90 -57 -151 5 -30 0 -48 -28 -99 -40 -71 -47 -111 -17 -95 11 6
48 43 83 84 54 61 67 83 78 130 8 39 20 63 38 77 33 25 35 25 71 -5 17 -14 34
-25 39 -25 16 0 75 108 80 147 3 24 -5 70 -21 127 -14 48 -26 101 -26 117 0
44 -15 43 -55 -3z"/>
<path d="M6680 3170 c0 -5 5 -10 10 -10 6 0 10 5 10 10 0 6 -4 10 -10 10 -5 0
-10 -4 -10 -10z"/>
<path d="M3985 3130 c-3 -5 -1 -10 4 -10 6 0 11 5 11 10 0 6 -2 10 -4 10 -3 0
-8 -4 -11 -10z"/>
<path d="M585 3010 c3 -25 10 -46 15 -48 6 -2 10 -18 10 -37 0 -20 21 -73 53
-136 60 -118 103 -255 85 -276 -14 -17 -50 -16 -95 2 -20 8 -38 13 -40 11 -10
-10 88 -138 152 -197 80 -74 104 -91 210 -149 68 -37 121 -76 195 -143 28 -26
59 -52 69 -59 9 -7 31 -33 48 -58 17 -25 40 -55 51 -66 12 -12 18 -24 15 -28
-3 -3 0 -12 6 -20 7 -8 10 -20 6 -25 -6 -11 18 -41 46 -57 9 -5 38 -28 65 -51
120 -104 159 -133 198 -151 55 -26 107 -35 103 -19 -1 6 3 11 10 10 12 -3 -22
66 -38 77 -5 3 -15 19 -23 35 -14 26 -14 30 2 40 17 12 65 12 130 0 43 -8 41
6 -8 51 -22 21 -40 43 -40 50 0 7 13 21 30 30 36 22 40 31 33 83 l-6 41 -53 0
c-89 0 -61 15 33 18 114 3 155 28 115 70 -7 8 -10 17 -8 21 9 13 -54 33 -82
25 -15 -4 -38 -7 -52 -6 -53 2 -216 21 -240 27 -117 32 -159 51 -224 103 -37
31 -71 63 -74 72 -3 8 -14 21 -24 28 -19 14 -24 38 -9 44 6 2 5 20 -2 46 -9
35 -22 51 -69 85 -32 23 -58 49 -58 57 0 16 -7 21 -87 57 -75 35 -78 38 -75
67 2 18 -1 26 -12 26 -8 0 -20 9 -26 20 -6 11 -20 20 -30 20 -11 0 -20 4 -20
8 0 5 -16 17 -35 28 -19 10 -35 26 -35 35 0 10 -6 20 -12 22 -7 3 -1 6 15 6
30 1 34 12 12 35 -8 8 -15 18 -15 23 0 4 -9 14 -21 21 -17 11 -20 20 -15 45 5
28 2 34 -24 49 -16 9 -30 12 -32 7 -4 -12 -105 38 -118 59 -9 13 -10 7 -5 -28z
m145 -75 c-12 -15 -30 -12 -30 6 0 5 10 9 21 9 18 0 19 -2 9 -15z m650 -898
c51 -20 108 -37 128 -37 13 0 47 -6 75 -14 29 -8 68 -17 87 -20 19 -4 44 -13
55 -22 17 -13 18 -16 5 -24 -8 -5 -29 -9 -46 -8 -17 1 -36 -2 -42 -6 -6 -3
-21 -2 -34 3 -13 5 -50 17 -83 27 -74 21 -111 39 -144 70 -14 13 -31 24 -38
24 -6 0 -14 4 -17 8 -5 9 31 8 54 -1z"/>
<path d="M3870 2779 c0 -11 5 -17 10 -14 6 3 10 13 10 21 0 8 -4 14 -10 14 -5
0 -10 -9 -10 -21z"/>
<path d="M1750 2551 c0 -19 12 -41 24 -41 6 0 21 -11 34 -25 13 -13 30 -21 38
-18 9 3 14 -1 14 -12 0 -29 56 -89 96 -104 21 -8 44 -20 52 -27 7 -8 25 -17
40 -21 15 -3 33 -12 40 -20 7 -7 20 -13 27 -13 7 0 20 -7 28 -15 8 -7 27 -17
42 -21 l27 -7 -39 63 c-44 68 -139 170 -159 170 -7 0 -16 -5 -20 -11 -11 -19
-124 1 -124 22 0 5 -9 9 -19 9 -11 0 -38 18 -60 40 -23 23 -41 36 -41 31z"/>
<path d="M9496 2523 c-46 -55 -112 -71 -161 -39 -23 15 -26 13 -111 -64 -118
-106 -140 -145 -81 -145 31 0 32 -2 35 -43 2 -24 -1 -63 -6 -88 -8 -38 -7 -45
11 -57 15 -10 20 -23 19 -52 -1 -21 -6 -41 -12 -45 -5 -3 -27 -29 -49 -58 -45
-61 -67 -79 -138 -114 l-52 -26 25 -22 c13 -13 24 -32 24 -42 0 -10 4 -18 8
-18 18 0 44 40 39 59 -3 12 6 32 25 55 27 33 53 44 116 49 12 1 24 9 27 18 3
9 36 68 73 130 79 134 120 217 128 259 4 16 10 30 14 30 8 0 19 19 77 135 56
110 50 152 -11 78z m-76 -154 c0 -50 -15 -79 -37 -72 -6 2 -13 -4 -16 -14 -3
-11 -5 -7 -6 12 l-2 30 -12 -25 c-11 -24 -11 -24 -15 14 -4 47 5 89 18 81 6
-3 7 1 4 9 -5 13 1 16 30 16 l36 0 0 -51z"/>
<path d="M1813 2373 c-15 -5 -17 -44 -5 -58 5 -6 14 -28 20 -50 35 -127 36
-128 75 -148 20 -10 37 -23 37 -28 0 -5 6 -9 13 -9 9 0 13 22 12 84 0 73 -3
87 -22 108 -13 14 -23 32 -23 42 0 36 -68 74 -107 59z"/>
<path d="M1288 2313 c7 -3 16 -2 19 1 4 3 -2 6 -13 5 -11 0 -14 -3 -6 -6z"/>
<path d="M1980 2150 c0 -5 5 -10 10 -10 6 0 10 5 10 10 0 6 -4 10 -10 10 -5 0
-10 -4 -10 -10z"/>
<path d="M1096 1861 c-10 -15 18 -30 74 -41 63 -12 60 -12 60 -2 0 19 -125 59
-134 43z"/>
<path d="M1250 1612 c0 -8 71 -115 90 -135 4 -5 22 -1 40 8 27 14 31 20 25 43
-7 27 -31 51 -53 52 -7 0 -23 6 -35 14 -30 19 -67 29 -67 18z"/>
<path d="M8779 1424 c-41 -43 -85 -88 -98 -100 -31 -31 -17 -30 84 2 112 35
135 46 135 66 0 10 7 18 15 18 12 0 9 7 -10 27 -14 15 -25 36 -25 45 0 33 -26
18 -101 -58z"/>
<path d="M8515 843 c-27 -6 -72 -22 -115 -41 -31 -13 -32 -16 -15 -23 11 -4
46 -8 78 -8 53 -1 62 2 88 30 16 17 29 35 29 40 0 9 -29 10 -65 2z"/>
<path d="M285 390 c-3 -5 3 -10 14 -10 12 0 21 5 21 10 0 6 -6 10 -14 10 -8 0
-18 -4 -21 -10z"/>
<path d="M228 373 c-10 -2 -18 -8 -18 -12 0 -13 189 -61 242 -61 29 0 70 -5
92 -11 31 -9 41 -8 53 4 28 28 6 39 -63 32 -45 -5 -64 -4 -64 4 0 6 -7 11 -15
11 -9 0 -18 7 -21 15 -5 11 -11 12 -26 4 -13 -7 -29 -7 -46 -1 -15 5 -42 7
-60 4 -20 -2 -32 0 -32 7 0 11 -11 12 -42 4z"/>
<path d="M9951 322 l-32 -15 35 -35 c27 -27 38 -33 48 -24 7 6 33 12 58 14 35
2 47 8 56 27 7 13 10 29 8 35 -7 18 -135 17 -173 -2z"/>
<path d="M53 323 c9 -2 23 -2 30 0 6 3 -1 5 -18 5 -16 0 -22 -2 -12 -5z"/>
<path d="M837 296 c-7 -18 1 -26 25 -26 22 0 24 26 2 34 -21 8 -21 8 -27 -8z"/>
<path d="M1291 291 c-8 -15 -7 -20 5 -25 21 -8 34 1 34 25 0 24 -26 25 -39 0z"/>
<path d="M10198 283 c-27 -4 -56 -29 -46 -39 3 -3 24 -7 47 -9 40 -4 41 -3 41
26 0 16 -3 28 -7 28 -5 -1 -20 -4 -35 -6z"/>
<path d="M0 268 c0 -9 89 -38 117 -38 13 0 23 -4 23 -9 0 -5 34 -9 75 -10 41
-1 85 -5 97 -10 42 -16 113 -35 126 -32 6 1 12 -3 12 -9 0 -5 7 -10 15 -10 8
0 15 7 15 15 0 9 -9 15 -25 15 -14 0 -25 5 -25 11 0 5 -4 7 -10 4 -5 -3 -17
-2 -27 3 -13 8 -8 11 25 17 68 11 129 8 183 -10 41 -14 71 -16 148 -11 134 9
133 9 161 1 19 -5 22 -4 10 4 -12 9 -11 11 8 11 12 0 22 -3 22 -7 0 -5 11 -13
25 -20 22 -10 25 -9 25 9 0 18 4 19 38 12 20 -4 53 -6 72 -5 19 1 44 1 55 1
11 -1 36 -1 55 -1 19 0 41 -6 50 -13 10 -9 55 -14 148 -15 72 -1 132 0 132 2
0 7 -102 39 -107 33 -3 -3 -17 0 -32 6 -80 32 -147 37 -411 32 -146 -3 -350 0
-455 6 -104 5 -251 12 -325 15 -74 3 -154 6 -178 8 -23 1 -42 -1 -42 -5z"/>
<path d="M9375 263 c-10 -3 -29 -12 -41 -19 -15 -10 -34 -13 -63 -8 -28 4 -41
3 -41 -5 0 -6 -9 -11 -21 -11 -11 0 -17 -4 -14 -10 9 -15 59 -12 175 10 58 11
126 20 152 20 38 0 46 3 42 15 -5 12 -24 15 -88 14 -44 -1 -90 -4 -101 -6z"/>
<path d="M9100 211 l-25 -7 23 -6 c28 -8 54 0 46 13 -6 10 -8 10 -44 0z"/>
<path d="M9775 195 c-47 -23 -57 -24 -167 -18 -100 5 -121 4 -143 -11 -15 -10
-34 -14 -46 -11 -20 7 -52 -11 -44 -24 2 -4 30 -6 61 -3 45 4 55 2 49 -8 -6
-10 -4 -11 6 -4 18 12 182 36 235 34 27 0 48 5 58 16 9 9 35 18 58 22 37 5 39
6 23 19 -25 18 -32 17 -90 -12z"/>
<path d="M18 198 c5 -5 16 -8 23 -6 8 3 3 7 -10 11 -17 4 -21 3 -13 -5z"/>
<path d="M8931 201 c-11 -7 -10 -11 5 -19 18 -10 68 1 89 19 12 12 -76 11 -94
0z"/>
<path d="M8830 190 c0 -5 7 -10 15 -10 8 0 15 5 15 10 0 6 -7 10 -15 10 -8 0
-15 -4 -15 -10z"/>
<path d="M2508 183 c7 -3 16 -2 19 1 4 3 -2 6 -13 5 -11 0 -14 -3 -6 -6z"/>
<path d="M8145 180 c-3 -5 3 -10 14 -10 12 0 21 5 21 10 0 6 -6 10 -14 10 -8
0 -18 -4 -21 -10z"/>
<path d="M1655 171 c-26 -6 -23 -8 25 -13 62 -7 113 0 104 13 -6 10 -84 10
-129 0z"/>
<path d="M551 166 c2 -2 18 -6 34 -10 22 -5 26 -4 15 4 -14 9 -59 15 -49 6z"/>
<path d="M700 160 c-13 -9 -13 -10 0 -9 8 0 24 4 35 9 l20 9 -20 0 c-11 0 -27
-4 -35 -9z"/>
<path d="M768 163 c7 -3 16 -2 19 1 4 3 -2 6 -13 5 -11 0 -14 -3 -6 -6z"/>
<path d="M8055 140 c3 -5 8 -10 11 -10 2 0 4 5 4 10 0 6 -5 10 -11 10 -5 0 -7
-4 -4 -10z"/>
<path d="M8870 139 c-94 -18 -227 -25 -300 -14 -32 4 -33 4 -10 -6 80 -35 85
-36 110 -26 14 5 53 11 88 12 34 1 65 5 69 8 12 13 125 7 156 -7 18 -8 39 -17
47 -19 8 -3 2 -7 -15 -8 -16 -2 8 -5 55 -8 47 -3 102 -3 122 0 21 3 40 4 43 0
8 -8 66 -11 88 -5 41 12 10 20 -85 22 -205 4 -221 6 -252 35 -30 28 -44 30
-116 16z"/>
<path d="M9230 120 c0 -5 7 -7 15 -4 8 4 15 8 15 10 0 2 -7 4 -15 4 -8 0 -15
-4 -15 -10z"/>
<path d="M8390 110 c-12 -8 -9 -10 13 -10 15 0 27 5 27 10 0 13 -20 13 -40 0z"/>
<path d="M2470 100 c20 -13 33 -13 25 0 -3 6 -14 10 -23 10 -15 0 -15 -2 -2
-10z"/>
<path d="M7628 103 c6 -2 18 -2 25 0 6 3 1 5 -13 5 -14 0 -19 -2 -12 -5z"/>
<path d="M7690 100 c8 -5 30 -10 49 -10 45 0 37 6 -19 14 -31 4 -40 3 -30 -4z"/>
<path d="M8288 103 c7 -3 16 -2 19 1 4 3 -2 6 -13 5 -11 0 -14 -3 -6 -6z"/>
<path d="M7355 90 c3 -5 14 -10 23 -10 15 0 15 2 2 10 -20 13 -33 13 -25 0z"/>
<path d="M9435 90 c-11 -5 -32 -9 -47 -9 -47 -1 -31 -21 17 -21 25 0 45 -4 45
-10 0 -6 -42 -9 -107 -7 -60 1 -129 -2 -155 -6 -31 -5 -48 -4 -48 3 0 5 -5 10
-11 10 -5 0 -7 -4 -4 -10 4 -6 -13 -10 -42 -11 -26 0 -73 -4 -103 -8 -30 -5
-56 -7 -58 -6 -2 1 11 11 28 22 l31 20 -43 -3 c-24 -1 -61 -5 -83 -8 -22 -4
-34 -3 -26 0 11 5 11 8 0 16 -10 6 -1 8 26 7 67 -4 126 1 121 9 -7 12 -282 6
-566 -13 -36 -2 -68 -4 -72 -5 -15 0 -8 -19 10 -22 26 -6 -109 -24 -138 -19
-24 5 -24 6 -2 9 20 3 21 5 6 20 -15 14 -17 14 -26 -1 -6 -12 -21 -17 -46 -16
-25 1 -30 3 -13 6 l23 5 -21 14 c-12 9 -24 13 -29 11 -10 -7 -205 -19 -277
-18 -43 1 -56 -1 -45 -9 13 -8 12 -10 -3 -10 -12 0 -16 -4 -11 -12 5 -9 2 -8
-9 1 -10 8 -20 11 -24 7 -3 -3 0 -6 8 -6 11 0 11 -2 -1 -10 -10 -6 96 -10 308
-10 208 0 322 4 322 10 0 6 7 10 15 10 8 0 15 -4 15 -9 0 -12 1341 -14 1371
-1 l24 11 -24 -5 c-13 -3 -34 0 -48 5 -14 5 -29 6 -34 3 -15 -9 -169 -11 -169
-2 0 4 -6 5 -14 2 -21 -8 -29 27 -9 41 32 23 -19 43 -62 25z m-920 -40 c11 -5
16 -9 10 -9 -5 -1 -3 -6 5 -11 11 -8 5 -10 -25 -9 -22 1 -51 4 -64 7 -24 5
-24 5 5 18 34 15 43 15 69 4z m205 0 c0 -5 -17 -10 -37 -10 -35 0 -36 -1 -17
-16 17 -14 17 -15 1 -10 -10 3 -25 6 -33 6 -9 0 -13 4 -9 9 3 5 -8 9 -25 9
-17 -1 -35 3 -40 8 -6 6 24 10 75 12 54 2 85 -1 85 -8z m-643 -6 c-3 -3 -12
-4 -19 -1 -8 3 -5 6 6 6 11 1 17 -2 13 -5z m-173 -26 c-7 -11 -91 -10 -98 1
-3 4 19 8 49 7 29 0 51 -4 49 -8z m996 2 c0 -5 -4 -10 -9 -10 -6 0 -13 5 -16
10 -3 6 1 10 9 10 9 0 16 -4 16 -10z m-463 -6 c-3 -3 -12 -4 -19 -1 -8 3 -5 6
6 6 11 1 17 -2 13 -5z m416 -1 c-7 -2 -19 -2 -25 0 -7 3 -2 5 12 5 14 0 19 -2
13 -5z"/>
<path d="M9597 86 c-21 -8 -41 -16 -44 -19 -7 -8 68 -18 157 -21 41 -2 77 -5
80 -6 3 -1 64 -1 135 -1 118 1 128 0 105 -13 -14 -8 -26 -10 -28 -5 -5 13 -41
11 -87 -6 -37 -13 -29 -14 143 -15 161 0 182 2 182 16 0 11 -6 15 -20 11 -11
-3 -20 -1 -20 4 0 5 9 9 20 9 16 0 20 7 20 31 0 31 -1 31 -37 25 -90 -16 -196
-25 -245 -21 -29 2 -108 7 -176 10 -68 3 -129 8 -135 10 -7 2 -29 -2 -50 -9z
m509 -61 c20 -15 13 -18 -23 -9 -13 4 -23 10 -23 15 0 14 24 11 46 -6z"/>
<path d="M2350 80 c0 -5 7 -7 15 -4 8 4 15 8 15 10 0 2 -7 4 -15 4 -8 0 -15
-4 -15 -10z"/>
<path d="M8257 47 c-3 -9 5 -12 32 -8 30 3 32 5 16 12 -30 11 -42 10 -48 -4z"/>
<path d="M7568 3 c7 -3 16 -2 19 1 4 3 -2 6 -13 5 -11 0 -14 -3 -6 -6z"/>
<path d="M9813 3 c9 -2 25 -2 35 0 9 3 1 5 -18 5 -19 0 -27 -2 -17 -5z"/>
</g>
</svg>
