<?xml version="1.0" standalone="no"?>
<!DOCTYPE svg PUBLIC "-//W3C//DTD SVG 20010904//EN"
 "http://www.w3.org/TR/2001/REC-SVG-20010904/DTD/svg10.dtd">
<svg version="1.0" xmlns="http://www.w3.org/2000/svg"
 width="3000.000000pt" height="2000.000000pt" viewBox="0 0 3000.000000 2000.000000"
 preserveAspectRatio="xMidYMid meet">

<g transform="translate(0.000000,2000.000000) scale(0.100000,-0.100000)"
fill="#000000" stroke="none">
<path d="M0 10000 l0 -10000 15000 0 15000 0 0 10000 0 10000 -15000 0 -15000
0 0 -10000z m15057 8643 c60 -117 780 -1424 869 -1578 13 -22 47 -82 75 -133
36 -62 55 -88 61 -80 5 9 8 6 8 -10 0 -13 4 -20 10 -17 6 3 13 0 16 -8 3 -9
17 -18 31 -22 19 -4 24 -11 20 -25 -3 -10 -2 -20 2 -22 4 -2 27 -32 51 -68 24
-36 46 -67 50 -70 3 -3 16 -19 28 -37 12 -17 31 -35 42 -38 11 -4 20 -15 20
-26 0 -11 14 -33 30 -49 17 -16 30 -32 30 -35 0 -12 36 -43 55 -47 15 -3 20
-11 18 -31 -1 -15 2 -25 6 -22 12 7 44 -32 36 -44 -3 -6 7 -30 24 -54 17 -23
33 -56 37 -74 4 -19 14 -35 26 -39 13 -4 17 -11 13 -25 -4 -11 -4 -43 0 -70 6
-41 12 -52 31 -59 26 -10 31 -25 13 -36 -7 -4 -1 -17 16 -34 22 -23 26 -34 21
-55 -6 -25 9 -74 64 -200 4 -11 19 -47 32 -80 12 -33 27 -63 33 -67 7 -5 6
-11 -2 -16 -8 -5 -9 -13 -3 -22 7 -11 10 -12 10 -2 0 24 18 2 25 -31 4 -17 23
-49 41 -70 55 -60 46 -72 -23 -32 l-43 26 -173 -102 c-94 -56 -173 -106 -175
-111 -2 -4 -7 -8 -12 -8 -4 0 -37 -18 -71 -40 -35 -21 -89 -54 -119 -72 -30
-18 -59 -36 -65 -40 -5 -5 -35 -24 -65 -42 -320 -193 -946 -585 -1025 -642
-41 -30 -81 -54 -88 -54 -8 0 -24 11 -37 26 -19 19 -22 27 -11 33 7 5 9 11 4
14 -5 3 -10 130 -12 288 -1 155 -4 287 -8 292 -3 5 -9 66 -14 136 -9 132 -25
288 -34 331 -11 51 -27 145 -27 160 0 21 -25 96 -44 132 -18 34 -54 77 -54 64
0 -5 -7 -3 -15 4 -8 7 -15 28 -15 46 0 19 -5 34 -10 34 -6 0 -9 3 -8 8 3 14
-14 42 -22 37 -5 -3 -12 0 -16 6 -4 8 -3 9 4 5 20 -12 13 12 -8 27 -15 10 -22
32 -29 97 -5 49 -14 86 -23 91 -11 7 -10 11 2 19 11 7 12 12 3 18 -35 23 -50
135 -54 423 -2 139 2 164 27 155 8 -3 19 4 26 17 14 26 28 118 16 111 -4 -3
-8 12 -8 33 0 41 23 83 45 83 7 0 21 7 30 16 13 13 14 19 4 25 -9 5 -4 16 19
37 37 35 39 42 13 42 -22 0 -34 23 -19 38 14 14 38 4 38 -17 0 -10 7 -6 20 14
11 17 18 36 15 43 -3 7 1 25 9 40 9 19 11 44 6 87 -6 44 -4 66 6 82 8 12 11
30 7 39 -4 11 -2 15 4 11 19 -12 22 45 17 294 -10 454 -9 438 -26 456 -15 15
-18 13 -32 -22 -9 -21 -16 -54 -17 -74 0 -26 -2 -31 -8 -17 -6 15 -11 10 -26
-30 -10 -27 -18 -57 -18 -66 1 -10 -11 -27 -27 -38 -16 -11 -32 -31 -35 -43
-14 -47 -30 -77 -42 -77 -8 0 -13 -13 -13 -30 0 -20 -5 -30 -15 -30 -8 0 -15
-7 -15 -15 0 -25 -34 -86 -45 -81 -7 2 -11 -5 -10 -17 2 -12 -10 -45 -26 -73
-16 -28 -29 -59 -29 -68 0 -9 -6 -19 -14 -22 -8 -3 -18 -19 -21 -35 -4 -16
-11 -29 -16 -29 -5 0 -9 -7 -9 -15 0 -8 -9 -24 -19 -34 -11 -11 -17 -22 -13
-25 3 -3 1 -6 -5 -6 -6 0 -14 -17 -18 -37 -4 -21 -10 -40 -13 -43 -12 -9 -52
-88 -52 -102 0 -7 -10 -31 -22 -53 -20 -37 -22 -54 -22 -222 -1 -101 -4 -183
-8 -183 -5 0 -8 -18 -8 -40 0 -36 -2 -40 -25 -40 -23 0 -25 -4 -25 -46 0 -25
-5 -55 -12 -67 -6 -12 -13 -39 -14 -62 -2 -24 -11 -46 -22 -55 -12 -10 -26
-46 -36 -93 -10 -43 -23 -77 -29 -77 -15 0 -61 -66 -53 -78 7 -12 -32 -74 -43
-67 -5 3 -13 0 -17 -6 -5 -8 -3 -9 6 -4 16 10 12 0 -20 -47 -14 -21 -28 -38
-32 -38 -12 0 -48 -38 -48 -50 0 -5 -5 -10 -11 -10 -5 0 -7 -4 -4 -10 3 -5 1
-10 -5 -10 -6 0 -9 -4 -5 -9 3 -5 -8 -18 -25 -27 -16 -10 -31 -22 -31 -26 -1
-4 -2 -12 -3 -18 -2 -13 -21 -31 -37 -34 -42 -9 -83 -41 -73 -58 2 -3 -6 -10
-18 -13 -45 -13 -78 -30 -78 -40 0 -5 -4 -3 -10 5 -7 11 -11 9 -19 -12 -11
-30 -50 -57 -52 -36 0 7 -5 1 -10 -14 -7 -17 -15 -25 -24 -21 -8 3 -21 -1 -28
-9 -22 -22 -87 -120 -87 -131 0 -6 -10 -22 -22 -35 -21 -23 -21 -25 -4 -18 18
6 19 5 4 -11 -8 -10 -13 -24 -11 -31 5 -12 -37 4 -99 38 -10 5 -23 8 -30 6 -7
-1 -10 -1 -6 1 5 3 5 16 2 29 -4 14 0 34 9 48 14 21 14 25 0 39 -20 20 -9 37
24 37 15 0 23 3 20 7 -4 3 0 14 9 24 9 10 17 29 18 43 0 14 5 26 9 26 5 0 7
12 5 27 -2 19 3 30 17 38 11 5 22 19 23 30 2 11 13 37 23 57 12 24 17 47 13
63 -5 19 -2 25 9 25 18 0 62 132 53 156 -8 22 -7 29 5 29 18 0 61 115 55 146
-4 22 -1 29 14 34 11 4 20 11 20 17 0 6 12 27 27 46 16 21 27 49 27 69 1 25 5
32 17 28 17 -6 108 73 110 95 1 5 3 15 4 20 1 6 3 14 4 18 0 4 14 16 31 25 25
15 85 98 85 118 0 4 12 19 28 34 15 15 36 43 48 61 11 19 25 34 30 34 4 0 6 6
4 13 -7 19 8 36 35 39 24 3 51 34 80 93 8 17 22 41 31 55 14 22 162 284 237
420 13 25 32 59 42 75 18 30 51 89 102 180 15 28 45 84 68 125 22 41 54 100
71 130 61 108 143 256 172 310 16 30 32 60 37 65 4 6 36 64 70 130 35 66 68
127 74 135 6 8 25 43 41 77 17 34 31 62 31 63 1 0 11 -17 21 -37z m-337 -1663
c0 -19 -20 -27 -33 -13 -8 7 11 33 24 33 5 0 9 -9 9 -20z m-1532 -1668 c7 -5
14 -18 17 -30 3 -19 2 -20 -23 -9 -27 12 -42 25 -42 40 0 9 32 9 48 -1z m3522
-280 c0 -4 -4 -12 -9 -17 -5 -6 -38 -64 -74 -130 -35 -66 -79 -147 -97 -180
-80 -147 -201 -391 -211 -428 -6 -22 -21 -64 -35 -93 -13 -29 -24 -57 -24 -62
0 -5 -11 -35 -25 -66 -14 -31 -25 -57 -24 -59 0 -1 -5 -15 -11 -31 -6 -16 -9
-35 -6 -42 3 -7 0 -15 -7 -18 -8 -3 -6 -5 3 -5 8 -1 44 13 78 29 35 17 69 27
74 23 7 -4 8 -1 3 7 -5 8 -3 11 4 9 20 -7 14 -24 -11 -31 -13 -3 -19 -6 -13
-7 5 -1 -30 -27 -77 -58 -65 -42 -85 -60 -77 -69 7 -9 5 -15 -8 -23 -10 -6
-15 -11 -11 -11 9 0 -20 -108 -36 -134 -8 -11 -16 -33 -20 -47 -6 -26 -5 -26
71 -33 42 -3 114 -6 160 -6 45 0 83 -4 83 -8 0 -9 -170 -22 -295 -22 -69 0
-70 -1 -85 -33 -8 -17 -21 -31 -29 -29 -8 2 -11 -3 -8 -12 3 -8 -11 -32 -34
-57 -21 -23 -39 -46 -39 -51 0 -4 -4 -8 -10 -8 -5 0 -10 -6 -10 -13 0 -13 -21
-44 -51 -77 -9 -10 -14 -22 -10 -27 3 -5 39 -28 79 -52 39 -24 72 -45 72 -47
0 -2 -9 -8 -19 -14 -15 -8 -32 -3 -81 25 -34 19 -67 35 -73 35 -22 -1 -52 -35
-66 -75 -8 -22 -17 -42 -20 -45 -12 -10 -51 -69 -51 -78 0 -4 48 -37 108 -72
59 -35 123 -73 142 -85 20 -12 55 -32 78 -44 l42 -22 158 90 c385 219 447 251
459 246 8 -2 11 -10 8 -16 -4 -6 -14 -8 -22 -5 -8 3 -12 2 -9 -3 3 -5 -27 -28
-67 -52 -39 -23 -103 -61 -142 -84 -38 -23 -126 -75 -195 -115 -69 -40 -139
-81 -157 -92 -32 -19 -32 -19 -73 2 -23 12 -65 37 -95 56 -30 18 -56 34 -57
34 -2 0 -49 25 -103 55 -100 55 -122 64 -110 45 3 -5 -1 -10 -10 -10 -9 0 -14
-4 -11 -9 3 -5 -1 -14 -9 -21 -8 -7 -15 -21 -15 -31 0 -11 -4 -19 -10 -19 -5
0 -10 -5 -10 -10 0 -9 -47 -87 -60 -100 -14 -14 -30 -52 -25 -60 4 -6 -2 -7
-12 -3 -26 9 22 -28 79 -61 l48 -28 387 61 c214 34 404 64 424 67 29 5 47 0
88 -24 l53 -30 131 76 c121 68 248 139 385 213 29 16 58 28 65 26 6 -1 11 3
10 10 -2 8 4 10 14 6 10 -4 14 -2 10 4 -9 14 18 24 39 16 10 -4 -4 -16 -48
-40 -35 -20 -64 -39 -66 -44 -2 -5 -8 -9 -13 -9 -11 0 -481 -281 -477 -285 2
-2 64 -38 138 -81 l134 -77 31 18 c226 131 517 285 526 279 7 -4 9 -3 5 4 -10
16 31 35 51 24 13 -8 2 -18 -58 -52 -41 -23 -109 -63 -152 -88 -42 -26 -138
-83 -212 -127 -74 -44 -135 -82 -135 -85 0 -6 169 -101 213 -121 23 -11 32
-10 55 3 15 9 113 63 217 121 105 58 228 126 275 152 47 26 109 61 138 77 29
16 59 27 65 24 7 -2 4 -5 -5 -5 -9 -1 -20 -5 -23 -11 -4 -6 1 -7 12 -3 26 9
14 -1 -32 -28 -22 -13 -60 -36 -85 -52 -25 -15 -148 -89 -273 -164 -164 -98
-225 -138 -215 -145 9 -7 7 -8 -7 -4 -11 3 -26 2 -34 -3 -26 -16 122 -83 182
-82 9 0 15 -4 13 -8 -3 -4 7 -7 22 -7 16 1 26 -4 24 -11 -2 -15 15 -18 20 -3
2 6 19 4 43 -5 22 -8 50 -14 63 -15 13 0 20 -4 17 -10 -3 -5 18 2 47 17 67 33
422 228 453 249 13 9 30 12 36 8 7 -4 9 -3 6 2 -3 5 20 23 51 39 31 16 66 37
76 45 11 9 16 10 12 3 -4 -7 -2 -13 4 -13 6 0 13 6 16 14 3 8 17 22 31 31 31
21 78 30 68 15 -4 -6 -13 -9 -21 -6 -8 3 -14 1 -14 -4 0 -6 -8 -10 -17 -10
-16 0 -16 -2 -3 -11 12 -8 10 -9 -9 -4 -14 4 -21 3 -18 -2 8 -13 -82 -69 -102
-65 -9 2 -13 1 -9 -4 8 -7 -30 -32 -331 -214 -105 -63 -188 -116 -186 -118 2
-2 13 2 25 8 14 7 20 8 16 1 -7 -11 43 -41 69 -41 8 0 15 -4 15 -10 0 -5 7
-10 16 -10 9 0 32 -7 52 -16 21 -9 46 -20 57 -24 67 -28 108 -46 170 -75 193
-90 225 -105 234 -105 5 0 14 -7 21 -15 7 -9 19 -14 25 -11 7 2 17 0 22 -5 8
-8 124 43 193 85 95 59 323 175 332 170 6 -4 8 -3 5 2 -9 15 75 62 98 54 13
-4 15 -9 7 -14 -7 -4 -17 -4 -24 0 -7 5 -8 3 -3 -6 5 -9 2 -10 -14 -5 -12 3
-20 3 -19 -2 2 -4 -1 -9 -7 -11 -5 -2 -14 -10 -18 -18 -4 -8 -14 -14 -22 -14
-7 0 -15 -4 -17 -8 -1 -4 -95 -64 -208 -132 -190 -115 -264 -165 -218 -148 9
4 22 0 28 -8 7 -8 17 -14 22 -14 6 0 22 -8 36 -18 15 -10 52 -29 82 -42 30
-13 66 -32 80 -41 14 -9 42 -26 64 -37 l39 -21 86 44 c83 43 149 79 315 171
43 24 83 41 89 37 6 -3 7 -1 3 5 -4 7 -2 12 3 12 6 0 11 -6 11 -13 0 -17 -81
-69 -98 -62 -7 2 -11 1 -7 -4 5 -9 -29 -33 -88 -64 -77 -40 -226 -143 -231
-160 -2 -10 -2 -16 1 -13 7 7 194 -89 203 -104 12 -20 52 -19 94 1 67 34 278
150 318 175 45 29 48 29 48 6 0 -11 -10 -24 -22 -31 -28 -15 -33 -18 -193
-115 -72 -43 -137 -85 -145 -92 -12 -12 -12 -14 6 -14 11 0 24 -4 30 -9 9 -8
82 -51 136 -78 38 -20 40 -25 23 -73 -16 -46 -18 -57 -9 -48 3 4 13 0 22 -8 9
-8 35 -30 58 -49 l41 -35 114 60 c109 57 180 79 147 46 -8 -8 -48 -35 -89 -61
-113 -72 -114 -73 -83 -101 14 -13 28 -24 32 -24 5 0 24 -15 43 -32 20 -18 57
-51 84 -73 26 -22 51 -51 56 -63 5 -13 18 -26 29 -29 23 -6 26 -19 8 -26 -8
-3 -6 -6 5 -6 9 -1 17 -5 17 -11 0 -5 -8 -7 -17 -4 -17 5 -17 5 -1 -6 15 -9
46 3 176 69 181 91 236 97 100 11 -46 -29 -109 -69 -140 -89 -32 -20 -58 -40
-58 -44 0 -5 4 -6 9 -3 5 4 11 2 13 -2 1 -4 66 -46 142 -91 107 -64 144 -81
156 -74 8 6 68 38 133 72 99 52 115 58 106 39 -10 -22 -30 -37 -146 -108 -29
-17 -53 -35 -53 -38 0 -4 69 -46 152 -95 l151 -87 44 25 c24 14 48 23 55 19 6
-4 8 -3 5 3 -8 13 38 34 59 26 11 -4 5 -11 -25 -28 -51 -30 -90 -58 -91 -67 0
-4 61 -42 135 -85 74 -43 135 -81 135 -84 0 -4 -47 -107 -105 -229 -58 -121
-105 -223 -105 -224 0 -2 -19 -44 -41 -93 -39 -82 -244 -530 -364 -793 -29
-63 -65 -142 -80 -175 -40 -87 -77 -169 -162 -355 -76 -167 -173 -379 -220
-480 -14 -30 -70 -152 -123 -270 -54 -118 -111 -244 -128 -280 -17 -36 -37
-81 -45 -100 -9 -19 -69 -152 -135 -295 l-119 -260 -49 -8 c-92 -16 -1139
-178 -1339 -207 -110 -16 -210 -32 -222 -35 -12 -3 -95 -16 -185 -29 -90 -14
-237 -37 -328 -51 -196 -31 -329 -52 -425 -65 -38 -6 -108 -17 -155 -25 -47
-8 -132 -21 -190 -30 -58 -8 -145 -21 -195 -29 -279 -44 -697 -109 -810 -126
-71 -11 -258 -39 -415 -64 -157 -24 -361 -56 -455 -71 -93 -14 -210 -32 -260
-40 -49 -8 -178 -28 -285 -45 -107 -17 -276 -44 -375 -60 -99 -16 -241 -38
-316 -50 l-135 -21 -100 57 c-54 31 -142 82 -194 112 -52 30 -124 72 -160 92
-36 20 -126 72 -200 115 -164 95 -868 496 -965 550 -38 22 -83 47 -100 56 -16
9 -49 26 -71 37 -23 11 -45 25 -48 31 -4 6 -16 11 -27 11 -10 0 -19 4 -19 9 0
5 -17 16 -37 25 -44 19 -96 48 -118 66 -8 7 -21 10 -29 7 -10 -4 -13 -1 -9 9
3 7 0 14 -7 14 -7 0 -51 24 -98 53 -95 58 -197 119 -370 221 -64 39 -171 102
-237 141 -66 40 -194 115 -285 167 -299 173 -722 419 -890 518 -261 154 -483
282 -512 297 -16 8 -28 19 -28 24 0 5 21 52 46 104 31 63 51 92 58 87 6 -5 28
-8 48 -8 31 1 37 -2 32 -16 -2 -9 0 -19 5 -23 7 -4 8 1 4 11 -5 13 -3 16 10
11 11 -4 18 1 22 14 4 11 9 18 11 16 3 -2 -7 -30 -21 -62 -14 -32 -25 -64 -25
-71 0 -7 19 -23 43 -35 23 -12 67 -36 97 -53 30 -18 111 -63 180 -101 69 -38
166 -92 216 -121 50 -29 102 -58 115 -64 13 -6 33 -16 44 -23 57 -36 132 -71
147 -68 9 1 19 -3 23 -8 4 -7 -1 -9 -12 -5 -14 5 -15 4 -4 -4 8 -6 20 -8 27
-5 7 2 41 -9 76 -25 34 -16 74 -34 88 -40 14 -7 36 -20 50 -29 24 -17 24 -17
11 0 -7 9 -11 17 -8 17 12 0 162 -75 165 -82 2 -5 8 -6 13 -2 5 3 28 -4 52
-15 88 -41 160 -71 172 -71 7 0 15 -6 18 -14 3 -7 18 -17 34 -20 15 -4 72 -30
127 -57 54 -27 103 -49 108 -49 6 0 24 -10 41 -22 34 -25 217 -118 230 -118 5
0 15 -7 23 -15 9 -8 23 -15 33 -15 9 0 26 -8 37 -18 22 -20 139 -82 155 -82 6
0 28 -13 48 -28 20 -15 55 -37 78 -47 24 -11 43 -23 43 -27 0 -5 4 -8 9 -8 4
0 76 -40 159 -90 83 -49 155 -90 161 -90 6 0 11 -4 11 -8 0 -5 25 -22 55 -38
86 -45 94 -50 118 -70 30 -26 85 -64 92 -64 4 0 27 -15 52 -32 25 -18 56 -40
69 -48 77 -50 235 -164 249 -180 10 -11 24 -20 31 -20 7 0 14 -3 16 -8 2 -4
24 -25 50 -46 26 -21 45 -43 41 -49 -3 -5 -1 -7 4 -4 13 8 86 -61 78 -73 -8
-13 61 -43 77 -34 9 6 9 3 -1 -9 -12 -16 -12 -20 5 -32 39 -30 144 -95 314
-195 256 -151 272 -160 305 -160 33 0 524 71 1030 150 33 5 76 11 95 14 19 3
91 14 160 25 69 11 141 22 160 25 19 3 107 17 195 31 88 14 304 48 480 75 176
27 392 61 480 75 246 39 352 55 450 70 119 18 474 72 550 85 82 13 334 52 610
95 127 20 271 42 320 50 161 26 405 63 675 105 146 22 290 44 320 50 30 5 145
24 255 40 110 17 203 34 207 38 3 4 27 54 53 112 26 58 60 132 75 165 55 116
120 257 120 260 0 2 18 43 41 92 22 48 61 133 86 188 25 55 58 127 73 160 15
33 51 112 80 175 29 63 89 196 135 295 45 99 92 200 103 225 11 25 39 86 62
135 23 50 70 153 105 230 34 77 78 174 98 215 19 41 47 102 62 135 43 95 123
270 180 395 29 63 64 141 79 173 14 31 37 81 50 110 73 158 115 255 118 271 2
15 -34 40 -167 118 -93 54 -195 112 -225 129 -30 16 -68 38 -85 48 -16 10
-136 79 -265 153 -129 74 -325 187 -436 250 -110 64 -249 141 -308 172 -59 31
-117 62 -128 70 -11 8 -26 12 -34 9 -8 -3 -17 2 -20 12 -4 9 -13 14 -21 11 -9
-4 -11 -2 -7 6 5 7 2 9 -8 6 -14 -6 -53 11 -152 65 -27 15 -55 27 -61 27 -7 0
-36 16 -65 35 -29 19 -58 35 -65 35 -7 0 -36 12 -65 27 -37 19 -47 29 -38 35
9 6 6 7 -8 4 -13 -4 -29 1 -44 14 -13 11 -53 35 -89 52 -36 18 -87 47 -113 65
-26 18 -52 33 -57 33 -5 0 -12 7 -15 16 -4 9 -13 14 -22 10 -15 -6 -24 0 -66
37 -11 10 -51 34 -89 54 -38 19 -67 39 -64 43 3 4 -5 6 -17 3 -14 -3 -18 -1
-12 4 9 6 7 12 -4 23 -9 8 -19 14 -22 14 -11 -3 -47 15 -59 30 -8 10 -22 14
-35 11 -12 -3 -15 -2 -8 1 21 10 13 26 -9 19 -13 -4 -19 -3 -16 2 4 6 -5 15
-18 21 -14 7 -25 18 -25 27 0 8 -5 15 -11 15 -5 0 -7 -4 -4 -10 9 -14 -7 -12
-29 5 -10 7 -15 18 -11 24 4 7 0 8 -10 5 -10 -4 -15 -2 -13 7 2 8 -5 14 -17
14 -11 1 -19 6 -18 12 1 6 -4 14 -13 17 -10 4 -13 2 -8 -7 4 -6 -5 0 -20 15
-16 15 -37 30 -47 33 -10 4 -19 11 -19 16 0 5 -4 9 -9 9 -8 0 -216 120 -511
295 -58 34 -136 80 -175 102 -140 81 -322 187 -393 230 -40 23 -84 43 -99 43
-14 0 -188 -25 -387 -55 -658 -102 -751 -119 -740 -136 3 -5 -2 -9 -10 -9 -8
0 -18 -9 -21 -20 -3 -11 -11 -20 -16 -20 -6 0 -7 5 -4 10 3 6 1 10 -5 10 -7 0
-9 -8 -5 -20 7 -21 -4 -36 -40 -56 -11 -6 -21 -20 -23 -30 -3 -18 -2 -18 13 0
19 24 20 8 1 -17 -10 -13 -15 -15 -19 -5 -4 10 -6 9 -10 -2 -7 -22 -27 -138
-32 -190 -15 -146 -39 -240 -62 -240 -7 0 -13 -4 -13 -10 0 -5 24 -10 53 -11
28 0 46 -3 40 -6 -7 -2 -13 -15 -13 -27 0 -12 -5 -27 -10 -32 -10 -10 -40
-114 -40 -139 0 -22 -33 -95 -43 -95 -5 0 -6 11 -3 25 4 14 2 25 -3 25 -5 0
-16 28 -24 63 -26 102 -41 152 -50 158 -5 4 7 9 28 13 37 7 57 32 36 46 -13 7
-51 183 -51 234 0 16 -4 43 -9 60 -5 17 -15 51 -22 76 -7 25 -17 48 -22 51 -4
3 -14 23 -22 45 -11 33 -18 39 -46 42 -58 7 -120 3 -221 -13 -54 -8 -142 -22
-195 -30 -439 -66 -636 -97 -683 -105 -30 -5 -217 -35 -415 -65 -198 -31 -400
-62 -450 -70 -314 -49 -440 -68 -520 -81 -49 -8 -117 -18 -150 -23 -33 -5
-107 -17 -165 -26 -58 -9 -145 -22 -195 -30 -49 -8 -238 -37 -420 -65 -181
-29 -355 -56 -385 -60 -417 -63 -597 -92 -608 -98 -7 -4 -44 -74 -81 -157 -37
-82 -74 -166 -83 -185 -27 -57 -122 -267 -178 -390 -28 -63 -62 -137 -75 -165
-13 -27 -41 -89 -62 -136 -21 -47 -42 -85 -48 -85 -6 1 -10 62 -10 163 0 89
-3 165 -7 169 -5 4 -8 0 -8 -9 0 -10 -4 -17 -10 -17 -5 0 -10 -9 -10 -19 0
-11 -15 -51 -34 -88 -19 -38 -38 -81 -41 -96 -4 -16 -27 -65 -50 -110 -23 -45
-46 -93 -50 -107 -4 -14 -16 -37 -26 -52 -11 -14 -19 -33 -19 -42 0 -9 -5 -16
-11 -16 -5 0 -7 -5 -4 -10 10 -16 -5 -50 -21 -50 -8 0 -45 20 -82 44 -37 24
-128 79 -202 123 -278 165 -340 205 -333 216 4 6 0 8 -10 4 -10 -4 -16 -2 -14
6 1 7 -7 11 -18 9 -16 -2 -17 -1 -6 7 17 11 12 13 151 -64 377 -208 410 -225
427 -219 14 5 15 4 4 -4 -11 -8 -8 -13 15 -25 16 -8 41 -17 56 -21 23 -5 26
-3 21 10 -4 11 1 23 13 32 13 9 15 16 7 19 -9 3 -7 19 9 61 11 31 24 61 29 67
11 11 12 42 2 48 -5 2 -2 2 5 1 6 -2 12 3 12 11 0 8 5 15 12 15 14 0 -46 39
-192 125 -140 82 -254 151 -317 192 -29 18 -57 33 -61 33 -5 0 -17 8 -26 19
-13 15 -14 20 -4 24 17 6 50 -17 40 -28 -4 -5 -1 -5 6 -1 14 8 23 4 197 -94
281 -158 386 -213 393 -206 3 3 0 6 -7 6 -7 0 -9 5 -6 10 5 8 11 7 21 -1 9 -8
14 -8 14 -1 0 6 -8 16 -17 21 -10 6 -12 11 -5 11 6 0 12 8 12 17 0 16 1 16 13
0 10 -15 12 -12 12 22 1 32 8 46 34 72 25 23 33 40 35 68 1 31 4 37 19 33 21
-5 21 -9 2 -28 -16 -17 -20 -34 -7 -34 5 0 15 12 22 26 13 24 12 27 -10 45
-14 11 -65 43 -115 71 -49 29 -154 92 -233 140 -79 48 -147 88 -152 88 -6 0
-10 4 -10 9 0 5 -13 14 -30 21 -16 7 -27 17 -23 23 4 6 0 8 -8 5 -9 -4 -15 1
-16 12 -1 14 8 12 60 -15 79 -42 340 -184 392 -215 22 -13 65 -36 95 -51 l55
-29 7 68 c3 37 7 146 8 242 2 158 0 175 -17 188 -10 7 -68 43 -130 80 -72 42
-108 69 -100 74 17 11 29 10 22 -2 -3 -5 0 -8 7 -5 7 3 57 -20 112 -50 89 -49
127 -61 110 -34 -3 6 4 7 19 4 14 -4 28 -2 31 4 4 6 16 11 27 11 10 0 19 4 19
8 0 11 95 59 133 68 15 3 27 13 28 23 1 9 4 6 9 -9 l8 -25 7 23 c6 18 14 22
34 20 23 -3 29 4 54 56 32 65 35 57 -43 103 -61 36 -324 195 -328 198 -1 1 -4
12 -7 24 -5 25 16 28 35 6 7 -8 16 -15 20 -15 5 0 59 -29 122 -64 62 -35 131
-73 153 -86 22 -12 63 -35 92 -51 l52 -30 108 16 c59 9 148 23 196 30 49 8 91
16 94 18 2 3 -17 18 -44 33 -71 40 -213 124 -253 149 -19 12 -62 38 -95 58
-33 19 -136 81 -230 137 -93 57 -181 109 -195 116 -14 8 -19 14 -10 14 13 0
13 2 1 9 -8 5 -19 7 -26 5 -6 -3 -12 2 -12 11 0 19 -1 19 41 -2 19 -9 32 -21
29 -26 -3 -6 -1 -7 5 -3 6 4 28 -4 49 -17 21 -13 79 -45 128 -72 50 -27 192
-106 318 -177 125 -70 235 -132 245 -137 9 -5 46 -26 80 -47 71 -41 76 -41
262 -10 47 8 132 21 190 30 181 28 174 20 73 80 -214 127 -334 197 -413 242
-230 133 -505 302 -503 312 1 5 -7 8 -19 4 -14 -3 -19 -1 -14 6 4 7 1 12 -7
12 -8 0 -17 7 -21 15 -3 8 -10 15 -16 15 -6 0 -8 -5 -5 -11 4 -6 -2 -5 -14 2
-14 9 -17 16 -8 21 6 4 45 -11 87 -34 162 -89 345 -191 355 -198 6 -4 35 -21
65 -38 30 -16 198 -111 373 -211 l318 -181 152 24 c84 14 188 30 232 36 44 6
148 22 230 35 83 13 218 34 300 46 83 12 154 25 158 29 5 4 -22 24 -60 45 -37
21 -99 57 -138 80 -38 23 -158 93 -265 155 -107 62 -231 134 -275 160 -188
112 -312 185 -335 197 -14 8 -43 25 -65 38 -22 14 -61 37 -87 51 -26 15 -45
31 -41 37 4 7 -1 8 -13 3 -14 -5 -16 -4 -8 4 15 15 57 3 48 -12 -5 -7 -1 -9 9
-5 19 7 33 -9 15 -17 -7 -3 -4 -4 7 -1 13 3 53 -13 108 -45 48 -27 90 -50 93
-50 2 0 17 -8 32 -19 15 -10 106 -62 202 -116 96 -54 195 -110 220 -125 25
-15 180 -105 345 -199 l301 -171 294 45 c162 25 302 47 310 48 14 3 -46 40
-325 202 -49 29 -166 97 -260 153 -221 130 -432 252 -537 311 -31 17 -81 47
-110 66 -29 19 -57 35 -63 35 -5 0 -3 5 5 11 12 9 11 10 -8 6 -12 -3 -20 -2
-17 3 7 11 -22 33 -34 25 -6 -3 -27 5 -46 18 -27 19 -32 26 -21 30 9 4 15 1
13 -5 -1 -6 12 -15 28 -18 37 -9 137 -64 130 -72 -3 -3 8 -8 25 -12 20 -4 29
-10 24 -17 -4 -8 -3 -9 4 -5 12 7 60 -15 95 -43 9 -8 48 -30 86 -50 67 -35
165 -90 506 -286 88 -51 240 -138 338 -194 97 -55 194 -111 213 -124 l37 -23
136 22 c130 21 276 44 603 95 112 18 145 26 135 35 -6 6 -88 55 -182 109 -93
54 -201 117 -240 140 -38 23 -162 95 -275 160 -113 64 -221 127 -240 140 -19
12 -65 39 -102 61 -36 21 -64 43 -61 48 4 5 1 6 -5 2 -14 -8 -78 24 -114 58
-15 14 -33 26 -40 26 -15 1 -67 29 -54 30 6 0 1 6 -9 14 -11 8 -22 13 -26 11
-3 -2 -6 2 -6 9 0 17 63 -18 71 -39 3 -8 10 -15 16 -15 6 0 8 5 4 11 -4 7 13
0 37 -15 24 -14 43 -30 42 -36 -2 -5 3 -7 10 -4 11 4 193 -89 207 -106 3 -3
34 -22 70 -42 66 -36 139 -78 285 -160 44 -25 218 -124 387 -221 169 -98 316
-177 326 -177 41 0 377 61 386 70 7 7 6 10 -3 10 -7 0 -10 4 -7 9 3 4 -3 19
-14 31 -11 12 -18 26 -15 30 2 3 -9 21 -25 38 -16 18 -24 32 -17 32 18 0 -146
105 -378 240 -115 67 -257 150 -315 185 -58 34 -121 70 -140 80 -18 10 -40 24
-48 31 -7 8 -20 14 -28 14 -8 0 -14 5 -14 10 0 6 -5 10 -11 10 -5 0 -26 11
-45 24 -24 16 -31 26 -22 30 7 3 4 4 -7 3 -30 -5 -158 67 -163 92 -5 22 -6 22
398 -209 66 -37 207 -117 290 -163 25 -14 72 -41 105 -60 131 -77 280 -157
299 -162 12 -3 15 -2 8 1 -6 3 -10 9 -7 14 3 5 -6 17 -20 28 -14 11 -25 26
-25 34 0 7 -18 44 -40 82 -22 37 -40 71 -40 75 0 4 -17 32 -37 62 -21 30 -47
73 -58 94 -11 22 -43 72 -72 111 -29 40 -53 76 -53 82 0 9 -201 152 -215 152
-3 0 -32 16 -63 37 -31 20 -94 58 -140 85 -50 30 -80 53 -76 60 4 7 2 8 -5 4
-12 -8 -87 41 -78 50 8 9 56 -19 50 -29 -3 -5 0 -7 8 -4 12 4 58 -18 287 -140
34 -18 67 -33 72 -33 11 0 -5 33 -32 63 -9 11 -22 33 -28 51 -6 17 -16 38 -21
46 -28 46 -53 128 -72 243 -12 64 -14 69 -61 102 -27 19 -56 35 -63 35 -8 0
-12 4 -8 9 3 5 -4 13 -15 16 -17 5 -19 9 -9 21 8 10 15 11 24 4 22 -18 97 -41
91 -27 -3 6 -9 20 -12 30 -4 9 -9 17 -13 17 -3 0 -7 10 -7 23 -1 13 -16 52
-33 87 -17 34 -30 68 -30 74 5 26 -45 114 -86 152 -49 45 -59 70 -24 59 12 -4
20 -3 18 2 -8 20 -164 328 -169 333 -3 3 -14 23 -25 45 -11 22 -26 46 -33 54
-8 8 -11 22 -9 33 3 10 1 16 -4 13 -4 -3 -17 12 -29 34 -25 50 -25 54 -1 39
11 -7 17 -16 14 -22 -3 -5 -1 -6 6 -2 12 8 64 -28 54 -38 -9 -8 27 -46 44 -46
16 0 17 -12 1 -29 -8 -7 -8 -11 -2 -9 11 3 64 -53 64 -67 0 -5 17 -33 38 -64
20 -30 39 -60 42 -66 14 -29 143 -231 208 -325 23 -34 42 -64 42 -67 0 -2 5
-9 10 -16 6 -7 30 -39 55 -72 50 -67 86 -112 130 -159 17 -18 47 -51 67 -74
21 -23 44 -42 53 -42 9 0 15 -9 15 -25 0 -14 8 -29 20 -35 11 -6 18 -15 15
-20 -3 -4 6 -22 21 -39 14 -17 23 -35 20 -40 -9 -14 4 -41 21 -41 8 0 11 -4 8
-10 -3 -5 -2 -10 3 -10 6 0 8 -10 5 -22 -3 -17 -2 -19 5 -9 7 10 12 5 20 -20
5 -19 10 -45 10 -59 1 -47 13 -110 22 -115 5 -3 12 -34 15 -69 4 -37 13 -67
20 -69 7 -3 15 -29 19 -58 4 -30 11 -58 16 -65 5 -6 21 -39 34 -75 13 -35 33
-82 44 -104 59 -114 112 -229 112 -240 0 -7 6 -18 14 -24 8 -7 18 -27 22 -44
3 -18 10 -34 15 -38 5 -3 21 -39 35 -80 14 -40 31 -77 36 -80 6 -4 8 -11 4
-17 -3 -5 3 -31 15 -56 11 -25 17 -51 13 -58 -4 -7 -3 -8 4 -4 11 6 16 -5 13
-26 -2 -16 19 -59 27 -54 4 3 7 -9 6 -25 -1 -20 9 -47 32 -80 19 -28 34 -53
34 -56 0 -2 6 -10 13 -18 12 -11 13 -5 9 37 -4 37 -2 49 7 44 8 -5 10 3 7 31
-3 21 -9 79 -12 128 -9 117 -9 118 -32 205 -37 139 -50 181 -60 193 -5 7 -12
26 -15 42 -6 36 -35 123 -48 147 -12 24 -12 78 1 78 6 0 10 24 10 54 0 30 5
58 10 61 6 3 10 22 10 40 0 24 6 38 20 45 22 12 27 40 8 40 -6 0 -8 3 -4 8 4
4 11 6 14 4 23 -11 80 330 88 528 3 80 7 160 10 178 5 31 7 33 34 27 31 -7
125 37 262 122 81 51 264 164 400 248 44 28 91 57 103 65 13 8 47 30 76 48 30
18 74 46 99 62 25 16 70 43 100 61 30 18 88 54 128 81 41 26 75 48 78 48 2 0
102 63 221 140 120 77 221 140 225 140 5 0 8 -4 8 -8z m-3320 -1702 c0 -5 -2
-10 -4 -10 -3 0 -8 5 -11 10 -3 6 -1 10 4 10 6 0 11 -4 11 -10z m40 -4 c0 -2
-7 -7 -16 -10 -8 -3 -12 -2 -9 4 6 10 25 14 25 6z m3420 -155 c0 -5 -7 -12
-16 -15 -14 -5 -15 -4 -4 9 14 17 20 19 20 6z m-70 -31 c-8 -5 -19 -10 -25
-10 -5 0 -3 5 5 10 8 5 20 10 25 10 6 0 3 -5 -5 -10z m-12 -25 c-2 -1 -12 -7
-24 -13 -16 -8 -21 -8 -21 2 0 8 11 14 24 14 13 0 23 -2 21 -3z m-66 -37 c-6
-6 -16 -7 -23 -3 -9 6 -7 12 7 22 21 15 34 -1 16 -19z m605 -64 c-2 -3 -17 -7
-33 -10 -17 -2 -24 -1 -17 4 13 8 58 14 50 6z m-67 -24 c0 -5 -5 -10 -11 -10
-5 0 -7 5 -4 10 3 6 8 10 11 10 2 0 4 -4 4 -10z m-5964 -122 c-9 -5 -23 -5
-32 0 -12 6 -7 9 16 9 23 0 28 -3 16 -9z m6409 3 c3 -5 0 -13 -6 -17 -8 -4 -9
-3 -5 4 10 17 -6 15 -32 -4 -12 -8 -22 -11 -22 -6 0 5 10 14 23 20 28 14 35
14 42 3z m-68 -39 c17 -10 -92 -73 -112 -66 -8 4 -12 10 -9 16 3 5 13 7 22 3
9 -3 13 -3 9 1 -4 4 10 18 30 30 45 26 44 26 60 16z m407 -100 c2 -4 -4 -8
-14 -8 -10 0 -16 4 -14 8 3 4 9 8 14 8 5 0 11 -4 14 -8z m-70 -46 c-3 -8 -13
-17 -22 -21 -13 -5 -13 -2 3 15 21 24 26 25 19 6z m531 -136 c-3 -5 -12 -10
-18 -10 -7 0 -6 4 3 10 19 12 23 12 15 0z m640 -429 c3 -5 0 -13 -6 -17 -7 -4
-9 -3 -5 4 3 5 0 13 -6 15 -9 4 -10 6 -1 6 6 1 14 -3 18 -8z m334 -270 c12 -8
9 -11 -12 -17 -32 -7 -49 3 -27 16 19 12 21 12 39 1z m-9835 -260 c-2 -3 -12
3 -22 13 -16 17 -16 18 5 5 12 -7 20 -15 17 -18z m-39 9 c3 -6 -1 -7 -9 -4
-18 7 -21 14 -7 14 6 0 13 -4 16 -10z m62 -26 c-3 -3 -12 -4 -19 -1 -8 3 -5 6
6 6 11 1 17 -2 13 -5z m313 -63 c0 -6 -9 -9 -20 -8 -11 1 -20 5 -20 9 0 4 9 8
20 8 11 0 20 -4 20 -9z m6334 -58 c56 -32 125 -72 155 -90 l54 -32 58 32 59
32 53 -29 c28 -15 134 -75 235 -133 l183 -106 -88 -51 c-48 -28 -163 -94 -255
-146 -92 -52 -167 -98 -168 -101 0 -6 255 -153 283 -163 11 -3 16 -2 12 4 -3
6 -1 10 5 10 7 0 24 9 40 20 15 11 30 17 34 13 3 -3 6 -1 6 5 0 6 7 9 17 5 9
-4 14 -2 10 3 -3 6 3 15 14 22 11 7 19 8 19 2 0 -5 -5 -10 -12 -10 -6 0 -9 -2
-6 -5 9 -10 39 7 35 19 -3 7 8 18 24 25 29 13 29 14 29 95 0 46 3 85 6 88 3 4
33 -8 66 -25 34 -17 56 -33 50 -35 -6 -2 -24 4 -41 12 -34 18 -41 19 -41 8 0
-7 37 -25 78 -37 18 -5 22 -14 22 -46 l0 -39 42 0 c38 0 40 1 23 14 -20 14
-15 46 7 46 10 0 10 -2 -1 -9 -7 -5 -10 -14 -6 -20 5 -9 10 -9 21 0 8 6 18 9
21 5 4 -4 1 -11 -7 -16 -8 -6 -10 -10 -4 -10 7 0 9 -10 6 -25 -2 -14 -8 -22
-13 -19 -5 3 -9 -4 -9 -16 0 -11 -7 -23 -15 -26 -8 -4 -15 -17 -15 -30 0 -21
4 -24 40 -24 l40 0 0 -70 c0 -74 0 -75 57 -73 7 1 11 -2 9 -6 -1 -3 5 -14 16
-23 17 -17 18 -14 18 113 0 71 3 128 8 126 4 -3 4 -75 1 -160 -4 -86 -3 -182
1 -214 l7 -58 3 50 c2 28 2 127 2 222 -1 95 2 174 6 177 4 3 42 -15 82 -39
140 -81 851 -492 977 -564 l63 -36 0 -400 c0 -220 -4 -406 -9 -413 -5 -8 -79
-24 -192 -42 -101 -15 -332 -51 -514 -80 -181 -28 -386 -58 -455 -66 -69 -8
-177 -23 -240 -34 -117 -20 -201 -33 -440 -70 -74 -11 -153 -25 -175 -30 -41
-10 -72 -15 -465 -75 -124 -19 -235 -37 -247 -40 -22 -5 -23 -9 -23 -141 0
-119 -2 -135 -17 -141 -10 -4 -45 -23 -78 -43 -33 -20 -67 -39 -75 -43 -18 -8
-53 -30 -60 -37 -12 -13 -154 -90 -165 -90 -8 0 -15 -4 -17 -9 -1 -5 -28 -22
-58 -39 -30 -16 -71 -39 -91 -51 l-36 -21 -24 21 c-13 12 -19 23 -14 25 6 3 9
54 8 134 -2 97 1 130 10 130 6 0 2 6 -9 13 -81 47 -108 63 -178 105 l-78 48
-102 -13 c-243 -32 -315 -39 -310 -31 3 4 13 8 22 9 14 0 13 2 -3 9 -19 8 -19
9 3 9 12 1 22 -3 22 -9 0 -5 10 -10 23 -10 l22 1 -23 19 c-18 15 -22 25 -16
42 4 13 7 35 5 50 -1 14 4 30 12 35 33 20 27 41 -19 64 -25 11 -43 24 -40 27
3 3 28 -7 55 -21 27 -15 52 -27 56 -27 7 0 -201 129 -295 183 -19 11 -51 30
-70 42 -29 18 -624 365 -777 453 l-43 24 0 -160 0 -159 493 -280 c270 -155
506 -288 524 -297 17 -8 33 -20 35 -25 3 -8 198 -125 366 -218 43 -24 62 -41
62 -55 0 -12 -4 -17 -12 -12 -10 6 -10 4 0 -7 14 -15 16 -43 2 -34 -5 3 -18 1
-27 -5 -16 -9 -15 -10 7 -8 l25 3 2 -120 2 -121 -34 -18 c-18 -10 -39 -15 -46
-11 -7 5 -10 4 -5 -3 3 -6 -7 -16 -24 -24 -16 -7 -30 -16 -30 -19 0 -4 -7 -10
-16 -13 -9 -3 -12 -2 -8 5 3 6 -14 -4 -38 -23 -65 -49 -140 -86 -145 -70 -6
17 -16 15 -41 -7 -30 -25 -28 -37 3 -17 28 18 35 20 35 7 0 -5 -9 -13 -20 -16
-11 -3 -26 -12 -33 -18 -22 -20 -107 -60 -114 -53 -3 3 2 6 13 7 18 0 18 1 -1
9 l-20 9 20 0 c13 1 16 4 8 9 -8 5 -13 49 -15 129 l-3 121 32 -1 c17 -1 31 -6
30 -11 -1 -6 9 -12 23 -13 22 -2 23 -2 5 6 -14 7 -15 10 -5 11 27 1 -19 22
-59 25 -20 2 -61 6 -91 9 -149 14 -1351 78 -1357 72 -3 -2 24 -19 59 -38 35
-19 119 -67 188 -107 69 -40 216 -125 328 -188 111 -63 202 -119 202 -123 0
-8 -168 -113 -202 -125 -10 -4 -15 -12 -11 -18 3 -6 1 -7 -5 -3 -7 4 -17 4
-24 0 -8 -5 -6 -10 8 -16 16 -7 15 -8 -5 -4 -13 3 -33 0 -44 -6 -16 -8 -17
-12 -6 -20 11 -8 10 -9 -4 -4 -16 5 -66 -11 -77 -25 -3 -3 -24 -16 -48 -28
-26 -13 -40 -26 -36 -33 4 -7 3 -8 -5 -4 -6 4 -34 -6 -61 -23 -28 -17 -55 -31
-60 -31 -6 0 -39 17 -73 38 -34 21 -96 58 -137 82 -41 24 -95 56 -120 71 -41
25 -284 166 -615 357 -232 134 -557 322 -686 398 -120 70 -158 87 -144 64 3
-5 1 -10 -6 -10 -10 0 -10 -3 -1 -12 15 -15 16 -31 0 -22 -6 4 -9 3 -5 -2 3
-5 2 -25 -3 -44 -5 -24 -8 -28 -9 -12 -1 31 -17 28 -29 -5 -13 -39 -21 213
-26 812 -3 401 -6 491 -17 497 -8 4 -38 21 -67 38 -29 17 -58 27 -64 24 -6 -4
-8 -2 -4 4 4 6 -60 48 -162 106 -165 94 -189 106 -177 87 3 -5 1 -12 -4 -15
-4 -3 -8 4 -7 17 1 19 -4 22 -29 19 -20 -2 -25 0 -17 6 11 7 11 11 0 19 -35
28 -175 97 -193 96 -11 -2 -15 0 -8 3 19 9 3 33 -36 55 -20 11 -58 33 -86 49
-27 15 -66 37 -85 48 -59 32 -285 164 -289 168 -2 2 3 19 12 36 9 18 32 69 53
113 79 173 105 225 115 230 5 4 7 10 4 14 -3 6 106 243 119 258 2 2 25 5 52 8
41 4 44 3 19 -5 -22 -7 -9 -8 48 -5 59 4 85 10 104 25 31 24 49 25 70 4 12
-11 13 -18 4 -27 -6 -6 -11 -24 -11 -39 0 -15 -4 -29 -10 -29 -5 -1 -37 -3
-70 -4 -79 -3 -80 -3 -80 -15 0 -5 18 -10 40 -10 l40 0 0 -40 c0 -22 -4 -40
-10 -40 -5 0 -10 -18 -10 -40 0 -22 5 -40 10 -40 6 0 10 18 10 40 l0 40 80 0
80 0 0 -40 c0 -22 -4 -40 -10 -40 -5 0 -10 -18 -10 -40 0 -26 5 -40 13 -40 9
0 13 -20 12 -72 -1 -62 1 -68 8 -38 15 58 16 60 27 60 6 0 8 -10 4 -26 -5 -19
-4 -25 5 -20 6 4 11 16 11 26 0 10 3 20 8 23 4 2 1 2 -6 0 -8 -1 -12 3 -9 9 2
7 -3 18 -12 25 -15 11 -14 12 1 13 9 0 24 -8 34 -17 16 -16 16 -16 9 6 -4 15
-3 21 3 17 6 -3 15 8 21 24 8 23 16 30 38 31 22 0 24 2 10 8 -11 4 13 7 55 8
40 0 107 7 148 16 41 9 104 19 140 22 36 3 90 12 120 20 30 8 66 13 80 13 21
-1 111 12 185 27 11 2 60 8 109 15 49 6 94 14 100 17 6 4 25 8 41 9 52 4 116
12 250 34 72 12 159 26 195 30 36 5 126 18 200 30 74 11 178 27 230 36 52 8
185 28 295 44 110 17 243 37 295 45 52 8 122 19 155 24 64 10 549 86 805 126
85 13 232 36 325 50 94 15 204 33 245 42 41 8 109 18 150 23 41 4 181 24 310
44 129 20 339 53 465 72 127 20 250 39 275 44 25 4 49 8 54 9 5 0 55 -25 110
-56z m-5337 -399 c-3 -3 -12 -4 -19 -1 -8 3 -5 6 6 6 11 1 17 -2 13 -5z m-324
-51 c-7 -2 -21 -2 -30 0 -10 3 -4 5 12 5 17 0 24 -2 18 -5z m6824 -239 c-8 -8
-57 11 -57 22 0 10 7 9 29 -4 16 -9 29 -17 28 -18z m-6119 11 c2 -2 -24 -6
-58 -10 -34 -4 -66 -3 -71 2 -5 5 9 7 34 5 31 -2 38 -1 27 7 -11 8 -4 9 25 4
22 -3 41 -7 43 -8z m-170 -2 c-10 -2 -26 -2 -35 0 -10 3 -2 5 17 5 19 0 27 -2
18 -5z m6253 -41 c-16 -5 -41 5 -41 17 0 7 10 6 26 -1 15 -7 21 -14 15 -16z
m-6268 11 c-7 -2 -19 -2 -25 0 -7 3 -2 5 12 5 14 0 19 -2 13 -5z m-254 -63 c0
-10 -3 -8 -9 5 -12 27 -12 43 0 25 5 -8 9 -22 9 -30z m-69 -75 c0 -8 -4 -15
-10 -15 -5 0 -10 7 -10 15 0 8 5 15 10 15 6 0 10 -7 10 -15z m6647 -187 c-2
-13 -4 -3 -4 22 0 25 2 35 4 23 2 -13 2 -33 0 -45z m-8629 -177 c11 -6 10 -10
-4 -15 -9 -3 -19 -4 -22 -1 -3 3 1 5 9 5 11 0 11 2 -1 10 -8 5 -10 10 -5 10 6
0 16 -4 23 -9z m144 -81 c4 0 33 -15 65 -33 32 -19 140 -80 241 -136 100 -57
182 -106 182 -110 0 -3 -5 -13 -10 -21 -8 -13 -16 -12 -55 10 -111 61 -489
289 -512 310 -7 5 -17 10 -23 10 -6 0 -8 4 -5 10 3 6 -1 7 -9 4 -9 -3 -16 -2
-16 4 0 22 27 17 80 -15 30 -18 58 -33 62 -33z m601 3 c-7 -2 -13 -13 -13 -23
0 -10 -4 -22 -10 -25 -12 -8 -13 -3 0 29 5 14 15 26 22 25 10 0 10 -2 1 -6z
m1082 -193 c3 -5 2 -10 -4 -10 -5 0 -13 5 -16 10 -3 6 -2 10 4 10 5 0 13 -4
16 -10z m-45 -4 c0 -2 -7 -9 -15 -16 -13 -11 -14 -10 -9 4 5 14 24 23 24 12z
m30 -30 c0 -2 -7 -6 -15 -10 -8 -3 -15 -1 -15 4 0 6 7 10 15 10 8 0 15 -2 15
-4z m105 -6 c3 -5 2 -10 -4 -10 -5 0 -13 5 -16 10 -3 6 -2 10 4 10 5 0 13 -4
16 -10z m-178 -42 c-3 -7 -5 -2 -5 12 0 14 2 19 5 13 2 -7 2 -19 0 -25z m38
-7 c3 -5 1 -12 -5 -16 -5 -3 -10 1 -10 9 0 18 6 21 15 7z m-105 -151 c0 -5 -4
-10 -10 -10 -5 0 -10 5 -10 10 0 6 5 10 10 10 6 0 10 -4 10 -10z m30 -15 c-7
-8 -17 -15 -23 -15 -5 0 -2 9 8 20 21 23 35 19 15 -5z m-1566 -104 c273 -153
281 -158 281 -177 0 -11 -6 -18 -13 -16 -8 1 -88 46 -178 100 -241 143 -247
146 -245 156 2 5 -3 13 -11 18 -37 27 39 -10 166 -81z m1483 17 c-3 -8 -6 -5
-6 6 -1 11 2 17 5 13 3 -3 4 -12 1 -19z m-40 -90 c-3 -7 -5 -2 -5 12 0 14 2
19 5 13 2 -7 2 -19 0 -25z m-27 -93 c0 -5 -5 -3 -10 5 -5 8 -10 20 -10 25 0 6
5 3 10 -5 5 -8 10 -19 10 -25z m-27 -25 c-3 -11 -10 -23 -16 -27 -7 -4 -8 0
-4 11 4 10 7 22 7 27 0 5 4 9 9 9 5 0 7 -9 4 -20z m20 -38 c-3 -12 -9 -22 -14
-22 -12 0 -11 7 3 30 15 24 19 21 11 -8z m-83 -89 c-11 -17 -11 -17 -6 0 3 10
6 24 7 30 0 9 2 9 5 0 3 -7 0 -20 -6 -30z m-94 -222 c-15 -15 -16 -13 -4 19 9
26 13 30 16 16 2 -10 -3 -26 -12 -35z m-25 -48 c-8 -15 -10 -15 -11 -2 0 17
10 32 18 25 2 -3 -1 -13 -7 -23z m29 -33 c0 -5 -5 -10 -11 -10 -5 0 -7 5 -4
10 3 6 8 10 11 10 2 0 4 -4 4 -10z m-63 -35 c-15 -16 -19 -13 -11 9 3 9 10 13
15 10 5 -3 3 -11 -4 -19z m-83 -189 c-3 -15 -8 -25 -11 -23 -2 3 -1 17 3 31 3
15 8 25 11 23 2 -3 1 -17 -3 -31z m-1149 -47 c10 -15 -1 -23 -20 -15 -9 3 -13
10 -10 16 8 13 22 13 30 -1z m1048 -169 c-3 -12 -8 -19 -11 -16 -5 6 5 36 12
36 2 0 2 -9 -1 -20z m132 -210 c3 -6 -1 -7 -9 -4 -18 7 -21 14 -7 14 6 0 13
-4 16 -10z m110 -70 c3 -6 -1 -7 -9 -4 -18 7 -21 14 -7 14 6 0 13 -4 16 -10z
m3539 -605 c-7 -16 -24 -21 -24 -6 0 8 7 13 27 20 1 1 0 -6 -3 -14z m-72 -47
c-7 -7 -12 -8 -12 -2 0 14 12 26 19 19 2 -3 -1 -11 -7 -17z m-1082 -1468 c18
-12 2 -12 -25 0 -13 6 -15 9 -5 9 8 0 22 -4 30 -9z m8384 -139 c3 -4 -18 -7
-47 -5 -29 2 -45 0 -37 -4 19 -9 21 -82 2 -82 -23 0 -62 32 -62 51 0 10 10 25
22 33 24 17 113 22 122 7z m-766 -459 c18 -12 23 -22 20 -43 -4 -23 2 -31 36
-50 23 -13 84 -48 136 -79 52 -31 161 -96 243 -144 89 -53 145 -92 141 -98 -4
-6 -2 -8 4 -4 13 8 63 -14 57 -24 -3 -5 7 -11 22 -15 20 -5 23 -9 13 -15 -15
-9 -38 1 -240 116 -80 45 -167 94 -195 109 -27 16 -97 55 -154 88 -91 52 -111
60 -160 61 -117 2 -154 77 -55 111 43 15 97 9 132 -13z m-378 -355 c0 -7 -7
-22 -15 -33 -13 -17 -13 -16 -3 14 13 34 18 40 18 19z m-44 -102 c-20 -47 -20
-68 0 -35 l15 25 -7 -30 c-4 -16 -8 -59 -10 -95 -1 -36 -5 -76 -9 -90 -15 -60
-15 -69 2 -79 23 -13 7 -14 -17 -1 -13 7 -17 16 -13 27 6 15 5 16 -9 3 -9 -8
-15 -16 -14 -16 26 -24 836 -494 850 -494 2 0 34 -18 70 -40 36 -22 68 -40 70
-40 3 0 46 -25 96 -55 50 -30 94 -55 99 -55 4 0 16 -9 26 -20 10 -11 22 -20
27 -20 9 0 280 -160 303 -178 6 -4 25 -17 43 -27 17 -11 32 -23 32 -27 0 -4 6
-8 13 -8 13 0 77 -54 77 -65 0 -6 -217 106 -301 156 -57 33 -89 44 -89 30 0
-6 6 -11 14 -11 8 0 18 -5 22 -12 5 -8 2 -9 -11 -4 -13 5 -15 3 -8 -6 6 -7 13
-23 16 -35 4 -19 -2 -24 -44 -38 -44 -15 -55 -15 -124 -1 -123 25 -337 111
-446 178 -25 15 -53 28 -62 28 -8 0 -17 4 -19 8 -1 5 -30 27 -64 50 -121 81
-200 165 -214 227 -7 29 -4 36 15 49 27 18 83 22 143 11 23 -4 42 -5 42 -2 0
11 -554 327 -573 327 -2 0 -3 -10 -4 -22 -3 -36 -25 -81 -55 -113 -52 -56 -88
-103 -88 -114 0 -6 8 -14 18 -18 9 -3 40 -20 67 -38 65 -41 259 -157 310 -185
70 -39 609 -352 645 -375 98 -61 242 -145 250 -145 6 0 10 -4 10 -10 0 -13
-17 -13 -25 1 -4 6 -13 8 -19 6 -7 -3 -19 3 -26 13 -7 10 -19 16 -27 13 -8 -3
-26 3 -41 14 -15 11 -35 22 -45 26 -10 4 -163 89 -340 190 -711 406 -790 449
-813 441 -15 -4 -16 -4 -5 4 11 8 10 12 -7 21 -18 10 -21 9 -16 -4 4 -8 1 -15
-4 -15 -6 0 -13 8 -15 18 -3 9 -5 2 -6 -15 0 -18 -6 -33 -12 -33 -5 0 -7 5 -3
12 4 7 3 8 -4 4 -7 -4 -12 -13 -12 -19 0 -7 -9 -23 -20 -37 -14 -17 -11 -5 10
37 16 34 30 67 30 74 0 6 11 32 24 58 13 25 48 100 77 166 64 147 213 454 217
450 2 -1 -4 -20 -12 -40z m2113 24 c88 -15 258 -86 386 -162 47 -28 104 -75
98 -81 -3 -3 0 -6 8 -6 17 0 85 -60 82 -72 -2 -4 3 -7 10 -6 6 2 11 -3 9 -10
-1 -8 7 -16 18 -19 22 -6 27 -23 8 -24 -7 0 -4 -4 7 -9 12 -5 14 -9 6 -9 -8
-1 23 -25 70 -55 46 -30 83 -59 82 -65 -2 -6 3 -8 11 -5 16 6 30 -11 21 -26
-5 -8 -276 124 -314 154 -12 9 -13 7 -8 -8 6 -14 5 -16 -5 -8 -7 5 -44 20 -83
32 -116 37 -229 95 -370 188 -64 43 -199 188 -189 203 5 9 55 5 153 -12z
m-13629 -84 c0 -20 -124 -143 -200 -197 -107 -76 -349 -196 -414 -204 -17 -3
-92 -36 -168 -74 -124 -62 -148 -71 -148 -50 0 4 44 36 98 71 113 75 131 89
108 89 -9 0 -16 2 -16 5 0 8 123 122 165 152 114 82 328 190 420 212 67 15
155 13 155 -4z m12705 -3 c-3 -3 -11 0 -18 7 -9 10 -8 11 6 5 10 -3 15 -9 12
-12z m-476 -268 c79 -47 160 -93 180 -104 20 -10 49 -30 64 -44 16 -15 33 -24
38 -21 5 4 9 2 9 -4 0 -20 -26 -16 -80 12 -55 29 -391 218 -400 224 -6 5 22
23 35 23 6 0 75 -39 154 -86z m372 -241 c13 -17 13 -17 -6 -3 -11 8 -22 16
-24 17 -2 2 0 3 6 3 6 0 17 -8 24 -17z m-1358 -133 c-3 -12 -8 -19 -11 -16 -5
6 5 36 12 36 2 0 2 -9 -1 -20z m-9553 -172 c-1 -32 -32 -66 -120 -130 -148
-110 -332 -192 -417 -186 -63 4 -63 22 1 88 103 106 385 249 494 250 37 0 42
-3 42 -22z m9565 -138 c72 -42 225 -133 340 -201 227 -133 258 -153 248 -163
-3 -3 5 -7 18 -7 16 -1 18 -3 7 -6 -22 -6 -149 57 -141 70 3 6 1 7 -5 3 -6 -3
-33 6 -59 22 -26 16 -158 91 -293 167 -347 195 -322 179 -298 203 13 13 9 16
183 -88z m-844 -74 c24 -13 98 -55 164 -94 66 -38 154 -89 195 -112 41 -24 91
-53 110 -65 19 -12 80 -48 135 -81 55 -32 102 -62 105 -65 3 -3 15 -9 28 -13
12 -4 19 -12 16 -18 -4 -7 -2 -8 4 -4 7 4 22 0 34 -8 16 -11 18 -16 8 -17 -8
0 3 -9 25 -20 22 -10 35 -19 28 -19 -7 0 -28 8 -48 17 -24 12 -31 19 -23 25 9
5 6 8 -9 8 -12 0 -42 11 -65 24 -24 13 -65 36 -93 51 -27 15 -75 42 -105 58
-112 62 -160 94 -152 102 4 5 1 5 -5 1 -7 -4 -41 10 -76 31 -35 21 -131 76
-215 123 -83 47 -151 88 -152 93 0 15 49 6 91 -17z m-8991 -80 c0 -2 -7 -7
-16 -10 -8 -3 -12 -2 -9 4 6 10 25 14 25 6z m-170 -89 c0 -2 -10 -12 -22 -23
l-23 -19 19 23 c18 21 26 27 26 19z m11395 -147 c3 -6 -1 -7 -9 -4 -18 7 -21
14 -7 14 6 0 13 -4 16 -10z m-1332 -207 c3 -5 -6 -9 -20 -10 -19 -1 -22 1 -12
8 17 11 26 11 32 2z m-708 -130 c44 -13 116 -36 159 -49 72 -22 210 -84 261
-116 11 -7 49 -30 85 -51 36 -22 70 -45 75 -51 6 -6 24 -22 42 -34 17 -12 43
-41 58 -65 15 -24 39 -50 54 -59 14 -9 60 -38 101 -64 41 -26 113 -69 160 -97
47 -28 87 -53 90 -57 3 -4 13 -9 23 -13 11 -4 15 -12 11 -18 -4 -8 -3 -9 4 -5
7 4 22 0 34 -8 12 -9 20 -16 16 -16 -3 0 -15 -3 -25 -6 -15 -5 -16 -4 -3 6 13
9 12 10 -5 8 -11 -1 -46 12 -77 30 -32 17 -59 32 -62 32 -2 0 -77 40 -166 90
-89 49 -167 87 -173 83 -6 -4 -7 -1 -2 7 6 10 4 12 -8 7 -8 -3 -21 0 -27 8 -6
8 -18 11 -26 8 -24 -9 -154 36 -279 98 -116 57 -155 78 -165 90 -3 3 -30 22
-60 42 -85 57 -156 129 -145 147 3 4 -11 22 -30 39 -37 33 -47 58 -17 46 9 -4
53 -18 97 -32z m-7631 -72 c15 -23 -85 -97 -219 -163 -60 -29 -171 -86 -246
-125 -75 -40 -139 -69 -143 -66 -3 3 -12 0 -21 -7 -9 -7 -17 -11 -20 -8 -4 4
142 100 265 174 36 21 70 42 75 47 65 49 262 156 292 157 6 0 14 -4 17 -9z
m8832 -656 c2 -11 -2 -12 -17 -2 -13 8 -15 13 -6 19 13 8 20 3 23 -17z"/>
<path d="M14866 18285 c-3 -9 -6 -24 -5 -33 0 -9 5 -4 10 12 9 32 6 48 -5 21z"/>
<path d="M14865 18170 c-3 -5 -1 -10 4 -10 6 0 11 5 11 10 0 6 -2 10 -4 10 -3
0 -8 -4 -11 -10z"/>
<path d="M14903 18040 c0 -25 2 -35 4 -22 2 12 2 32 0 45 -2 12 -4 2 -4 -23z"/>
<path d="M14883 17960 c0 -25 2 -35 4 -22 2 12 2 32 0 45 -2 12 -4 2 -4 -23z"/>
<path d="M14233 16760 c0 -25 2 -35 4 -22 2 12 2 32 0 45 -2 12 -4 2 -4 -23z"/>
<path d="M15540 14579 c0 -5 5 -7 10 -4 6 3 10 8 10 11 0 2 -4 4 -10 4 -5 0
-10 -5 -10 -11z"/>
<path d="M15340 14476 c0 -2 7 -7 16 -10 8 -3 12 -2 9 4 -6 10 -25 14 -25 6z"/>
<path d="M15300 14429 c0 -5 5 -7 10 -4 6 3 10 8 10 11 0 2 -4 4 -10 4 -5 0
-10 -5 -10 -11z"/>
<path d="M15276 14403 c-6 -14 -5 -15 5 -6 7 7 10 15 7 18 -3 3 -9 -2 -12 -12z"/>
<path d="M14075 13440 c3 -5 8 -10 11 -10 2 0 4 5 4 10 0 6 -5 10 -11 10 -5 0
-7 -4 -4 -10z"/>
<path d="M13510 13259 c19 -12 50 -30 68 -41 17 -11 32 -17 32 -15 0 7 -115
77 -126 77 -5 0 7 -10 26 -21z"/>
<path d="M15432 12560 c-10 -16 -10 -20 0 -20 9 0 9 -3 -1 -9 -10 -6 1 -8 30
-4 72 8 78 13 39 33 -45 24 -52 24 -68 0z"/>
<path d="M8782 8325 c4 -4 3 -14 -4 -22 -6 -7 -8 -16 -5 -19 3 -3 10 3 16 15
8 15 8 22 -1 27 -7 4 -10 4 -6 -1z"/>
<path d="M10690 10990 c19 -13 30 -13 30 0 0 6 -10 10 -22 10 -19 0 -20 -2 -8
-10z"/>
<path d="M10443 10964 c-15 -7 -17 -40 -3 -49 6 -4 10 5 10 19 0 34 16 33 25
-1 3 -15 9 -23 13 -17 4 5 20 10 37 9 21 0 31 5 33 18 3 13 -4 17 -30 17 -18
0 -42 2 -53 5 -11 2 -26 2 -32 -1z"/>
<path d="M10623 10963 c9 -2 25 -2 35 0 9 3 1 5 -18 5 -19 0 -27 -2 -17 -5z"/>
<path d="M17100 10882 c0 -45 4 -82 9 -82 9 0 3 149 -5 159 -2 2 -4 -32 -4
-77z"/>
<path d="M10370 10814 c0 -3 7 -12 15 -20 16 -17 18 -14 9 10 -6 15 -24 23
-24 10z"/>
<path d="M10361 10774 c0 -11 3 -14 6 -6 3 7 2 16 -1 19 -3 4 -6 -2 -5 -13z"/>
<path d="M17080 10770 c-12 -8 -10 -10 8 -10 13 0 20 4 17 10 -7 12 -6 12 -25
0z"/>
<path d="M16985 10604 c36 -28 61 -36 30 -10 -16 14 -34 26 -40 26 -5 -1 -1
-8 10 -16z"/>
<path d="M14719 10566 c-3 -3 -47 -6 -99 -7 -52 -1 -99 -5 -105 -9 -21 -15
-106 -39 -120 -34 -7 3 -23 -4 -34 -15 -12 -12 -32 -21 -45 -21 -14 0 -28 -5
-32 -11 -3 -6 -26 -20 -51 -31 -27 -12 -48 -29 -53 -44 -6 -14 -14 -23 -20
-19 -5 3 -17 -6 -26 -20 -16 -25 -16 -27 5 -53 12 -15 31 -41 41 -58 11 -17
37 -38 58 -47 20 -9 44 -20 52 -26 8 -5 29 -15 45 -22 17 -8 33 -18 37 -23 3
-5 26 0 52 12 25 12 48 22 51 22 9 0 140 63 145 70 3 4 32 4 65 -1 101 -14
229 -14 250 0 11 7 13 10 5 8 -12 -4 -14 4 -11 39 3 39 1 44 -18 44 -12 0 -21
4 -21 8 0 5 10 8 21 8 28 -1 36 20 11 28 -14 5 -18 13 -15 26 6 24 12 25 39 5
12 -8 24 -11 28 -8 3 3 6 1 6 -5 0 -7 20 -22 45 -34 31 -15 41 -25 32 -31 -7
-5 -4 -6 11 -2 12 3 22 2 22 -3 0 -5 8 -12 18 -15 31 -11 102 -54 96 -60 -3
-3 1 -4 8 -4 7 1 45 -16 84 -38 l71 -39 -152 -91 c-84 -49 -268 -157 -408
-240 -141 -82 -256 -154 -257 -158 0 -4 8 -11 18 -14 9 -4 49 -25 87 -48 39
-22 91 -53 116 -67 l46 -27 69 40 c38 23 87 51 109 64 396 225 380 214 383
251 3 37 7 39 36 20 14 -9 32 -16 39 -16 8 0 113 57 233 126 120 70 234 135
251 145 l33 19 137 -77 c76 -42 210 -116 298 -166 88 -50 169 -95 180 -101 11
-6 25 -18 32 -26 7 -8 13 -11 13 -7 0 5 13 0 30 -9 36 -22 48 -13 27 20 -12
18 -13 25 -4 29 8 3 12 34 12 96 0 50 4 91 9 91 5 0 4 6 -2 13 -6 6 -12 17
-13 22 -4 16 -22 28 -174 116 -49 29 -101 60 -115 69 -14 10 -86 52 -160 95
-74 43 -164 96 -200 118 l-64 39 -41 -21 c-56 -29 -160 -86 -198 -110 -18 -10
-50 -29 -72 -41 -22 -12 -79 -44 -126 -71 l-86 -50 -81 51 c-45 27 -84 50 -87
50 -3 0 -37 20 -77 45 -40 25 -78 45 -86 45 -7 0 -10 5 -7 10 4 6 2 9 -3 8
-17 -5 -112 56 -111 72 0 10 2 11 6 3 3 -10 8 -10 19 1 18 19 18 30 -1 22 -8
-3 -27 5 -42 17 -16 12 -39 28 -53 34 -26 12 -202 28 -211 19z m81 -246 c0 -5
-5 -10 -11 -10 -5 0 -7 5 -4 10 3 6 8 10 11 10 2 0 4 -4 4 -10z m-90 -65 c-7
-8 -24 -15 -39 -15 l-26 1 25 14 c35 20 57 20 40 0z"/>
<path d="M17090 10549 c-12 -8 -10 -9 7 -4 17 5 21 3 18 -8 -4 -8 5 -18 22
-25 l28 -12 -24 20 c-21 18 -21 20 -5 21 18 0 17 1 -1 9 -27 11 -28 11 -45 -1z"/>
<path d="M10827 10523 c-2 -4 -7 -21 -11 -36 -6 -24 -9 -27 -21 -17 -13 10
-15 8 -15 -18 0 -22 -6 -32 -22 -37 -20 -6 -20 -8 -5 -12 9 -2 17 -7 17 -9 0
-14 -32 -65 -38 -60 -3 4 0 12 6 18 16 16 15 35 -2 41 -10 4 -13 -7 -11 -49 1
-43 -2 -55 -15 -59 -18 -6 -45 -54 -35 -63 3 -3 5 0 5 6 0 7 5 12 11 12 5 0 2
-13 -8 -30 -9 -16 -21 -30 -26 -30 -5 0 -7 -6 -5 -12 3 -7 -1 -32 -8 -56 -7
-23 -10 -41 -6 -38 5 3 14 28 22 55 7 28 16 51 20 51 3 0 15 19 25 43 10 23
31 70 47 104 15 34 28 68 28 77 0 8 5 18 11 22 14 8 53 94 46 100 -3 3 -7 2
-10 -3z"/>
<path d="M17410 10455 c0 -14 -4 -25 -10 -25 -17 0 -11 -28 7 -39 10 -5 14
-13 10 -17 -4 -4 -13 -2 -19 4 -18 18 -33 15 -17 -4 8 -10 21 -13 37 -9 18 4
23 3 19 -8 -3 -8 1 -14 10 -14 12 0 14 9 9 45 -3 25 -6 55 -6 68 0 17 -6 24
-20 24 -15 0 -20 -7 -20 -25z"/>
<path d="M17335 10460 c-3 -5 1 -10 9 -10 9 0 16 5 16 10 0 6 -4 10 -9 10 -6
0 -13 -4 -16 -10z"/>
<path d="M17290 10426 c0 -2 7 -6 15 -10 8 -3 15 -1 15 4 0 6 -7 10 -15 10 -8
0 -15 -2 -15 -4z"/>
<path d="M17347 10411 c-4 -17 -3 -21 5 -13 5 5 8 16 6 23 -3 8 -7 3 -11 -10z"/>
<path d="M15165 10380 c3 -5 8 -10 11 -10 2 0 4 5 4 10 0 6 -5 10 -11 10 -5 0
-7 -4 -4 -10z"/>
<path d="M15190 10365 c0 -2 14 -10 31 -19 19 -10 29 -11 27 -4 -4 10 -58 32
-58 23z"/>
<path d="M14966 10345 c-9 -26 -7 -32 5 -12 6 10 9 21 6 23 -2 3 -7 -2 -11
-11z"/>
<path d="M15095 10260 l-30 -8 27 -1 c15 0 30 4 33 9 3 6 5 9 3 9 -2 -1 -16
-5 -33 -9z"/>
<path d="M10590 10076 c0 -2 7 -7 16 -10 8 -3 12 -2 9 4 -6 10 -25 14 -25 6z"/>
<path d="M16730 10010 c-8 -5 -10 -10 -5 -10 6 0 17 5 25 10 8 5 11 10 5 10
-5 0 -17 -5 -25 -10z"/>
<path d="M15987 9626 c-10 -8 -14 -16 -10 -19 5 -3 14 3 21 14 14 22 13 23
-11 5z"/>
<path d="M15877 9564 c-16 -9 -27 -18 -24 -20 3 -3 20 4 38 15 39 24 28 28
-14 5z"/>
<path d="M15903 9544 c-15 -16 -16 -24 -4 -24 8 0 24 30 19 35 -2 2 -9 -3 -15
-11z"/>
<path d="M15837 9529 c7 -7 15 -10 18 -7 3 3 -2 9 -12 12 -14 6 -15 5 -6 -5z"/>
<path d="M15786 9512 c-3 -5 -25 -19 -50 -32 -25 -12 -43 -27 -40 -32 3 -4 12
-1 20 7 9 8 21 15 27 15 7 0 4 -7 -7 -15 -17 -13 -16 -14 12 -13 26 1 29 3 16
15 -16 16 -10 33 11 33 7 0 15 7 19 15 6 16 1 21 -8 7z"/>
<path d="M15814 9496 c-3 -9 -15 -16 -25 -16 -10 0 -19 -4 -19 -10 0 -15 23
-11 49 9 16 12 20 20 12 25 -6 4 -14 0 -17 -8z"/>
<path d="M17420 9450 c-9 -6 -10 -10 -3 -10 6 0 15 5 18 10 8 12 4 12 -15 0z"/>
<path d="M15650 9435 c-14 -8 -20 -14 -14 -15 5 0 19 7 30 15 24 18 16 19 -16
0z"/>
<path d="M15798 9443 c7 -3 16 -2 19 1 4 3 -2 6 -13 5 -11 0 -14 -3 -6 -6z"/>
<path d="M15655 9410 c-3 -5 -2 -10 4 -10 5 0 13 5 16 10 3 6 2 10 -4 10 -5 0
-13 -4 -16 -10z"/>
<path d="M15597 9403 c-3 -5 6 -9 20 -10 19 -1 22 1 12 8 -17 11 -26 11 -32 2z"/>
<path d="M15650 9380 c-8 -5 -10 -10 -5 -10 6 0 17 5 25 10 8 5 11 10 5 10 -5
0 -17 -5 -25 -10z"/>
<path d="M15608 9363 c7 -3 16 -2 19 1 4 3 -2 6 -13 5 -11 0 -14 -3 -6 -6z"/>
<path d="M15490 9310 c-13 -8 -13 -10 2 -10 9 0 20 5 23 10 8 13 -5 13 -25 0z"/>
<path d="M15785 9260 c-3 -5 -1 -10 4 -10 6 0 11 5 11 10 0 6 -2 10 -4 10 -3
0 -8 -4 -11 -10z"/>
<path d="M15320 9240 c-9 -6 -10 -10 -3 -10 6 0 15 5 18 10 8 12 4 12 -15 0z"/>
<path d="M15555 9100 c4 -6 11 -8 16 -5 14 9 11 15 -7 15 -8 0 -12 -5 -9 -10z"/>
<path d="M12626 9073 c-3 -4 -6 -66 -6 -140 0 -112 -2 -133 -15 -133 -9 0 -15
-9 -14 -22 1 -17 2 -19 6 -5 6 21 21 23 19 1 0 -9 18 -26 44 -41 25 -14 54
-32 65 -40 l20 -15 -20 7 c-11 4 -28 10 -37 12 -10 3 -15 10 -12 15 4 6 -2 7
-16 3 -15 -5 -20 -4 -16 4 5 7 1 9 -8 5 -9 -3 -16 -1 -16 5 0 6 -7 11 -16 11
-13 0 -13 -2 -2 -13 7 -8 20 -17 28 -20 8 -4 -7 -5 -35 -2 -35 3 -44 2 -30 -4
11 -5 34 -10 50 -11 30 -2 30 -2 5 -10 -23 -7 -24 -8 -3 -9 12 -1 27 7 32 17
8 13 13 14 19 4 5 -7 33 -17 63 -23 49 -9 510 -38 619 -38 l45 0 -40 24 c-87
53 -118 71 -385 225 -80 46 -188 109 -242 141 -53 32 -99 55 -102 52z"/>
<path d="M12550 8906 c0 -3 9 -10 20 -16 11 -6 20 -8 20 -6 0 3 -9 10 -20 16
-11 6 -20 8 -20 6z"/>
<path d="M14650 8856 c0 -9 5 -16 10 -16 6 0 10 4 10 9 0 6 -4 13 -10 16 -5 3
-10 -1 -10 -9z"/>
<path d="M12571 8784 c0 -11 3 -14 6 -6 3 7 2 16 -1 19 -3 4 -6 -2 -5 -13z"/>
<path d="M12560 8739 c0 -5 5 -7 10 -4 6 3 10 8 10 11 0 2 -4 4 -10 4 -5 0
-10 -5 -10 -11z"/>
<path d="M11910 8710 c8 -5 20 -10 25 -10 6 0 3 5 -5 10 -8 5 -19 10 -25 10
-5 0 -3 -5 5 -10z"/>
<path d="M12218 8713 c7 -3 16 -2 19 1 4 3 -2 6 -13 5 -11 0 -14 -3 -6 -6z"/>
<path d="M12288 8713 c6 -2 18 -2 25 0 6 3 1 5 -13 5 -14 0 -19 -2 -12 -5z"/>
<path d="M12338 8713 c7 -3 16 -2 19 1 4 3 -2 6 -13 5 -11 0 -14 -3 -6 -6z"/>
<path d="M12518 8713 c7 -3 16 -2 19 1 4 3 -2 6 -13 5 -11 0 -14 -3 -6 -6z"/>
<path d="M12118 8703 c7 -3 16 -2 19 1 4 3 -2 6 -13 5 -11 0 -14 -3 -6 -6z"/>
<path d="M12453 8703 c9 -2 25 -2 35 0 9 3 1 5 -18 5 -19 0 -27 -2 -17 -5z"/>
<path d="M12261 8696 c2 -2 51 -6 109 -8 69 -4 89 -3 60 2 -45 9 -177 13 -169
6z"/>
<path d="M12513 8683 c9 -2 25 -2 35 0 9 3 1 5 -18 5 -19 0 -27 -2 -17 -5z"/>
<path d="M11755 8621 c4 -8 2 -17 -6 -22 -9 -6 -10 -9 -2 -9 19 0 27 21 13 33
-10 9 -11 9 -5 -2z"/>
<path d="M11607 8523 c-26 -14 -46 -28 -43 -30 5 -5 96 46 96 53 0 6 0 6 -53
-23z"/>
<path d="M11470 8470 c-8 -5 -10 -10 -5 -10 6 0 17 5 25 10 8 5 11 10 5 10 -5
0 -17 -5 -25 -10z"/>
<path d="M11450 8429 c0 -5 5 -7 10 -4 6 3 10 8 10 11 0 2 -4 4 -10 4 -5 0
-10 -5 -10 -11z"/>
<path d="M11412 8380 c0 -14 2 -19 5 -12 2 6 2 18 0 25 -3 6 -5 1 -5 -13z"/>
<path d="M14896 8345 c-11 -9 -14 -15 -7 -15 7 0 19 7 27 15 20 19 5 19 -20 0z"/>
<path d="M15240 8290 c0 -5 5 -10 11 -10 5 0 7 5 4 10 -3 6 -8 10 -11 10 -2 0
-4 -4 -4 -10z"/>
<path d="M14796 8277 c3 -10 9 -15 12 -12 3 3 0 11 -7 18 -10 9 -11 8 -5 -6z"/>
<path d="M14745 8260 c-3 -5 1 -10 9 -10 9 0 16 5 16 10 0 6 -4 10 -9 10 -6 0
-13 -4 -16 -10z"/>
<path d="M14808 8243 c6 -2 18 -2 25 0 6 3 1 5 -13 5 -14 0 -19 -2 -12 -5z"/>
<path d="M14674 8214 c-18 -14 -18 -15 4 -4 12 6 22 13 22 15 0 8 -5 6 -26
-11z"/>
<path d="M14608 8181 l-28 -18 33 0 c17 0 26 2 19 5 -10 3 -10 7 -1 18 14 18
11 17 -23 -5z"/>
<path d="M14674 8185 c-18 -14 -18 -14 4 -8 12 3 22 9 22 14 0 12 -3 11 -26
-6z"/>
<path d="M14535 8138 c-30 -16 -31 -18 -15 -28 21 -14 36 -12 22 2 -9 9 -7 14
6 24 21 16 14 17 -13 2z"/>
<path d="M14818 8073 c7 -3 16 -2 19 1 4 3 -2 6 -13 5 -11 0 -14 -3 -6 -6z"/>
<path d="M14681 7997 c10 -9 59 -17 59 -9 0 4 -14 9 -32 10 -18 2 -30 1 -27
-1z"/>
<path d="M14657 7953 c-10 -10 -8 -33 3 -33 5 0 14 9 20 20 8 15 8 20 -3 20
-8 0 -17 -3 -20 -7z"/>
<path d="M19736 4893 c-6 -14 -5 -15 5 -6 7 7 10 15 7 18 -3 3 -9 -2 -12 -12z"/>
<path d="M19560 4500 c0 -5 5 -10 11 -10 5 0 7 5 4 10 -3 6 -8 10 -11 10 -2 0
-4 -4 -4 -10z"/>
</g>
</svg>
